{
.appVersion = "1146";
DisplayStrings = (
"o|/Placeholder |oooo/Placeholder/Placeholder/Placeholder/Placeholder ooo\012OI nnnn/Placeholder/Placeholder/Placeholder/Placeholder nnnn /idotless/idotless/idotless/idotless/idotless/idotless/Placeholder/idotless/idotless/idotless/idotless/idotless/idotless \012llllll/Placeholder/Placeholder/Placeholder/Placeholder lllllloo/Placeholder oolll",
"O|/Placeholder |OOOO/Placeholder/Placeholder/Placeholder/Placeholder OOO\012Z IIIIII/Placeholder/Placeholder/Placeholder/Placeholder IIIIII HH/Placeholder/Placeholder HH\012IIIIII/Placeholder/Placeholder/Placeholder/Placeholder IIIIIIOO/Placeholder OOIII",
x
);
classes = (
{
automatic = 1;

glyphs = (
{
glyphname = A;
lastChange = "2018-05-31 14:32:51 +0000";
layers = (
{
anchors = (
{
name = bottom;
position = "{273, 0}";
},
{
name = ogonek;
position = "{542, 0}";
},
{
name = top;
position = "{284, 587}";
}
);
background = {
anchors = (
{
name = bottom;
position = "{273, 0}";
},
{
name = ogonek;
position = "{542, 0}";
},
{
name = top;
position = "{284, 587}";
}
);
paths = (
{
closed = 1;
nodes = (
"30 0 OFFCURVE",
"61 0 OFFCURVE",
"84 0 CURVE SMOOTH",
"108 0 OFFCURVE",
"139 0 OFFCURVE",
"170 -2 CURVE",
"172 38 LINE",
"148 40 OFFCURVE",
"121 46 OFFCURVE",
"110 49 CURVE",
"164 201 LINE",
"175 231 LINE",
"282 516 LINE",
"256 503 LINE",
"365 231 LINE",
"376 200 LINE",
"436 50 LINE",
"428 47 OFFCURVE",
"398 40 OFFCURVE",
"375 38 CURVE",
"377 -2 LINE",
"407 0 OFFCURVE",
"446 1 OFFCURVE",
"479 1 CURVE SMOOTH",
"510 1 OFFCURVE",
"552 0 OFFCURVE",
"580 -2 CURVE",
"582 38 LINE",
"561 41 OFFCURVE",
"545 45 OFFCURVE",
"532 50 CURVE",
"313 605 LINE",
"255 570 LINE",
"49 49 LINE",
"38 45 OFFCURVE",
"20 40 OFFCURVE",
"0 38 CURVE",
"2 -2 LINE"
);
},
{
closed = 1;
nodes = (
"170 186 OFFCURVE",
"212 188 OFFCURVE",
"275 188 CURVE SMOOTH",
"338 188 OFFCURVE",
"380 186 OFFCURVE",
"407 185 CURVE",
"407 238 LINE",
"383 237 OFFCURVE",
"338 235 OFFCURVE",
"275 235 CURVE SMOOTH",
"212 235 OFFCURVE",
"167 237 OFFCURVE",
"142 238 CURVE",
"142 185 LINE"
);
}
);
};
color = -1;
layerId = "30A8E426-80C1-4FA7-AECB-85F4920FB6F7";
paths = (
{
closed = 1;
nodes = (
"30 0 OFFCURVE",
"61 1 OFFCURVE",
"84 1 CURVE SMOOTH",
"108 1 OFFCURVE",
"139 0 OFFCURVE",
"170 -2 CURVE",
"172 38 LINE",
"148 40 OFFCURVE",
"121 46 OFFCURVE",
"110 49 CURVE",
"164 201 LINE",
"175 231 LINE",
"282 516 LINE",
"256 503 LINE",
"365 231 LINE",
"376 200 LINE",
"436 50 LINE",
"428 47 OFFCURVE",
"398 40 OFFCURVE",
"375 38 CURVE",
"377 -2 LINE",
"407 0 OFFCURVE",
"446 1 OFFCURVE",
"479 1 CURVE SMOOTH",
"510 1 OFFCURVE",
"552 0 OFFCURVE",
"580 -2 CURVE",
"582 38 LINE",
"561 41 OFFCURVE",
"545 45 OFFCURVE",
"532 50 CURVE",
"313 605 LINE",
"255 570 LINE",
"49 49 LINE",
"38 45 OFFCURVE",
"20 40 OFFCURVE",
"0 38 CURVE",
"2 -2 LINE"
);
},
{
closed = 1;
nodes = (
"170 186 OFFCURVE",
"212 187 OFFCURVE",
"275 187 CURVE SMOOTH",
"338 187 OFFCURVE",
"380 186 OFFCURVE",
"407 185 CURVE",
"407 238 LINE",
"383 237 OFFCURVE",
"338 235 OFFCURVE",
"275 235 CURVE SMOOTH",
"212 235 OFFCURVE",
"167 237 OFFCURVE",
"142 238 CURVE",
"142 185 LINE"
);
}
);
width = 583;
},
{
anchors = (
{
name = bottom;
position = "{268, 0}";
},
{
name = ogonek;
position = "{568, 0}";
},
{
name = top;
position = "{292, 587}";
}
);
background = {
anchors = (
{
name = bottom;
position = "{268, 0}";
},
{
name = ogonek;
position = "{568, 0}";
},
{
name = top;
position = "{292, 587}";
}
);
paths = (
{
closed = 1;
nodes = (
"28 0 OFFCURVE",
"68 -1 OFFCURVE",
"95 -1 CURVE SMOOTH",
"123 -1 OFFCURVE",
"163 0 OFFCURVE",
"192 -2 CURVE",
"195 51 LINE",
"169 55 OFFCURVE",
"142 59 OFFCURVE",
"129 62 CURVE",
"177 202 LINE",
"188 232 LINE",
"271 455 LINE",
"240 464 LINE",
"340 229 LINE",
"351 194 LINE",
"406 61 LINE",
"386 57 OFFCURVE",
"366 55 OFFCURVE",
"341 51 CURVE",
"344 -2 LINE",
"373 0 OFFCURVE",
"442 2 OFFCURVE",
"480 2 CURVE SMOOTH",
"516 2 OFFCURVE",
"585 0 OFFCURVE",
"616 -2 CURVE",
"619 51 LINE",
"598 56 OFFCURVE",
"579 57 OFFCURVE",
"567 61 CURVE",
"334 605 LINE",
"250 557 LINE",
"45 62 LINE",
"36 58 OFFCURVE",
"22 55 OFFCURVE",
"-6 51 CURVE",
"-3 -2 LINE"
);
},
{
closed = 1;
nodes = (
"182 170 OFFCURVE",
"213 173 OFFCURVE",
"265 173 CURVE SMOOTH",
"316 173 OFFCURVE",
"349 170 OFFCURVE",
"372 170 CURVE",
"372 238 LINE",
"348 237 OFFCURVE",
"316 234 OFFCURVE",
"265 234 CURVE SMOOTH",
"213 234 OFFCURVE",
"183 237 OFFCURVE",
"158 238 CURVE",
"158 169 LINE"
);
}
);
};
color = -1;
layerId = "C0B3E82F-C341-4413-A405-AFA97EAADFAC";
paths = (
{
closed = 1;
nodes = (
"28 0 OFFCURVE",
"68 -1 OFFCURVE",
"95 -1 CURVE SMOOTH",
"123 -1 OFFCURVE",
"163 0 OFFCURVE",
"192 -2 CURVE",
"195 51 LINE",
"169 55 OFFCURVE",
"142 59 OFFCURVE",
"129 62 CURVE",
"177 202 LINE",
"188 232 LINE",
"271 455 LINE",
"240 464 LINE",
"340 229 LINE",
"351 194 LINE",
"406 61 LINE",
"386 57 OFFCURVE",
"366 55 OFFCURVE",
"341 51 CURVE",
"344 -2 LINE",
"373 0 OFFCURVE",
"442 2 OFFCURVE",
"480 2 CURVE SMOOTH",
"516 2 OFFCURVE",
"585 0 OFFCURVE",
"616 -2 CURVE",
"619 51 LINE",
"598 56 OFFCURVE",
"579 57 OFFCURVE",
"567 61 CURVE",
"334 605 LINE",
"250 557 LINE",
"45 62 LINE",
"36 58 OFFCURVE",
"22 55 OFFCURVE",
"-6 51 CURVE",
"-3 -2 LINE"
);
},
{
closed = 1;
nodes = (
"182 170 OFFCURVE",
"213 172 OFFCURVE",
"265 172 CURVE SMOOTH",
"316 172 OFFCURVE",
"349 170 OFFCURVE",
"372 170 CURVE",
"372 238 LINE",
"348 237 OFFCURVE",
"316 234 OFFCURVE",
"265 234 CURVE SMOOTH",
"213 234 OFFCURVE",
"183 237 OFFCURVE",
"158 238 CURVE",
"158 169 LINE"
);
}
);
width = 607;
}
);
leftKerningGroup = A;
note = A;
rightKerningGroup = A;
unicode = 0041;
},
{
glyphname = Aogonek;
lastChange = "2018-05-31 14:32:51 +0000";
layers = (
{
anchors = (
{
name = bottom;
position = "{273, 0}";
},
{
name = top;
position = "{284, 587}";
}
);
background = {
anchors = (
{
name = bottom;
position = "{273, 0}";
},
{
name = top;
position = "{284, 587}";
}
);
paths = (
{
closed = 1;
nodes = (
"532 -223 OFFCURVE",
"568 -204 OFFCURVE",
"594 -173 CURVE",
"572 -146 LINE",
"551 -167 OFFCURVE",
"529 -181 OFFCURVE",
"503 -181 CURVE SMOOTH",
"468 -181 OFFCURVE",
"445 -158 OFFCURVE",
"445 -122 CURVE SMOOTH",
"445 -69 OFFCURVE",
"499 -21 OFFCURVE",
"580 0 CURVE",
"582 38 LINE",
"561 41 OFFCURVE",
"545 45 OFFCURVE",
"532 50 CURVE",
"313 605 LINE",
"255 570 LINE",
"49 49 LINE",
"38 45 OFFCURVE",
"20 40 OFFCURVE",
"0 38 CURVE",
"2 -2 LINE",
"30 0 OFFCURVE",
"61 0 OFFCURVE",
"84 0 CURVE SMOOTH",
"108 0 OFFCURVE",
"139 0 OFFCURVE",
"170 -2 CURVE",
"172 38 LINE",
"148 40 OFFCURVE",
"121 46 OFFCURVE",
"110 49 CURVE",
"164 201 LINE",
"175 231 LINE",
"282 516 LINE",
"256 503 LINE",
"365 231 LINE",
"376 200 LINE",
"436 50 LINE",
"428 47 OFFCURVE",
"398 40 OFFCURVE",
"375 38 CURVE",
"377 -2 LINE",
"407 0 OFFCURVE",
"446 1 OFFCURVE",
"479 1 CURVE SMOOTH",
"540 1 LINE",
"532 15 LINE",
"434 -18 OFFCURVE",
"375 -71 OFFCURVE",
"375 -132 CURVE SMOOTH",
"375 -183 OFFCURVE",
"419 -223 OFFCURVE",
"489 -223 CURVE SMOOTH"
);
},
{
closed = 1;
nodes = (
"170 186 OFFCURVE",
"212 188 OFFCURVE",
"275 188 CURVE SMOOTH",
"338 188 OFFCURVE",
"380 186 OFFCURVE",
"407 185 CURVE",
"407 238 LINE",
"383 237 OFFCURVE",
"338 235 OFFCURVE",
"275 235 CURVE SMOOTH",
"212 235 OFFCURVE",
"167 237 OFFCURVE",
"142 238 CURVE",
"142 185 LINE"
);
}
);
};
color = -1;
layerId = "30A8E426-80C1-4FA7-AECB-85F4920FB6F7";
paths = (
{
closed = 1;
nodes = (
"532 -223 OFFCURVE",
"568 -204 OFFCURVE",
"594 -173 CURVE",
"572 -146 LINE",
"551 -167 OFFCURVE",
"529 -181 OFFCURVE",
"503 -181 CURVE SMOOTH",
"468 -181 OFFCURVE",
"445 -158 OFFCURVE",
"445 -122 CURVE SMOOTH",
"445 -69 OFFCURVE",
"499 -21 OFFCURVE",
"580 0 CURVE",
"582 38 LINE",
"561 41 OFFCURVE",
"545 45 OFFCURVE",
"532 50 CURVE",
"313 605 LINE",
"255 570 LINE",
"49 49 LINE",
"38 45 OFFCURVE",
"20 40 OFFCURVE",
"0 38 CURVE",
"2 -2 LINE",
"30 0 OFFCURVE",
"61 0 OFFCURVE",
"84 0 CURVE SMOOTH",
"108 0 OFFCURVE",
"139 0 OFFCURVE",
"170 -2 CURVE",
"172 38 LINE",
"148 40 OFFCURVE",
"121 46 OFFCURVE",
"110 49 CURVE",
"164 201 LINE",
"175 231 LINE",
"282 516 LINE",
"256 503 LINE",
"365 231 LINE",
"376 200 LINE",
"436 50 LINE",
"428 47 OFFCURVE",
"398 40 OFFCURVE",
"375 38 CURVE",
"377 -2 LINE",
"407 0 OFFCURVE",
"446 1 OFFCURVE",
"479 1 CURVE SMOOTH",
"540 1 LINE",
"532 15 LINE",
"434 -18 OFFCURVE",
"375 -71 OFFCURVE",
"375 -132 CURVE SMOOTH",
"375 -183 OFFCURVE",
"419 -223 OFFCURVE",
"489 -223 CURVE SMOOTH"
);
},
{
closed = 1;
nodes = (
"170 186 OFFCURVE",
"212 187 OFFCURVE",
"275 187 CURVE SMOOTH",
"338 187 OFFCURVE",
"380 186 OFFCURVE",
"407 185 CURVE",
"407 238 LINE",
"383 237 OFFCURVE",
"338 235 OFFCURVE",
"275 235 CURVE SMOOTH",
"212 235 OFFCURVE",
"167 237 OFFCURVE",
"142 238 CURVE",
"142 185 LINE"
);
}
);
width = 583;
},
{
anchors = (
{
name = bottom;
position = "{268, 0}";
},
{
name = top;
position = "{292, 587}";
}
);
background = {
anchors = (
{
name = bottom;
position = "{268, 0}";
},
{
name = top;
position = "{292, 587}";
}
);
paths = (
{
closed = 1;
nodes = (
"558 -223 OFFCURVE",
"598 -205 OFFCURVE",
"627 -173 CURVE",
"599 -134 LINE",
"575 -157 OFFCURVE",
"553 -168 OFFCURVE",
"531 -168 CURVE SMOOTH",
"501 -168 OFFCURVE",
"479 -148 OFFCURVE",
"479 -113 CURVE SMOOTH",
"479 -63 OFFCURVE",
"533 -18 OFFCURVE",
"616 0 CURVE",
"619 51 LINE",
"598 55 OFFCURVE",
"579 57 OFFCURVE",
"567 61 CURVE",
"334 605 LINE",
"250 557 LINE",
"45 62 LINE",
"36 58 OFFCURVE",
"22 55 OFFCURVE",
"-6 51 CURVE",
"-3 -2 LINE",
"28 0 OFFCURVE",
"68 -1 OFFCURVE",
"95 -1 CURVE SMOOTH",
"123 -1 OFFCURVE",
"163 0 OFFCURVE",
"192 -2 CURVE",
"195 51 LINE",
"169 55 OFFCURVE",
"142 59 OFFCURVE",
"129 62 CURVE",
"177 202 LINE",
"188 232 LINE",
"271 455 LINE",
"240 464 LINE",
"340 229 LINE",
"351 194 LINE",
"406 61 LINE",
"386 57 OFFCURVE",
"366 55 OFFCURVE",
"341 51 CURVE",
"344 -2 LINE",
"373 0 OFFCURVE",
"442 2 OFFCURVE",
"480 2 CURVE SMOOTH",
"551 2 LINE",
"552 14 LINE",
"450 -2 OFFCURVE",
"382 -65 OFFCURVE",
"382 -122 CURVE SMOOTH",
"382 -181 OFFCURVE",
"440 -223 OFFCURVE",
"512 -223 CURVE SMOOTH"
);
},
{
closed = 1;
nodes = (
"182 170 OFFCURVE",
"213 173 OFFCURVE",
"265 173 CURVE SMOOTH",
"316 173 OFFCURVE",
"349 170 OFFCURVE",
"372 170 CURVE",
"372 238 LINE",
"348 237 OFFCURVE",
"316 234 OFFCURVE",
"265 234 CURVE SMOOTH",
"213 234 OFFCURVE",
"183 237 OFFCURVE",
"158 238 CURVE",
"158 169 LINE"
);
}
);
};
color = -1;
layerId = "C0B3E82F-C341-4413-A405-AFA97EAADFAC";
paths = (
{
closed = 1;
nodes = (
"558 -223 OFFCURVE",
"598 -205 OFFCURVE",
"627 -173 CURVE",
"599 -134 LINE",
"575 -157 OFFCURVE",
"553 -168 OFFCURVE",
"531 -168 CURVE SMOOTH",
"501 -168 OFFCURVE",
"479 -148 OFFCURVE",
"479 -113 CURVE SMOOTH",
"479 -63 OFFCURVE",
"533 -18 OFFCURVE",
"616 0 CURVE",
"619 51 LINE",
"598 55 OFFCURVE",
"579 57 OFFCURVE",
"567 61 CURVE",
"334 605 LINE",
"250 557 LINE",
"45 62 LINE",
"36 58 OFFCURVE",
"22 55 OFFCURVE",
"-6 51 CURVE",
"-3 -2 LINE",
"28 0 OFFCURVE",
"68 -1 OFFCURVE",
"95 -1 CURVE SMOOTH",
"123 -1 OFFCURVE",
"163 0 OFFCURVE",
"192 -2 CURVE",
"195 51 LINE",
"169 55 OFFCURVE",
"142 59 OFFCURVE",
"129 62 CURVE",
"177 202 LINE",
"188 232 LINE",
"271 455 LINE",
"240 464 LINE",
"340 229 LINE",
"351 194 LINE",
"406 61 LINE",
"386 57 OFFCURVE",
"366 55 OFFCURVE",
"341 51 CURVE",
"344 -2 LINE",
"373 0 OFFCURVE",
"442 2 OFFCURVE",
"480 2 CURVE SMOOTH",
"551 2 LINE",
"552 14 LINE",
"450 -2 OFFCURVE",
"382 -65 OFFCURVE",
"382 -122 CURVE SMOOTH",
"382 -181 OFFCURVE",
"440 -223 OFFCURVE",
"512 -223 CURVE SMOOTH"
);
},
{
closed = 1;
nodes = (
"182 170 OFFCURVE",
"213 172 OFFCURVE",
"265 172 CURVE SMOOTH",
"316 172 OFFCURVE",
"349 170 OFFCURVE",
"372 170 CURVE",
"372 238 LINE",
"348 237 OFFCURVE",
"316 234 OFFCURVE",
"265 234 CURVE SMOOTH",
"213 234 OFFCURVE",
"183 237 OFFCURVE",
"158 238 CURVE",
"158 169 LINE"
);
}
);
width = 607;
}
);
leftMetricsKey = A;
widthMetricsKey = A;
note = Aogonek;
unicode = 0104;
},
{
glyphname = AE;
lastChange = "2018-05-31 14:32:51 +0000";
layers = (
{
anchors = (
{
name = bottom;
position = "{415, 0}";
},
{
name = top;
position = "{415, 587}";
}
);
background = {
anchors = (
{
name = bottom;
position = "{415, 0}";
},
{
name = top;
position = "{415, 587}";
}
);
paths = (
{
closed = 1;
nodes = (
"669 205 LINE",
"668 237 OFFCURVE",
"667 273 OFFCURVE",
"667 302 CURVE SMOOTH",
"667 332 OFFCURVE",
"668 366 OFFCURVE",
"669 399 CURVE",
"627 399 LINE",
"624 378 OFFCURVE",
"619 346 OFFCURVE",
"614 330 CURVE",
"606 328 OFFCURVE",
"589 327 OFFCURVE",
"568 327 CURVE SMOOTH",
"501 327 LINE SMOOTH",
"483 327 OFFCURVE",
"464 328 OFFCURVE",
"441 329 CURVE",
"441 275 LINE",
"464 276 OFFCURVE",
"483 277 OFFCURVE",
"501 277 CURVE SMOOTH",
"568 277 LINE SMOOTH",
"589 277 OFFCURVE",
"606 276 OFFCURVE",
"614 274 CURVE",
"619 258 OFFCURVE",
"624 225 OFFCURVE",
"627 205 CURVE"
);
},
{
closed = 1;
nodes = (
"197 182 OFFCURVE",
"234 183 OFFCURVE",
"287 183 CURVE SMOOTH",
"340 183 OFFCURVE",
"375 182 OFFCURVE",
"398 180 CURVE",
"398 234 LINE",
"377 232 OFFCURVE",
"340 231 OFFCURVE",
"287 231 CURVE SMOOTH",
"234 231 OFFCURVE",
"200 232 OFFCURVE",
"179 234 CURVE",
"167 180 LINE"
);
},
{
closed = 1;
nodes = (
"710 105 OFFCURVE",
"692 70 OFFCURVE",
"681 52 CURVE",
"669 49 OFFCURVE",
"654 48 OFFCURVE",
"609 48 CURVE SMOOTH",
"524 48 LINE SMOOTH",
"495 48 OFFCURVE",
"477 50 OFFCURVE",
"460 52 CURVE",
"459 62 OFFCURVE",
"458 108 OFFCURVE",
"458 153 CURVE SMOOTH",
"458 423 LINE SMOOTH",
"458 468 OFFCURVE",
"459 529 OFFCURVE",
"460 538 CURVE",
"476 540 OFFCURVE",
"495 542 OFFCURVE",
"521 542 CURVE SMOOTH",
"625 542 LINE SMOOTH",
"637 542 OFFCURVE",
"651 541 OFFCURVE",
"662 539 CURVE",
"674 515 OFFCURVE",
"685 486 OFFCURVE",
"696 452 CURVE",
"741 459 LINE",
"721 591 LINE",
"689 589 OFFCURVE",
"653 587 OFFCURVE",
"621 587 CURVE SMOOTH",
"416 587 LINE SMOOTH",
"384 587 OFFCURVE",
"327 587 OFFCURVE",
"291 589 CURVE",
"289 548 LINE",
"317 546 OFFCURVE",
"356 539 OFFCURVE",
"366 534 CURVE",
"368 570 LINE",
"35 49 LINE",
"23 45 OFFCURVE",
"6 40 OFFCURVE",
"-14 38 CURVE",
"-12 -2 LINE",
"16 0 OFFCURVE",
"53 0 OFFCURVE",
"77 0 CURVE SMOOTH",
"101 0 OFFCURVE",
"131 0 OFFCURVE",
"162 -2 CURVE",
"164 38 LINE",
"141 40 OFFCURVE",
"113 46 OFFCURVE",
"102 49 CURVE",
"401 539 LINE",
"372 520 LINE",
"372 158 LINE SMOOTH",
"372 91 OFFCURVE",
"371 59 OFFCURVE",
"368 52 CURVE",
"360 48 OFFCURVE",
"330 40 OFFCURVE",
"307 38 CURVE",
"309 -3 LINE",
"340 -1 OFFCURVE",
"384 0 OFFCURVE",
"416 0 CURVE SMOOTH",
"643 0 LINE SMOOTH",
"676 0 OFFCURVE",
"707 -2 OFFCURVE",
"738 -5 CURVE",
"777 141 LINE",
"732 150 LINE"
);
}
);
};
color = -1;
layerId = "30A8E426-80C1-4FA7-AECB-85F4920FB6F7";
paths = (
{
closed = 1;
nodes = (
"669 205 LINE",
"668 237 OFFCURVE",
"667 273 OFFCURVE",
"667 302 CURVE SMOOTH",
"667 332 OFFCURVE",
"668 366 OFFCURVE",
"669 399 CURVE",
"627 399 LINE",
"624 378 OFFCURVE",
"619 346 OFFCURVE",
"614 330 CURVE",
"606 328 OFFCURVE",
"589 327 OFFCURVE",
"568 327 CURVE SMOOTH",
"501 327 LINE SMOOTH",
"483 327 OFFCURVE",
"464 328 OFFCURVE",
"441 329 CURVE",
"441 275 LINE",
"464 276 OFFCURVE",
"483 277 OFFCURVE",
"501 277 CURVE SMOOTH",
"568 277 LINE SMOOTH",
"589 277 OFFCURVE",
"606 276 OFFCURVE",
"614 274 CURVE",
"619 258 OFFCURVE",
"624 225 OFFCURVE",
"627 205 CURVE"
);
},
{
closed = 1;
nodes = (
"197 182 OFFCURVE",
"234 182 OFFCURVE",
"287 182 CURVE SMOOTH",
"340 182 OFFCURVE",
"375 182 OFFCURVE",
"398 180 CURVE",
"398 234 LINE",
"377 232 OFFCURVE",
"340 231 OFFCURVE",
"287 231 CURVE SMOOTH",
"234 231 OFFCURVE",
"200 232 OFFCURVE",
"179 234 CURVE",
"167 180 LINE"
);
},
{
closed = 1;
nodes = (
"710 105 OFFCURVE",
"692 70 OFFCURVE",
"681 52 CURVE",
"669 49 OFFCURVE",
"654 48 OFFCURVE",
"609 48 CURVE SMOOTH",
"524 48 LINE SMOOTH",
"495 48 OFFCURVE",
"477 50 OFFCURVE",
"460 52 CURVE",
"459 62 OFFCURVE",
"458 108 OFFCURVE",
"458 153 CURVE SMOOTH",
"458 423 LINE SMOOTH",
"458 468 OFFCURVE",
"459 529 OFFCURVE",
"460 538 CURVE",
"476 540 OFFCURVE",
"495 542 OFFCURVE",
"521 542 CURVE SMOOTH",
"625 542 LINE SMOOTH",
"637 542 OFFCURVE",
"651 541 OFFCURVE",
"662 539 CURVE",
"674 515 OFFCURVE",
"685 486 OFFCURVE",
"696 452 CURVE",
"741 459 LINE",
"721 591 LINE",
"689 589 OFFCURVE",
"653 587 OFFCURVE",
"621 587 CURVE SMOOTH",
"416 587 LINE SMOOTH",
"384 587 OFFCURVE",
"327 587 OFFCURVE",
"291 589 CURVE",
"289 548 LINE",
"317 546 OFFCURVE",
"356 539 OFFCURVE",
"366 534 CURVE",
"368 570 LINE",
"35 49 LINE",
"23 45 OFFCURVE",
"6 40 OFFCURVE",
"-14 38 CURVE",
"-12 -2 LINE",
"16 0 OFFCURVE",
"53 0 OFFCURVE",
"77 0 CURVE SMOOTH",
"101 0 OFFCURVE",
"131 0 OFFCURVE",
"162 -2 CURVE",
"164 38 LINE",
"141 40 OFFCURVE",
"113 46 OFFCURVE",
"102 49 CURVE",
"401 539 LINE",
"372 520 LINE",
"372 158 LINE SMOOTH",
"372 91 OFFCURVE",
"371 59 OFFCURVE",
"368 52 CURVE",
"360 48 OFFCURVE",
"330 40 OFFCURVE",
"307 38 CURVE",
"309 -3 LINE",
"340 -1 OFFCURVE",
"384 0 OFFCURVE",
"416 0 CURVE SMOOTH",
"643 0 LINE SMOOTH",
"676 0 OFFCURVE",
"707 -2 OFFCURVE",
"738 -5 CURVE",
"777 141 LINE",
"732 150 LINE"
);
}
);
width = 809;
},
{
anchors = (
{
name = bottom;
position = "{435, 0}";
},
{
name = top;
position = "{435, 587}";
}
);
background = {
anchors = (
{
name = bottom;
position = "{435, 0}";
},
{
name = top;
position = "{435, 587}";
}
);
paths = (
{
closed = 1;
nodes = (
"703 199 LINE",
"703 232 OFFCURVE",
"701 269 OFFCURVE",
"701 301 CURVE SMOOTH",
"701 334 OFFCURVE",
"703 367 OFFCURVE",
"703 401 CURVE",
"648 401 LINE",
"645 380 OFFCURVE",
"639 343 OFFCURVE",
"636 335 CURVE",
"628 335 OFFCURVE",
"606 333 OFFCURVE",
"580 333 CURVE SMOOTH",
"537 333 LINE SMOOTH",
"513 333 OFFCURVE",
"492 335 OFFCURVE",
"480 336 CURVE",
"480 266 LINE",
"492 267 OFFCURVE",
"513 269 OFFCURVE",
"537 269 CURVE SMOOTH",
"580 269 LINE SMOOTH",
"606 269 OFFCURVE",
"628 267 OFFCURVE",
"636 267 CURVE",
"639 259 OFFCURVE",
"645 219 OFFCURVE",
"648 199 CURVE"
);
},
{
closed = 1;
nodes = (
"175 163 OFFCURVE",
"209 165 OFFCURVE",
"265 165 CURVE SMOOTH",
"320 165 OFFCURVE",
"355 163 OFFCURVE",
"380 162 CURVE",
"380 230 LINE",
"354 228 OFFCURVE",
"320 226 OFFCURVE",
"265 226 CURVE SMOOTH",
"209 226 OFFCURVE",
"199 228 OFFCURVE",
"173 230 CURVE",
"153 161 LINE"
);
},
{
closed = 1;
nodes = (
"743 130 OFFCURVE",
"727 94 OFFCURVE",
"708 64 CURVE",
"689 60 OFFCURVE",
"679 60 OFFCURVE",
"637 60 CURVE SMOOTH",
"593 60 LINE SMOOTH",
"553 60 OFFCURVE",
"530 62 OFFCURVE",
"505 65 CURVE",
"503 82 OFFCURVE",
"503 126 OFFCURVE",
"503 194 CURVE SMOOTH",
"503 402 LINE SMOOTH",
"503 469 OFFCURVE",
"503 513 OFFCURVE",
"505 528 CURVE",
"523 531 OFFCURVE",
"551 532 OFFCURVE",
"571 532 CURVE SMOOTH",
"636 532 LINE SMOOTH",
"652 532 OFFCURVE",
"664 531 OFFCURVE",
"682 528 CURVE",
"696 500 OFFCURVE",
"703 474 OFFCURVE",
"719 435 CURVE",
"778 443 LINE",
"750 592 LINE",
"716 591 OFFCURVE",
"638 587 OFFCURVE",
"596 587 CURVE SMOOTH",
"435 587 LINE SMOOTH",
"392 587 OFFCURVE",
"307 589 OFFCURVE",
"279 591 CURVE",
"276 536 LINE",
"300 535 OFFCURVE",
"342 529 OFFCURVE",
"351 520 CURVE",
"361 559 LINE",
"27 62 LINE",
"17 58 OFFCURVE",
"7 55 OFFCURVE",
"-21 51 CURVE",
"-18 -2 LINE",
"13 0 OFFCURVE",
"47 -1 OFFCURVE",
"75 -1 CURVE SMOOTH",
"103 -1 OFFCURVE",
"141 0 OFFCURVE",
"170 -2 CURVE",
"173 51 LINE",
"148 55 OFFCURVE",
"121 59 OFFCURVE",
"108 62 CURVE",
"401 513 LINE",
"366 502 LINE",
"366 250 LINE",
"366 137 OFFCURVE",
"367 75 OFFCURVE",
"366 67 CURVE",
"353 59 OFFCURVE",
"323 54 OFFCURVE",
"298 50 CURVE",
"301 -5 LINE",
"331 -2 OFFCURVE",
"392 0 OFFCURVE",
"435 0 CURVE SMOOTH",
"634 0 LINE SMOOTH",
"676 0 OFFCURVE",
"740 -4 OFFCURVE",
"775 -6 CURVE",
"820 157 LINE",
"763 168 LINE"
);
}
);
};
color = -1;
layerId = "C0B3E82F-C341-4413-A405-AFA97EAADFAC";
paths = (
{
closed = 1;
nodes = (
"703 199 LINE",
"703 232 OFFCURVE",
"701 269 OFFCURVE",
"701 301 CURVE SMOOTH",
"701 334 OFFCURVE",
"703 367 OFFCURVE",
"703 401 CURVE",
"648 401 LINE",
"645 380 OFFCURVE",
"639 343 OFFCURVE",
"636 335 CURVE",
"628 335 OFFCURVE",
"606 333 OFFCURVE",
"580 333 CURVE SMOOTH",
"537 333 LINE SMOOTH",
"513 333 OFFCURVE",
"492 335 OFFCURVE",
"480 336 CURVE",
"480 266 LINE",
"492 267 OFFCURVE",
"513 269 OFFCURVE",
"537 269 CURVE SMOOTH",
"580 269 LINE SMOOTH",
"606 269 OFFCURVE",
"628 267 OFFCURVE",
"636 267 CURVE",
"639 259 OFFCURVE",
"645 219 OFFCURVE",
"648 199 CURVE"
);
},
{
closed = 1;
nodes = (
"175 163 OFFCURVE",
"209 164 OFFCURVE",
"265 164 CURVE SMOOTH",
"320 164 OFFCURVE",
"355 163 OFFCURVE",
"380 162 CURVE",
"380 230 LINE",
"354 228 OFFCURVE",
"320 226 OFFCURVE",
"265 226 CURVE SMOOTH",
"209 226 OFFCURVE",
"199 228 OFFCURVE",
"173 230 CURVE",
"153 161 LINE"
);
},
{
closed = 1;
nodes = (
"743 130 OFFCURVE",
"727 94 OFFCURVE",
"708 64 CURVE",
"689 60 OFFCURVE",
"679 60 OFFCURVE",
"637 60 CURVE SMOOTH",
"593 60 LINE SMOOTH",
"553 60 OFFCURVE",
"530 62 OFFCURVE",
"505 65 CURVE",
"503 82 OFFCURVE",
"503 126 OFFCURVE",
"503 194 CURVE SMOOTH",
"503 402 LINE SMOOTH",
"503 469 OFFCURVE",
"503 513 OFFCURVE",
"505 528 CURVE",
"523 531 OFFCURVE",
"551 532 OFFCURVE",
"571 532 CURVE SMOOTH",
"636 532 LINE SMOOTH",
"652 532 OFFCURVE",
"664 531 OFFCURVE",
"682 528 CURVE",
"696 500 OFFCURVE",
"703 474 OFFCURVE",
"719 435 CURVE",
"778 443 LINE",
"750 592 LINE",
"716 591 OFFCURVE",
"638 587 OFFCURVE",
"596 587 CURVE SMOOTH",
"435 587 LINE SMOOTH",
"392 587 OFFCURVE",
"307 589 OFFCURVE",
"279 591 CURVE",
"276 536 LINE",
"300 535 OFFCURVE",
"342 529 OFFCURVE",
"351 520 CURVE",
"361 559 LINE",
"27 62 LINE",
"17 58 OFFCURVE",
"7 55 OFFCURVE",
"-21 51 CURVE",
"-18 -2 LINE",
"13 0 OFFCURVE",
"47 -1 OFFCURVE",
"75 -1 CURVE SMOOTH",
"103 -1 OFFCURVE",
"141 0 OFFCURVE",
"170 -2 CURVE",
"173 51 LINE",
"148 55 OFFCURVE",
"121 59 OFFCURVE",
"108 62 CURVE",
"401 513 LINE",
"366 502 LINE",
"366 250 LINE",
"366 137 OFFCURVE",
"367 75 OFFCURVE",
"366 67 CURVE",
"353 59 OFFCURVE",
"323 54 OFFCURVE",
"298 50 CURVE",
"301 -5 LINE",
"331 -2 OFFCURVE",
"392 0 OFFCURVE",
"435 0 CURVE SMOOTH",
"634 0 LINE SMOOTH",
"676 0 OFFCURVE",
"740 -4 OFFCURVE",
"775 -6 CURVE",
"820 157 LINE",
"763 168 LINE"
);
}
);
width = 837;
}
);
note = AE;
rightMetricsKey = "=E+1";
unicode = 00C6;
},
{
glyphname = B;
lastChange = "2018-05-31 14:32:51 +0000";
layers = (
{
anchors = (
{
name = bottom;
position = "{279, 0}";
},
{
name = top;
position = "{279, 587}";
}
);
background = {
anchors = (
{
name = bottom;
position = "{279, 0}";
},
{
name = top;
position = "{279, 587}";
}
);
paths = (
{
closed = 1;
nodes = (
"99 48 OFFCURVE",
"68 40 OFFCURVE",
"45 38 CURVE",
"47 -3 LINE",
"67 -1 OFFCURVE",
"122 2 OFFCURVE",
"171 2 CURVE SMOOTH",
"202 2 OFFCURVE",
"232 -1 OFFCURVE",
"264 -1 CURVE SMOOTH",
"425 -1 OFFCURVE",
"505 72 OFFCURVE",
"505 170 CURVE SMOOTH",
"505 257 OFFCURVE",
"440 313 OFFCURVE",
"316 317 CURVE",
"327 310 LINE",
"424 318 OFFCURVE",
"475 381 OFFCURVE",
"475 447 CURVE SMOOTH",
"475 538 OFFCURVE",
"409 589 OFFCURVE",
"278 589 CURVE SMOOTH",
"223 589 OFFCURVE",
"177 587 OFFCURVE",
"145 587 CURVE SMOOTH",
"112 587 OFFCURVE",
"81 586 OFFCURVE",
"47 588 CURVE",
"45 546 LINE",
"68 547 OFFCURVE",
"99 541 OFFCURVE",
"105 536 CURVE",
"109 530 OFFCURVE",
"113 496 OFFCURVE",
"113 387 CURVE SMOOTH",
"113 199 LINE SMOOTH",
"113 91 OFFCURVE",
"108 58 OFFCURVE",
"105 52 CURVE"
);
},
{
closed = 1;
nodes = (
"198 413 LINE SMOOTH",
"198 494 OFFCURVE",
"199 533 OFFCURVE",
"200 540 CURVE",
"212 543 OFFCURVE",
"238 546 OFFCURVE",
"262 546 CURVE SMOOTH",
"337 546 OFFCURVE",
"384 511 OFFCURVE",
"384 437 CURVE SMOOTH",
"384 369 OFFCURVE",
"341 325 OFFCURVE",
"253 325 CURVE SMOOTH",
"232 325 OFFCURVE",
"207 325 OFFCURVE",
"184 327 CURVE",
"184 276 LINE",
"207 278 OFFCURVE",
"231 278 OFFCURVE",
"270 278 CURVE SMOOTH",
"361 278 OFFCURVE",
"414 239 OFFCURVE",
"414 161 CURVE SMOOTH",
"414 85 OFFCURVE",
"368 46 OFFCURVE",
"278 46 CURVE SMOOTH",
"246 46 OFFCURVE",
"212 50 OFFCURVE",
"200 53 CURVE",
"199 62 OFFCURVE",
"198 109 OFFCURVE",
"198 177 CURVE SMOOTH"
);
}
);
};
color = -1;
layerId = "30A8E426-80C1-4FA7-AECB-85F4920FB6F7";
paths = (
{
closed = 1;
nodes = (
"99 48 OFFCURVE",
"68 40 OFFCURVE",
"45 38 CURVE",
"47 -3 LINE",
"67 -1 OFFCURVE",
"122 2 OFFCURVE",
"171 2 CURVE SMOOTH",
"202 2 OFFCURVE",
"232 -1 OFFCURVE",
"266 -1 CURVE SMOOTH",
"430 -1 OFFCURVE",
"515 72 OFFCURVE",
"515 169 CURVE SMOOTH",
"515 259 OFFCURVE",
"447 313 OFFCURVE",
"318 317 CURVE",
"329 310 LINE",
"432 318 OFFCURVE",
"485 381 OFFCURVE",
"485 447 CURVE SMOOTH",
"485 538 OFFCURVE",
"416 589 OFFCURVE",
"290 589 CURVE SMOOTH",
"223 589 OFFCURVE",
"177 587 OFFCURVE",
"145 587 CURVE SMOOTH",
"112 587 OFFCURVE",
"81 586 OFFCURVE",
"47 588 CURVE",
"45 546 LINE",
"68 547 OFFCURVE",
"99 541 OFFCURVE",
"105 536 CURVE",
"109 530 OFFCURVE",
"113 496 OFFCURVE",
"113 387 CURVE SMOOTH",
"113 199 LINE SMOOTH",
"113 91 OFFCURVE",
"108 58 OFFCURVE",
"105 52 CURVE"
);
},
{
closed = 1;
nodes = (
"197 413 LINE SMOOTH",
"197 494 OFFCURVE",
"198 532 OFFCURVE",
"199 539 CURVE",
"211 542 OFFCURVE",
"239 545 OFFCURVE",
"269 545 CURVE SMOOTH",
"344 545 OFFCURVE",
"394 511 OFFCURVE",
"394 437 CURVE SMOOTH",
"394 369 OFFCURVE",
"349 325 OFFCURVE",
"257 325 CURVE SMOOTH",
"233 325 OFFCURVE",
"207 325 OFFCURVE",
"184 327 CURVE",
"184 276 LINE",
"207 278 OFFCURVE",
"231 278 OFFCURVE",
"262 278 CURVE SMOOTH",
"368 278 OFFCURVE",
"424 239 OFFCURVE",
"424 159 CURVE SMOOTH",
"424 85 OFFCURVE",
"376 46 OFFCURVE",
"270 46 CURVE SMOOTH",
"246 46 OFFCURVE",
"212 50 OFFCURVE",
"200 53 CURVE",
"199 62 OFFCURVE",
"197 109 OFFCURVE",
"197 177 CURVE SMOOTH"
);
}
);
width = 564;
},
{
anchors = (
{
name = bottom;
position = "{306, 0}";
},
{
name = top;
position = "{306, 587}";
}
);
background = {
anchors = (
{
name = bottom;
position = "{306, 0}";
},
{
name = top;
position = "{306, 587}";
}
);
paths = (
{
closed = 1;
nodes = (
"86 59 OFFCURVE",
"58 54 OFFCURVE",
"33 50 CURVE",
"36 -5 LINE",
"70 -1 OFFCURVE",
"156 2 OFFCURVE",
"204 2 CURVE SMOOTH",
"234 2 OFFCURVE",
"269 -2 OFFCURVE",
"301 -2 CURVE SMOOTH",
"468 -2 OFFCURVE",
"562 69 OFFCURVE",
"562 175 CURVE SMOOTH",
"562 254 OFFCURVE",
"514 312 OFFCURVE",
"367 320 CURVE",
"360 312 LINE",
"473 319 OFFCURVE",
"532 381 OFFCURVE",
"532 447 CURVE SMOOTH",
"532 539 OFFCURVE",
"469 590 OFFCURVE",
"323 590 CURVE SMOOTH",
"264 590 OFFCURVE",
"209 588 OFFCURVE",
"177 588 CURVE SMOOTH",
"134 588 OFFCURVE",
"88 586 OFFCURVE",
"36 589 CURVE",
"33 533 LINE",
"58 533 OFFCURVE",
"86 528 OFFCURVE",
"97 519 CURVE",
"101 512 OFFCURVE",
"104 451 OFFCURVE",
"104 366 CURVE SMOOTH",
"104 221 LINE SMOOTH",
"104 137 OFFCURVE",
"101 75 OFFCURVE",
"97 67 CURVE"
);
},
{
closed = 1;
nodes = (
"242 409 LINE SMOOTH",
"242 484 OFFCURVE",
"244 523 OFFCURVE",
"245 530 CURVE",
"253 532 OFFCURVE",
"271 535 OFFCURVE",
"288 535 CURVE SMOOTH",
"342 535 OFFCURVE",
"385 502 OFFCURVE",
"385 434 CURVE SMOOTH",
"385 369 OFFCURVE",
"350 331 OFFCURVE",
"287 331 CURVE SMOOTH",
"268 331 OFFCURVE",
"253 331 OFFCURVE",
"233 332 CURVE",
"233 266 LINE",
"253 268 OFFCURVE",
"268 268 OFFCURVE",
"285 268 CURVE SMOOTH",
"376 268 OFFCURVE",
"415 231 OFFCURVE",
"415 166 CURVE SMOOTH",
"415 94 OFFCURVE",
"374 59 OFFCURVE",
"307 59 CURVE SMOOTH",
"279 59 OFFCURVE",
"255 64 OFFCURVE",
"245 67 CURVE",
"244 76 OFFCURVE",
"242 109 OFFCURVE",
"242 177 CURVE SMOOTH"
);
}
);
};
color = -1;
layerId = "C0B3E82F-C341-4413-A405-AFA97EAADFAC";
paths = (
{
closed = 1;
nodes = (
"86 59 OFFCURVE",
"58 54 OFFCURVE",
"33 50 CURVE",
"36 -5 LINE",
"70 -1 OFFCURVE",
"156 2 OFFCURVE",
"204 2 CURVE SMOOTH",
"234 2 OFFCURVE",
"269 -2 OFFCURVE",
"301 -2 CURVE SMOOTH",
"471 -2 OFFCURVE",
"562 67 OFFCURVE",
"562 172 CURVE SMOOTH",
"562 252 OFFCURVE",
"504 313 OFFCURVE",
"367 320 CURVE",
"360 312 LINE",
"473 319 OFFCURVE",
"532 381 OFFCURVE",
"532 447 CURVE SMOOTH",
"532 539 OFFCURVE",
"469 590 OFFCURVE",
"323 590 CURVE SMOOTH",
"264 590 OFFCURVE",
"209 588 OFFCURVE",
"177 588 CURVE SMOOTH",
"134 588 OFFCURVE",
"88 586 OFFCURVE",
"36 589 CURVE",
"33 533 LINE",
"58 533 OFFCURVE",
"86 528 OFFCURVE",
"97 519 CURVE",
"101 512 OFFCURVE",
"104 451 OFFCURVE",
"104 366 CURVE SMOOTH",
"104 221 LINE SMOOTH",
"104 137 OFFCURVE",
"101 75 OFFCURVE",
"97 67 CURVE"
);
},
{
closed = 1;
nodes = (
"240 409 LINE SMOOTH",
"240 484 OFFCURVE",
"242 523 OFFCURVE",
"243 530 CURVE",
"251 532 OFFCURVE",
"270 535 OFFCURVE",
"288 535 CURVE SMOOTH",
"342 535 OFFCURVE",
"385 502 OFFCURVE",
"385 434 CURVE SMOOTH",
"385 369 OFFCURVE",
"350 331 OFFCURVE",
"284 331 CURVE SMOOTH",
"268 331 OFFCURVE",
"252 331 OFFCURVE",
"232 332 CURVE",
"232 266 LINE",
"252 268 OFFCURVE",
"268 268 OFFCURVE",
"288 268 CURVE SMOOTH",
"376 268 OFFCURVE",
"415 231 OFFCURVE",
"415 158 CURVE SMOOTH",
"415 94 OFFCURVE",
"374 59 OFFCURVE",
"307 59 CURVE SMOOTH",
"278 59 OFFCURVE",
"253 64 OFFCURVE",
"243 67 CURVE",
"242 76 OFFCURVE",
"240 109 OFFCURVE",
"240 177 CURVE SMOOTH"
);
}
);
width = 609;
}
);
leftKerningGroup = B;
note = B;
rightKerningGroup = B;
unicode = 0042;
},
{
glyphname = C;
lastChange = "2018-05-31 14:32:51 +0000";
layers = (
{
anchors = (
{
name = bottom;
position = "{347, 0}";
},
{
name = top;
position = "{347, 587}";
}
);
background = {
anchors = (
{
name = bottom;
position = "{347, 0}";
},
{
name = top;
position = "{347, 587}";
}
);
paths = (
{
closed = 1;
nodes = (
"435 -9 OFFCURVE",
"500 11 OFFCURVE",
"546 35 CURVE",
"557 76 OFFCURVE",
"567 119 OFFCURVE",
"574 161 CURVE",
"527 166 LINE",
"511 129 OFFCURVE",
"499 102 OFFCURVE",
"483 72 CURVE",
"453 53 OFFCURVE",
"418 44 OFFCURVE",
"376 44 CURVE SMOOTH",
"254 44 OFFCURVE",
"156 136 OFFCURVE",
"156 307 CURVE SMOOTH",
"156 436 OFFCURVE",
"220 545 OFFCURVE",
"370 545 CURVE SMOOTH",
"408 545 OFFCURVE",
"454 536 OFFCURVE",
"480 519 CURVE",
"492 488 OFFCURVE",
"501 456 OFFCURVE",
"510 424 CURVE",
"555 428 LINE",
"548 565 LINE",
"500 585 OFFCURVE",
"433 596 OFFCURVE",
"379 596 CURVE SMOOTH",
"171 596 OFFCURVE",
"50 456 OFFCURVE",
"50 289 CURVE SMOOTH",
"50 92 OFFCURVE",
"192 -9 OFFCURVE",
"366 -9 CURVE SMOOTH"
);
}
);
};
color = -1;
layerId = "30A8E426-80C1-4FA7-AECB-85F4920FB6F7";
paths = (
{
closed = 1;
nodes = (
"435 -9 OFFCURVE",
"500 11 OFFCURVE",
"546 35 CURVE",
"557 76 OFFCURVE",
"567 119 OFFCURVE",
"574 161 CURVE",
"528 166 LINE",
"512 129 OFFCURVE",
"500 102 OFFCURVE",
"484 72 CURVE",
"453 53 OFFCURVE",
"418 44 OFFCURVE",
"376 44 CURVE SMOOTH",
"254 44 OFFCURVE",
"156 136 OFFCURVE",
"156 307 CURVE SMOOTH",
"156 436 OFFCURVE",
"220 545 OFFCURVE",
"370 545 CURVE SMOOTH",
"408 545 OFFCURVE",
"454 536 OFFCURVE",
"480 519 CURVE",
"492 488 OFFCURVE",
"501 456 OFFCURVE",
"510 424 CURVE",
"555 428 LINE",
"548 565 LINE",
"500 585 OFFCURVE",
"433 596 OFFCURVE",
"379 596 CURVE SMOOTH",
"171 596 OFFCURVE",
"50 456 OFFCURVE",
"50 289 CURVE SMOOTH",
"50 92 OFFCURVE",
"192 -9 OFFCURVE",
"366 -9 CURVE SMOOTH"
);
}
);
width = 602;
},
{
anchors = (
{
name = bottom;
position = "{351, 0}";
},
{
name = top;
position = "{351, 587}";
}
);
background = {
anchors = (
{
name = bottom;
position = "{351, 0}";
},
{
name = top;
position = "{351, 587}";
}
);
paths = (
{
closed = 1;
nodes = (
"451 -9 OFFCURVE",
"530 16 OFFCURVE",
"570 42 CURVE",
"582 88 OFFCURVE",
"591 131 OFFCURVE",
"599 176 CURVE",
"529 183 LINE",
"519 159 OFFCURVE",
"509 127 OFFCURVE",
"494 94 CURVE",
"474 72 OFFCURVE",
"429 61 OFFCURVE",
"398 61 CURVE SMOOTH",
"292 61 OFFCURVE",
"208 154 OFFCURVE",
"208 320 CURVE SMOOTH",
"208 442 OFFCURVE",
"272 529 OFFCURVE",
"386 529 CURVE SMOOTH",
"419 529 OFFCURVE",
"448 522 OFFCURVE",
"474 510 CURVE",
"487 475 OFFCURVE",
"498 439 OFFCURVE",
"510 404 CURVE",
"572 408 LINE",
"565 562 LINE",
"523 582 OFFCURVE",
"457 596 OFFCURVE",
"398 596 CURVE SMOOTH",
"193 596 OFFCURVE",
"44 478 OFFCURVE",
"44 283 CURVE SMOOTH",
"44 98 OFFCURVE",
"177 -9 OFFCURVE",
"373 -9 CURVE SMOOTH"
);
}
);
};
color = -1;
layerId = "C0B3E82F-C341-4413-A405-AFA97EAADFAC";
paths = (
{
closed = 1;
nodes = (
"451 -9 OFFCURVE",
"530 16 OFFCURVE",
"570 42 CURVE",
"582 88 OFFCURVE",
"591 131 OFFCURVE",
"599 176 CURVE",
"531 183 LINE",
"521 159 OFFCURVE",
"511 127 OFFCURVE",
"496 94 CURVE",
"476 72 OFFCURVE",
"429 61 OFFCURVE",
"398 61 CURVE SMOOTH",
"292 61 OFFCURVE",
"208 154 OFFCURVE",
"208 308 CURVE SMOOTH",
"208 444 OFFCURVE",
"272 529 OFFCURVE",
"386 529 CURVE SMOOTH",
"419 529 OFFCURVE",
"448 522 OFFCURVE",
"474 510 CURVE",
"487 475 OFFCURVE",
"498 439 OFFCURVE",
"510 404 CURVE",
"572 408 LINE",
"565 562 LINE",
"523 582 OFFCURVE",
"457 596 OFFCURVE",
"395 596 CURVE SMOOTH",
"193 596 OFFCURVE",
"44 478 OFFCURVE",
"44 283 CURVE SMOOTH",
"44 98 OFFCURVE",
"177 -9 OFFCURVE",
"373 -9 CURVE SMOOTH"
);
}
);
width = 621;
}
);
leftKerningGroup = C;
note = C;
rightKerningGroup = C;
unicode = 0043;
},
{
glyphname = D;
lastChange = "2018-05-31 14:32:51 +0000";
layers = (
{
anchors = (
{
name = bottom;
position = "{343, 0}";
},
{
name = center;
position = "{343, 294}";
},
{
name = stroke;
position = "{200, 294}";
},
{
name = top;
position = "{343, 587}";
}
);
background = {
anchors = (
{
name = bottom;
position = "{343, 0}";
},
{
name = center;
position = "{343, 294}";
},
{
name = stroke;
position = "{200, 294}";
},
{
name = top;
position = "{343, 587}";
}
);
paths = (
{
closed = 1;
nodes = (
"45 546 LINE",
"68 546 OFFCURVE",
"99 541 OFFCURVE",
"106 536 CURVE",
"109 530 OFFCURVE",
"113 496 OFFCURVE",
"113 387 CURVE SMOOTH",
"113 199 LINE SMOOTH",
"113 91 OFFCURVE",
"108 58 OFFCURVE",
"106 52 CURVE",
"99 48 OFFCURVE",
"68 40 OFFCURVE",
"45 38 CURVE",
"47 -3 LINE",
"67 -1 OFFCURVE",
"139 2 OFFCURVE",
"179 2 CURVE SMOOTH",
"216 2 OFFCURVE",
"265 -1 OFFCURVE",
"304 -1 CURVE SMOOTH",
"479 -1 OFFCURVE",
"627 110 OFFCURVE",
"627 298 CURVE SMOOTH",
"627 476 OFFCURVE",
"506 588 OFFCURVE",
"291 588 CURVE SMOOTH",
"239 588 OFFCURVE",
"187 586 OFFCURVE",
"148 586 CURVE SMOOTH",
"117 586 OFFCURVE",
"78 586 OFFCURVE",
"47 588 CURVE"
);
},
{
closed = 1;
nodes = (
"222 539 OFFCURVE",
"251 542 OFFCURVE",
"280 542 CURVE SMOOTH",
"440 542 OFFCURVE",
"525 441 OFFCURVE",
"525 271 CURVE SMOOTH",
"525 126 OFFCURVE",
"447 50 OFFCURVE",
"310 50 CURVE SMOOTH",
"268 50 OFFCURVE",
"235 53 OFFCURVE",
"205 59 CURVE",
"201 75 OFFCURVE",
"198 109 OFFCURVE",
"198 199 CURVE SMOOTH",
"198 387 LINE SMOOTH",
"198 484 OFFCURVE",
"200 515 OFFCURVE",
"202 534 CURVE"
);
}
);
};
color = -1;
layerId = "30A8E426-80C1-4FA7-AECB-85F4920FB6F7";
paths = (
{
closed = 1;
nodes = (
"45 546 LINE",
"68 546 OFFCURVE",
"99 541 OFFCURVE",
"106 536 CURVE",
"109 530 OFFCURVE",
"113 496 OFFCURVE",
"113 387 CURVE SMOOTH",
"113 199 LINE SMOOTH",
"113 91 OFFCURVE",
"108 58 OFFCURVE",
"106 52 CURVE",
"99 48 OFFCURVE",
"68 40 OFFCURVE",
"45 38 CURVE",
"47 -3 LINE",
"67 -1 OFFCURVE",
"139 2 OFFCURVE",
"179 2 CURVE SMOOTH",
"216 2 OFFCURVE",
"265 -1 OFFCURVE",
"304 -1 CURVE SMOOTH",
"479 -1 OFFCURVE",
"627 110 OFFCURVE",
"627 300 CURVE SMOOTH",
"627 476 OFFCURVE",
"509 588 OFFCURVE",
"291 588 CURVE SMOOTH",
"239 588 OFFCURVE",
"187 586 OFFCURVE",
"148 586 CURVE SMOOTH",
"117 586 OFFCURVE",
"78 586 OFFCURVE",
"47 588 CURVE"
);
},
{
closed = 1;
nodes = (
"222 538 OFFCURVE",
"251 540 OFFCURVE",
"280 540 CURVE SMOOTH",
"440 540 OFFCURVE",
"525 443 OFFCURVE",
"525 271 CURVE SMOOTH",
"525 125 OFFCURVE",
"447 52 OFFCURVE",
"310 52 CURVE SMOOTH",
"268 52 OFFCURVE",
"235 56 OFFCURVE",
"203 61 CURVE",
"201 77 OFFCURVE",
"198 111 OFFCURVE",
"198 199 CURVE SMOOTH",
"198 387 LINE SMOOTH",
"198 484 OFFCURVE",
"200 514 OFFCURVE",
"200 533 CURVE"
);
}
);
width = 681;
},
{
anchors = (
{
name = bottom;
position = "{357, 0}";
},
{
name = center;
position = "{357, 294}";
},
{
name = stroke;
position = "{213, 294}";
},
{
name = top;
position = "{357, 587}";
}
);
background = {
anchors = (
{
name = bottom;
position = "{357, 0}";
},
{
name = center;
position = "{357, 294}";
},
{
name = stroke;
position = "{213, 294}";
},
{
name = top;
position = "{357, 587}";
}
);
paths = (
{
closed = 1;
nodes = (
"33 533 LINE",
"58 531 OFFCURVE",
"86 528 OFFCURVE",
"97 519 CURVE",
"101 512 OFFCURVE",
"104 451 OFFCURVE",
"104 366 CURVE SMOOTH",
"104 221 LINE SMOOTH",
"104 137 OFFCURVE",
"101 75 OFFCURVE",
"97 67 CURVE",
"86 59 OFFCURVE",
"58 54 OFFCURVE",
"33 50 CURVE",
"36 -5 LINE",
"70 -1 OFFCURVE",
"132 2 OFFCURVE",
"210 2 CURVE SMOOTH",
"253 2 OFFCURVE",
"290 -1 OFFCURVE",
"334 -1 CURVE SMOOTH",
"498 -1 OFFCURVE",
"657 108 OFFCURVE",
"657 304 CURVE SMOOTH",
"657 481 OFFCURVE",
"527 588 OFFCURVE",
"324 588 CURVE SMOOTH",
"276 588 OFFCURVE",
"213 587 OFFCURVE",
"168 587 CURVE SMOOTH",
"125 587 OFFCURVE",
"66 586 OFFCURVE",
"36 589 CURVE"
);
},
{
closed = 1;
nodes = (
"262 523 OFFCURVE",
"280 526 OFFCURVE",
"310 526 CURVE SMOOTH",
"407 526 OFFCURVE",
"504 447 OFFCURVE",
"504 260 CURVE SMOOTH",
"504 123 OFFCURVE",
"444 67 OFFCURVE",
"339 67 CURVE SMOOTH",
"314 67 OFFCURVE",
"273 72 OFFCURVE",
"248 76 CURVE",
"246 87 OFFCURVE",
"241 142 OFFCURVE",
"241 221 CURVE SMOOTH",
"241 366 LINE SMOOTH",
"241 455 OFFCURVE",
"245 507 OFFCURVE",
"246 520 CURVE"
);
}
);
};
color = -1;
layerId = "C0B3E82F-C341-4413-A405-AFA97EAADFAC";
paths = (
{
closed = 1;
nodes = (
"33 533 LINE",
"58 531 OFFCURVE",
"86 528 OFFCURVE",
"97 519 CURVE",
"101 512 OFFCURVE",
"104 451 OFFCURVE",
"104 366 CURVE SMOOTH",
"104 221 LINE SMOOTH",
"104 137 OFFCURVE",
"101 75 OFFCURVE",
"97 67 CURVE",
"86 59 OFFCURVE",
"58 54 OFFCURVE",
"33 50 CURVE",
"36 -5 LINE",
"70 -1 OFFCURVE",
"132 2 OFFCURVE",
"210 2 CURVE SMOOTH",
"253 2 OFFCURVE",
"290 -1 OFFCURVE",
"324 -1 CURVE SMOOTH",
"498 -1 OFFCURVE",
"657 108 OFFCURVE",
"657 301 CURVE SMOOTH",
"657 481 OFFCURVE",
"533 588 OFFCURVE",
"306 588 CURVE SMOOTH",
"276 588 OFFCURVE",
"213 587 OFFCURVE",
"168 587 CURVE SMOOTH",
"125 587 OFFCURVE",
"66 586 OFFCURVE",
"36 589 CURVE"
);
},
{
closed = 1;
nodes = (
"262 523 OFFCURVE",
"286 526 OFFCURVE",
"308 526 CURVE SMOOTH",
"410 526 OFFCURVE",
"504 449 OFFCURVE",
"504 260 CURVE SMOOTH",
"504 123 OFFCURVE",
"444 67 OFFCURVE",
"334 67 CURVE SMOOTH",
"304 67 OFFCURVE",
"272 71 OFFCURVE",
"246 76 CURVE",
"245 87 OFFCURVE",
"241 142 OFFCURVE",
"241 221 CURVE SMOOTH",
"241 366 LINE SMOOTH",
"241 455 OFFCURVE",
"243 507 OFFCURVE",
"243 520 CURVE"
);
}
);
width = 705;
}
);
leftKerningGroup = B;
note = D;
rightKerningGroup = D;
unicode = 0044;
},
{
glyphname = E;
lastChange = "2018-05-31 14:32:51 +0000";
layers = (
{
anchors = (
{
name = bottom;
position = "{281, 0}";
},
{
name = ogonek;
position = "{489, 0}";
},
{
name = top;
position = "{281, 587}";
},
{
name = topleft;
position = "{26, 587}";
}
);
background = {
anchors = (
{
name = bottom;
position = "{281, 0}";
},
{
name = ogonek;
position = "{489, 0}";
},
{
name = top;
position = "{281, 587}";
},
{
name = topleft;
position = "{26, 587}";
}
);
paths = (
{
closed = 1;
nodes = (
"527 141 LINE",
"482 150 LINE",
"460 105 OFFCURVE",
"442 70 OFFCURVE",
"430 52 CURVE",
"419 49 OFFCURVE",
"404 48 OFFCURVE",
"359 48 CURVE SMOOTH",
"265 48 LINE SMOOTH",
"236 48 OFFCURVE",
"218 50 OFFCURVE",
"201 52 CURVE",
"200 62 OFFCURVE",
"199 108 OFFCURVE",
"199 153 CURVE SMOOTH",
"199 423 LINE SMOOTH",
"199 468 OFFCURVE",
"200 529 OFFCURVE",
"201 538 CURVE",
"217 540 OFFCURVE",
"235 542 OFFCURVE",
"262 542 CURVE SMOOTH",
"374 542 LINE SMOOTH",
"387 542 OFFCURVE",
"401 541 OFFCURVE",
"412 539 CURVE",
"424 515 OFFCURVE",
"435 486 OFFCURVE",
"446 452 CURVE",
"491 459 LINE",
"471 591 LINE",
"439 589 OFFCURVE",
"403 587 OFFCURVE",
"371 587 CURVE SMOOTH",
"157 587 LINE SMOOTH",
"126 587 OFFCURVE",
"78 587 OFFCURVE",
"47 589 CURVE",
"45 548 LINE",
"69 546 OFFCURVE",
"100 539 OFFCURVE",
"107 534 CURVE",
"110 528 OFFCURVE",
"113 496 OFFCURVE",
"113 387 CURVE SMOOTH",
"113 199 LINE SMOOTH",
"113 91 OFFCURVE",
"110 59 OFFCURVE",
"107 52 CURVE",
"100 48 OFFCURVE",
"69 40 OFFCURVE",
"45 38 CURVE",
"47 -3 LINE",
"78 -1 OFFCURVE",
"126 0 OFFCURVE",
"157 0 CURVE SMOOTH",
"393 0 LINE SMOOTH",
"426 0 OFFCURVE",
"457 -2 OFFCURVE",
"487 -5 CURVE"
);
},
{
closed = 1;
nodes = (
"419 205 LINE",
"418 237 OFFCURVE",
"417 273 OFFCURVE",
"417 302 CURVE SMOOTH",
"417 332 OFFCURVE",
"418 366 OFFCURVE",
"419 399 CURVE",
"376 399 LINE",
"373 378 OFFCURVE",
"369 346 OFFCURVE",
"364 330 CURVE",
"356 328 OFFCURVE",
"339 327 OFFCURVE",
"318 327 CURVE SMOOTH",
"242 327 LINE SMOOTH",
"224 327 OFFCURVE",
"204 328 OFFCURVE",
"182 329 CURVE",
"182 275 LINE",
"204 276 OFFCURVE",
"224 277 OFFCURVE",
"242 277 CURVE SMOOTH",
"318 277 LINE SMOOTH",
"339 277 OFFCURVE",
"356 276 OFFCURVE",
"364 274 CURVE",
"369 258 OFFCURVE",
"373 225 OFFCURVE",
"376 205 CURVE"
);
}
);
};
color = -1;
layerId = "30A8E426-80C1-4FA7-AECB-85F4920FB6F7";
paths = (
{
closed = 1;
nodes = (
"527 141 LINE",
"482 150 LINE",
"460 105 OFFCURVE",
"442 73 OFFCURVE",
"430 55 CURVE",
"419 52 OFFCURVE",
"404 51 OFFCURVE",
"359 51 CURVE SMOOTH",
"263 51 LINE SMOOTH",
"234 51 OFFCURVE",
"216 53 OFFCURVE",
"199 55 CURVE",
"198 65 OFFCURVE",
"197 108 OFFCURVE",
"197 153 CURVE SMOOTH",
"197 423 LINE SMOOTH",
"197 468 OFFCURVE",
"198 526 OFFCURVE",
"199 535 CURVE",
"215 537 OFFCURVE",
"233 539 OFFCURVE",
"260 539 CURVE SMOOTH",
"374 539 LINE SMOOTH",
"387 539 OFFCURVE",
"401 538 OFFCURVE",
"412 536 CURVE",
"424 512 OFFCURVE",
"435 486 OFFCURVE",
"446 452 CURVE",
"491 459 LINE",
"471 591 LINE",
"439 589 OFFCURVE",
"403 587 OFFCURVE",
"371 587 CURVE SMOOTH",
"157 587 LINE SMOOTH",
"126 587 OFFCURVE",
"78 587 OFFCURVE",
"47 589 CURVE",
"45 548 LINE",
"69 546 OFFCURVE",
"100 539 OFFCURVE",
"107 534 CURVE",
"110 528 OFFCURVE",
"113 496 OFFCURVE",
"113 387 CURVE SMOOTH",
"113 199 LINE SMOOTH",
"113 91 OFFCURVE",
"110 59 OFFCURVE",
"107 52 CURVE",
"100 48 OFFCURVE",
"69 40 OFFCURVE",
"45 38 CURVE",
"47 -3 LINE",
"78 -1 OFFCURVE",
"126 0 OFFCURVE",
"157 0 CURVE SMOOTH",
"393 0 LINE SMOOTH",
"426 0 OFFCURVE",
"457 -2 OFFCURVE",
"487 -5 CURVE"
);
},
{
closed = 1;
nodes = (
"419 205 LINE",
"418 237 OFFCURVE",
"417 273 OFFCURVE",
"417 302 CURVE SMOOTH",
"417 332 OFFCURVE",
"418 366 OFFCURVE",
"419 399 CURVE",
"376 399 LINE",
"373 378 OFFCURVE",
"369 346 OFFCURVE",
"364 330 CURVE",
"356 328 OFFCURVE",
"339 327 OFFCURVE",
"318 327 CURVE SMOOTH",
"242 327 LINE SMOOTH",
"224 327 OFFCURVE",
"204 328 OFFCURVE",
"182 329 CURVE",
"182 275 LINE",
"204 276 OFFCURVE",
"224 277 OFFCURVE",
"242 277 CURVE SMOOTH",
"318 277 LINE SMOOTH",
"339 277 OFFCURVE",
"356 276 OFFCURVE",
"364 274 CURVE",
"369 258 OFFCURVE",
"373 225 OFFCURVE",
"376 205 CURVE"
);
}
);
width = 558;
},
{
anchors = (
{
name = bottom;
position = "{293, 0}";
},
{
name = ogonek;
position = "{523, 0}";
},
{
name = top;
position = "{293, 587}";
},
{
name = topleft;
position = "{28, 587}";
}
);
background = {
anchors = (
{
name = bottom;
position = "{293, 0}";
},
{
name = ogonek;
position = "{523, 0}";
},
{
name = top;
position = "{293, 587}";
},
{
name = topleft;
position = "{28, 587}";
}
);
paths = (
{
closed = 1;
nodes = (
"566 157 LINE",
"509 168 LINE",
"490 130 OFFCURVE",
"473 94 OFFCURVE",
"454 64 CURVE",
"435 60 OFFCURVE",
"425 60 OFFCURVE",
"383 60 CURVE SMOOTH",
"331 60 LINE SMOOTH",
"290 60 OFFCURVE",
"267 62 OFFCURVE",
"243 65 CURVE",
"241 82 OFFCURVE",
"240 126 OFFCURVE",
"240 194 CURVE SMOOTH",
"240 402 LINE SMOOTH",
"240 469 OFFCURVE",
"241 513 OFFCURVE",
"243 528 CURVE",
"260 531 OFFCURVE",
"288 532 OFFCURVE",
"308 532 CURVE SMOOTH",
"382 532 LINE SMOOTH",
"398 532 OFFCURVE",
"410 531 OFFCURVE",
"428 528 CURVE",
"442 500 OFFCURVE",
"450 474 OFFCURVE",
"466 435 CURVE",
"524 443 LINE",
"497 592 LINE",
"462 591 OFFCURVE",
"385 587 OFFCURVE",
"343 587 CURVE SMOOTH",
"172 587 LINE SMOOTH",
"129 587 OFFCURVE",
"66 589 OFFCURVE",
"36 591 CURVE",
"33 536 LINE",
"58 535 OFFCURVE",
"86 529 OFFCURVE",
"97 520 CURVE",
"101 513 OFFCURVE",
"104 451 OFFCURVE",
"104 366 CURVE SMOOTH",
"104 221 LINE SMOOTH",
"104 137 OFFCURVE",
"101 75 OFFCURVE",
"97 67 CURVE",
"86 59 OFFCURVE",
"58 54 OFFCURVE",
"33 50 CURVE",
"36 -5 LINE",
"66 -2 OFFCURVE",
"129 0 OFFCURVE",
"172 0 CURVE SMOOTH",
"381 0 LINE SMOOTH",
"423 0 OFFCURVE",
"486 -4 OFFCURVE",
"521 -6 CURVE"
);
},
{
closed = 1;
nodes = (
"450 199 LINE",
"449 232 OFFCURVE",
"447 269 OFFCURVE",
"447 301 CURVE SMOOTH",
"447 334 OFFCURVE",
"449 367 OFFCURVE",
"450 401 CURVE",
"393 401 LINE",
"391 380 OFFCURVE",
"386 343 OFFCURVE",
"383 335 CURVE",
"374 335 OFFCURVE",
"352 333 OFFCURVE",
"326 333 CURVE SMOOTH",
"274 333 LINE SMOOTH",
"250 333 OFFCURVE",
"229 335 OFFCURVE",
"218 336 CURVE",
"218 266 LINE",
"229 267 OFFCURVE",
"250 269 OFFCURVE",
"274 269 CURVE SMOOTH",
"326 269 LINE SMOOTH",
"352 269 OFFCURVE",
"374 267 OFFCURVE",
"383 267 CURVE",
"386 259 OFFCURVE",
"391 219 OFFCURVE",
"393 199 CURVE"
);
}
);
};
color = -1;
layerId = "C0B3E82F-C341-4413-A405-AFA97EAADFAC";
paths = (
{
closed = 1;
nodes = (
"566 157 LINE",
"509 168 LINE",
"490 130 OFFCURVE",
"473 98 OFFCURVE",
"454 68 CURVE",
"435 64 OFFCURVE",
"425 64 OFFCURVE",
"383 64 CURVE SMOOTH",
"331 64 LINE SMOOTH",
"290 64 OFFCURVE",
"267 66 OFFCURVE",
"243 69 CURVE",
"241 86 OFFCURVE",
"240 126 OFFCURVE",
"240 194 CURVE SMOOTH",
"240 402 LINE SMOOTH",
"240 469 OFFCURVE",
"241 509 OFFCURVE",
"243 524 CURVE",
"260 527 OFFCURVE",
"288 528 OFFCURVE",
"308 528 CURVE SMOOTH",
"382 528 LINE SMOOTH",
"398 528 OFFCURVE",
"410 527 OFFCURVE",
"428 524 CURVE",
"442 496 OFFCURVE",
"451 474 OFFCURVE",
"466 435 CURVE",
"524 443 LINE",
"497 592 LINE",
"462 591 OFFCURVE",
"385 587 OFFCURVE",
"343 587 CURVE SMOOTH",
"172 587 LINE SMOOTH",
"129 587 OFFCURVE",
"66 589 OFFCURVE",
"36 591 CURVE",
"33 536 LINE",
"58 535 OFFCURVE",
"86 529 OFFCURVE",
"97 520 CURVE",
"101 513 OFFCURVE",
"104 451 OFFCURVE",
"104 366 CURVE SMOOTH",
"104 221 LINE SMOOTH",
"104 137 OFFCURVE",
"101 75 OFFCURVE",
"97 67 CURVE",
"86 59 OFFCURVE",
"58 54 OFFCURVE",
"33 50 CURVE",
"36 -5 LINE",
"66 -2 OFFCURVE",
"129 0 OFFCURVE",
"172 0 CURVE SMOOTH",
"381 0 LINE SMOOTH",
"423 0 OFFCURVE",
"486 -4 OFFCURVE",
"521 -6 CURVE"
);
},
{
closed = 1;
nodes = (
"450 199 LINE",
"449 232 OFFCURVE",
"447 269 OFFCURVE",
"447 301 CURVE SMOOTH",
"447 334 OFFCURVE",
"449 368 OFFCURVE",
"450 402 CURVE",
"393 402 LINE",
"391 381 OFFCURVE",
"386 344 OFFCURVE",
"383 336 CURVE",
"374 336 OFFCURVE",
"352 334 OFFCURVE",
"326 334 CURVE SMOOTH",
"274 334 LINE SMOOTH",
"250 334 OFFCURVE",
"229 336 OFFCURVE",
"218 337 CURVE",
"218 266 LINE",
"229 267 OFFCURVE",
"250 269 OFFCURVE",
"274 269 CURVE SMOOTH",
"326 269 LINE SMOOTH",
"352 269 OFFCURVE",
"374 267 OFFCURVE",
"383 267 CURVE",
"386 259 OFFCURVE",
"391 219 OFFCURVE",
"393 199 CURVE"
);
}
);
width = 582;
}
);
leftKerningGroup = B;
note = E;
rightKerningGroup = E;
unicode = 0045;
},
{
glyphname = Eogonek;
lastChange = "2018-05-31 14:32:51 +0000";
layers = (
{
anchors = (
{
name = bottom;
position = "{281, 0}";
},
{
name = top;
position = "{281, 587}";
},
{
name = topleft;
position = "{26, 587}";
}
);
background = {
anchors = (
{
name = bottom;
position = "{1081, 0}";
},
{
name = top;
position = "{1081, 587}";
},
{
name = topleft;
position = "{826, 587}";
}
);
paths = (
{
closed = 1;
nodes = (
"1219 205 LINE",
"1218 237 OFFCURVE",
"1217 273 OFFCURVE",
"1217 302 CURVE SMOOTH",
"1217 332 OFFCURVE",
"1218 366 OFFCURVE",
"1219 399 CURVE",
"1176 399 LINE",
"1173 378 OFFCURVE",
"1169 346 OFFCURVE",
"1164 330 CURVE",
"1156 328 OFFCURVE",
"1139 327 OFFCURVE",
"1118 327 CURVE SMOOTH",
"1042 327 LINE SMOOTH",
"1024 327 OFFCURVE",
"1004 328 OFFCURVE",
"982 329 CURVE",
"982 275 LINE",
"1004 276 OFFCURVE",
"1024 277 OFFCURVE",
"1042 277 CURVE SMOOTH",
"1118 277 LINE SMOOTH",
"1139 277 OFFCURVE",
"1156 276 OFFCURVE",
"1164 274 CURVE",
"1169 258 OFFCURVE",
"1173 225 OFFCURVE",
"1176 205 CURVE"
);
},
{
closed = 1;
nodes = (
"1300 -167 OFFCURVE",
"1278 -181 OFFCURVE",
"1252 -181 CURVE SMOOTH",
"1217 -181 OFFCURVE",
"1194 -158 OFFCURVE",
"1194 -122 CURVE SMOOTH",
"1194 -79 OFFCURVE",
"1226 -38 OFFCURVE",
"1289 0 CURVE",
"1327 141 LINE",
"1282 150 LINE",
"1260 105 OFFCURVE",
"1242 70 OFFCURVE",
"1230 52 CURVE",
"1219 49 OFFCURVE",
"1204 48 OFFCURVE",
"1159 48 CURVE SMOOTH",
"1065 48 LINE SMOOTH",
"1036 48 OFFCURVE",
"1018 50 OFFCURVE",
"1001 52 CURVE",
"1000 62 OFFCURVE",
"999 108 OFFCURVE",
"999 153 CURVE SMOOTH",
"999 423 LINE SMOOTH",
"999 468 OFFCURVE",
"1000 529 OFFCURVE",
"1001 538 CURVE",
"1017 540 OFFCURVE",
"1035 542 OFFCURVE",
"1062 542 CURVE SMOOTH",
"1174 542 LINE SMOOTH",
"1187 542 OFFCURVE",
"1201 541 OFFCURVE",
"1212 539 CURVE",
"1224 515 OFFCURVE",
"1235 486 OFFCURVE",
"1246 452 CURVE",
"1291 459 LINE",
"1271 591 LINE",
"1239 589 OFFCURVE",
"1203 587 OFFCURVE",
"1171 587 CURVE SMOOTH",
"957 587 LINE SMOOTH",
"926 587 OFFCURVE",
"878 587 OFFCURVE",
"847 589 CURVE",
"845 548 LINE",
"869 546 OFFCURVE",
"900 539 OFFCURVE",
"907 534 CURVE",
"910 528 OFFCURVE",
"913 496 OFFCURVE",
"913 387 CURVE SMOOTH",
"913 199 LINE SMOOTH",
"913 91 OFFCURVE",
"910 59 OFFCURVE",
"907 52 CURVE",
"900 48 OFFCURVE",
"869 40 OFFCURVE",
"845 38 CURVE",
"847 -3 LINE",
"878 -1 OFFCURVE",
"926 0 OFFCURVE",
"957 0 CURVE SMOOTH",
"1237 0 LINE",
"1167 -35 OFFCURVE",
"1124 -81 OFFCURVE",
"1124 -132 CURVE SMOOTH",
"1124 -183 OFFCURVE",
"1168 -223 OFFCURVE",
"1238 -223 CURVE SMOOTH",
"1280 -223 OFFCURVE",
"1317 -203 OFFCURVE",
"1343 -173 CURVE",
"1321 -146 LINE"
);
},
{
closed = 1;
nodes = (
"527 141 LINE",
"482 150 LINE",
"460 105 OFFCURVE",
"442 70 OFFCURVE",
"430 52 CURVE",
"419 49 OFFCURVE",
"404 48 OFFCURVE",
"359 48 CURVE SMOOTH",
"263 48 LINE SMOOTH",
"234 48 OFFCURVE",
"216 50 OFFCURVE",
"199 52 CURVE",
"198 62 OFFCURVE",
"197 108 OFFCURVE",
"197 153 CURVE SMOOTH",
"197 423 LINE SMOOTH",
"197 468 OFFCURVE",
"198 529 OFFCURVE",
"199 538 CURVE",
"215 540 OFFCURVE",
"233 542 OFFCURVE",
"260 542 CURVE SMOOTH",
"374 542 LINE SMOOTH",
"387 542 OFFCURVE",
"401 541 OFFCURVE",
"412 539 CURVE",
"424 515 OFFCURVE",
"435 486 OFFCURVE",
"446 452 CURVE",
"491 459 LINE",
"471 591 LINE",
"439 589 OFFCURVE",
"403 587 OFFCURVE",
"371 587 CURVE SMOOTH",
"157 587 LINE SMOOTH",
"126 587 OFFCURVE",
"78 587 OFFCURVE",
"47 589 CURVE",
"45 548 LINE",
"69 546 OFFCURVE",
"100 539 OFFCURVE",
"107 534 CURVE",
"110 528 OFFCURVE",
"113 496 OFFCURVE",
"113 387 CURVE SMOOTH",
"113 199 LINE SMOOTH",
"113 91 OFFCURVE",
"110 59 OFFCURVE",
"107 52 CURVE",
"100 48 OFFCURVE",
"69 40 OFFCURVE",
"45 38 CURVE",
"47 -3 LINE",
"78 -1 OFFCURVE",
"126 0 OFFCURVE",
"157 0 CURVE SMOOTH",
"393 0 LINE SMOOTH",
"426 0 OFFCURVE",
"457 -2 OFFCURVE",
"487 -5 CURVE"
);
},
{
closed = 1;
nodes = (
"419 205 LINE",
"418 237 OFFCURVE",
"417 273 OFFCURVE",
"417 302 CURVE SMOOTH",
"417 332 OFFCURVE",
"418 366 OFFCURVE",
"419 399 CURVE",
"376 399 LINE",
"373 378 OFFCURVE",
"369 346 OFFCURVE",
"364 330 CURVE",
"356 328 OFFCURVE",
"339 327 OFFCURVE",
"318 327 CURVE SMOOTH",
"242 327 LINE SMOOTH",
"224 327 OFFCURVE",
"204 328 OFFCURVE",
"182 329 CURVE",
"182 275 LINE",
"204 276 OFFCURVE",
"224 277 OFFCURVE",
"242 277 CURVE SMOOTH",
"318 277 LINE SMOOTH",
"339 277 OFFCURVE",
"356 276 OFFCURVE",
"364 274 CURVE",
"369 258 OFFCURVE",
"373 225 OFFCURVE",
"376 205 CURVE"
);
}
);
};
color = -1;
layerId = "30A8E426-80C1-4FA7-AECB-85F4920FB6F7";
paths = (
{
closed = 1;
nodes = (
"419 205 LINE",
"418 237 OFFCURVE",
"417 273 OFFCURVE",
"417 302 CURVE SMOOTH",
"417 332 OFFCURVE",
"418 366 OFFCURVE",
"419 399 CURVE",
"376 399 LINE",
"373 378 OFFCURVE",
"369 346 OFFCURVE",
"364 330 CURVE",
"356 328 OFFCURVE",
"339 327 OFFCURVE",
"318 327 CURVE SMOOTH",
"242 327 LINE SMOOTH",
"224 327 OFFCURVE",
"204 328 OFFCURVE",
"182 329 CURVE",
"182 275 LINE",
"204 276 OFFCURVE",
"224 277 OFFCURVE",
"242 277 CURVE SMOOTH",
"318 277 LINE SMOOTH",
"339 277 OFFCURVE",
"356 276 OFFCURVE",
"364 274 CURVE",
"369 258 OFFCURVE",
"373 225 OFFCURVE",
"376 205 CURVE"
);
},
{
closed = 1;
nodes = (
"500 -167 OFFCURVE",
"478 -181 OFFCURVE",
"452 -181 CURVE SMOOTH",
"417 -181 OFFCURVE",
"394 -158 OFFCURVE",
"394 -122 CURVE SMOOTH",
"394 -79 OFFCURVE",
"426 -38 OFFCURVE",
"489 0 CURVE",
"527 141 LINE",
"482 150 LINE",
"460 105 OFFCURVE",
"442 73 OFFCURVE",
"430 55 CURVE",
"419 52 OFFCURVE",
"404 51 OFFCURVE",
"359 51 CURVE SMOOTH",
"263 51 LINE SMOOTH",
"234 51 OFFCURVE",
"216 53 OFFCURVE",
"199 55 CURVE",
"198 65 OFFCURVE",
"197 108 OFFCURVE",
"197 153 CURVE SMOOTH",
"197 423 LINE SMOOTH",
"197 468 OFFCURVE",
"198 526 OFFCURVE",
"199 535 CURVE",
"215 537 OFFCURVE",
"233 539 OFFCURVE",
"260 539 CURVE SMOOTH",
"374 539 LINE SMOOTH",
"387 539 OFFCURVE",
"401 538 OFFCURVE",
"412 536 CURVE",
"424 512 OFFCURVE",
"435 486 OFFCURVE",
"446 452 CURVE",
"491 459 LINE",
"471 591 LINE",
"439 589 OFFCURVE",
"403 587 OFFCURVE",
"371 587 CURVE SMOOTH",
"157 587 LINE SMOOTH",
"126 587 OFFCURVE",
"78 587 OFFCURVE",
"47 589 CURVE",
"45 548 LINE",
"69 546 OFFCURVE",
"100 539 OFFCURVE",
"107 534 CURVE",
"110 528 OFFCURVE",
"113 496 OFFCURVE",
"113 387 CURVE SMOOTH",
"113 199 LINE SMOOTH",
"113 91 OFFCURVE",
"110 59 OFFCURVE",
"107 52 CURVE",
"100 48 OFFCURVE",
"69 40 OFFCURVE",
"45 38 CURVE",
"47 -3 LINE",
"78 -1 OFFCURVE",
"126 0 OFFCURVE",
"157 0 CURVE SMOOTH",
"437 0 LINE",
"367 -35 OFFCURVE",
"324 -81 OFFCURVE",
"324 -132 CURVE SMOOTH",
"324 -183 OFFCURVE",
"368 -223 OFFCURVE",
"438 -223 CURVE SMOOTH",
"480 -223 OFFCURVE",
"517 -203 OFFCURVE",
"543 -173 CURVE",
"521 -146 LINE"
);
}
);
width = 558;
},
{
anchors = (
{
name = bottom;
position = "{293, 0}";
},
{
name = top;
position = "{293, 587}";
},
{
name = topleft;
position = "{28, 587}";
}
);
background = {
paths = (
{
closed = 1;
nodes = (
"450 199 LINE",
"449 232 OFFCURVE",
"447 269 OFFCURVE",
"447 301 CURVE SMOOTH",
"447 334 OFFCURVE",
"449 367 OFFCURVE",
"450 401 CURVE",
"393 401 LINE",
"391 380 OFFCURVE",
"386 343 OFFCURVE",
"383 335 CURVE",
"374 335 OFFCURVE",
"352 333 OFFCURVE",
"326 333 CURVE SMOOTH",
"274 333 LINE SMOOTH",
"250 333 OFFCURVE",
"229 335 OFFCURVE",
"218 336 CURVE",
"218 266 LINE",
"229 267 OFFCURVE",
"250 269 OFFCURVE",
"274 269 CURVE SMOOTH",
"326 269 LINE SMOOTH",
"352 269 OFFCURVE",
"374 267 OFFCURVE",
"383 267 CURVE",
"386 259 OFFCURVE",
"391 219 OFFCURVE",
"393 199 CURVE"
);
},
{
closed = 1;
nodes = (
"532 -157 OFFCURVE",
"510 -168 OFFCURVE",
"488 -168 CURVE SMOOTH",
"458 -168 OFFCURVE",
"436 -148 OFFCURVE",
"436 -113 CURVE SMOOTH",
"436 -75 OFFCURVE",
"465 -37 OFFCURVE",
"523 0 CURVE",
"566 157 LINE",
"509 168 LINE",
"490 130 OFFCURVE",
"473 95 OFFCURVE",
"454 65 CURVE",
"435 61 OFFCURVE",
"425 61 OFFCURVE",
"383 61 CURVE SMOOTH",
"331 61 LINE SMOOTH",
"290 61 OFFCURVE",
"267 63 OFFCURVE",
"243 66 CURVE",
"241 83 OFFCURVE",
"240 126 OFFCURVE",
"240 194 CURVE SMOOTH",
"240 402 LINE SMOOTH",
"240 469 OFFCURVE",
"241 512 OFFCURVE",
"243 527 CURVE",
"260 530 OFFCURVE",
"288 531 OFFCURVE",
"308 531 CURVE SMOOTH",
"382 531 LINE SMOOTH",
"398 531 OFFCURVE",
"410 530 OFFCURVE",
"428 527 CURVE",
"442 499 OFFCURVE",
"450 474 OFFCURVE",
"466 435 CURVE",
"524 443 LINE",
"497 592 LINE",
"462 591 OFFCURVE",
"385 587 OFFCURVE",
"343 587 CURVE SMOOTH",
"172 587 LINE SMOOTH",
"129 587 OFFCURVE",
"66 589 OFFCURVE",
"36 591 CURVE",
"33 536 LINE",
"58 535 OFFCURVE",
"86 529 OFFCURVE",
"97 520 CURVE",
"101 513 OFFCURVE",
"104 451 OFFCURVE",
"104 366 CURVE SMOOTH",
"104 221 LINE SMOOTH",
"104 137 OFFCURVE",
"101 75 OFFCURVE",
"97 67 CURVE",
"86 59 OFFCURVE",
"58 54 OFFCURVE",
"33 50 CURVE",
"36 -5 LINE",
"66 -2 OFFCURVE",
"129 0 OFFCURVE",
"172 0 CURVE SMOOTH",
"448 0 LINE",
"377 -34 OFFCURVE",
"339 -77 OFFCURVE",
"339 -122 CURVE SMOOTH",
"339 -181 OFFCURVE",
"397 -223 OFFCURVE",
"469 -223 CURVE SMOOTH",
"516 -223 OFFCURVE",
"555 -205 OFFCURVE",
"584 -173 CURVE",
"556 -134 LINE"
);
}
);
};
color = -1;
layerId = "C0B3E82F-C341-4413-A405-AFA97EAADFAC";
paths = (
{
closed = 1;
nodes = (
"450 199 LINE",
"449 232 OFFCURVE",
"447 269 OFFCURVE",
"447 301 CURVE SMOOTH",
"447 335 OFFCURVE",
"449 368 OFFCURVE",
"450 402 CURVE",
"393 402 LINE",
"391 381 OFFCURVE",
"386 344 OFFCURVE",
"383 336 CURVE",
"374 336 OFFCURVE",
"352 334 OFFCURVE",
"326 334 CURVE SMOOTH",
"274 334 LINE SMOOTH",
"250 334 OFFCURVE",
"229 336 OFFCURVE",
"218 337 CURVE",
"218 266 LINE",
"229 267 OFFCURVE",
"250 269 OFFCURVE",
"274 269 CURVE SMOOTH",
"326 269 LINE SMOOTH",
"352 269 OFFCURVE",
"374 267 OFFCURVE",
"383 267 CURVE",
"386 259 OFFCURVE",
"391 219 OFFCURVE",
"393 199 CURVE"
);
},
{
closed = 1;
nodes = (
"532 -157 OFFCURVE",
"510 -168 OFFCURVE",
"488 -168 CURVE SMOOTH",
"458 -168 OFFCURVE",
"436 -148 OFFCURVE",
"436 -113 CURVE SMOOTH",
"436 -75 OFFCURVE",
"465 -37 OFFCURVE",
"523 0 CURVE",
"566 157 LINE",
"509 168 LINE",
"490 130 OFFCURVE",
"473 98 OFFCURVE",
"454 68 CURVE",
"435 64 OFFCURVE",
"425 64 OFFCURVE",
"383 64 CURVE SMOOTH",
"331 64 LINE SMOOTH",
"290 64 OFFCURVE",
"267 66 OFFCURVE",
"243 69 CURVE",
"241 86 OFFCURVE",
"240 126 OFFCURVE",
"240 194 CURVE SMOOTH",
"240 402 LINE SMOOTH",
"240 469 OFFCURVE",
"241 509 OFFCURVE",
"243 524 CURVE",
"260 527 OFFCURVE",
"288 528 OFFCURVE",
"308 528 CURVE SMOOTH",
"382 528 LINE SMOOTH",
"398 528 OFFCURVE",
"410 527 OFFCURVE",
"428 524 CURVE",
"442 496 OFFCURVE",
"451 474 OFFCURVE",
"466 435 CURVE",
"524 443 LINE",
"497 592 LINE",
"462 591 OFFCURVE",
"385 587 OFFCURVE",
"343 587 CURVE SMOOTH",
"172 587 LINE SMOOTH",
"129 587 OFFCURVE",
"66 589 OFFCURVE",
"36 591 CURVE",
"33 536 LINE",
"58 535 OFFCURVE",
"86 529 OFFCURVE",
"97 520 CURVE",
"101 513 OFFCURVE",
"104 451 OFFCURVE",
"104 366 CURVE SMOOTH",
"104 221 LINE SMOOTH",
"104 137 OFFCURVE",
"101 75 OFFCURVE",
"97 67 CURVE",
"86 59 OFFCURVE",
"58 54 OFFCURVE",
"33 50 CURVE",
"36 -5 LINE",
"66 -2 OFFCURVE",
"129 0 OFFCURVE",
"172 0 CURVE SMOOTH",
"448 0 LINE",
"377 -34 OFFCURVE",
"339 -77 OFFCURVE",
"339 -122 CURVE SMOOTH",
"339 -181 OFFCURVE",
"397 -223 OFFCURVE",
"469 -223 CURVE SMOOTH",
"516 -223 OFFCURVE",
"555 -205 OFFCURVE",
"584 -173 CURVE",
"556 -134 LINE"
);
}
);
width = 582;
}
);
leftMetricsKey = E;
widthMetricsKey = E;
note = Eogonek;
unicode = 0118;
},
{
glyphname = F;
lastChange = "2018-05-31 14:32:51 +0000";
layers = (
{
anchors = (
{
name = bottom;
position = "{157, 0}";
},
{
name = top;
position = "{261, 587}";
}
);
background = {
anchors = (
{
name = bottom;
position = "{857, 0}";
},
{
name = top;
position = "{961, 587}";
}
);
paths = (
{
closed = 1;
nodes = (
"781 -1 OFFCURVE",
"835 1 OFFCURVE",
"867 1 CURVE SMOOTH",
"898 1 OFFCURVE",
"953 -1 OFFCURVE",
"984 -3 CURVE",
"986 40 LINE",
"961 43 OFFCURVE",
"917 50 OFFCURVE",
"906 52 CURVE",
"902 59 OFFCURVE",
"899 91 OFFCURVE",
"899 188 CURVE SMOOTH",
"899 423 LINE SMOOTH",
"899 468 OFFCURVE",
"900 528 OFFCURVE",
"901 538 CURVE",
"915 540 OFFCURVE",
"942 542 OFFCURVE",
"962 542 CURVE SMOOTH",
"1067 542 LINE SMOOTH",
"1079 542 OFFCURVE",
"1093 541 OFFCURVE",
"1104 539 CURVE",
"1117 515 OFFCURVE",
"1128 486 OFFCURVE",
"1139 452 CURVE",
"1183 459 LINE",
"1163 591 LINE",
"1131 589 OFFCURVE",
"1095 587 OFFCURVE",
"1064 587 CURVE SMOOTH",
"858 587 LINE SMOOTH",
"827 587 OFFCURVE",
"779 588 OFFCURVE",
"748 589 CURVE",
"746 548 LINE",
"770 547 OFFCURVE",
"801 539 OFFCURVE",
"807 534 CURVE",
"811 528 OFFCURVE",
"814 496 OFFCURVE",
"814 387 CURVE SMOOTH",
"814 199 LINE SMOOTH",
"814 91 OFFCURVE",
"811 59 OFFCURVE",
"807 52 CURVE",
"801 48 OFFCURVE",
"771 40 OFFCURVE",
"751 38 CURVE",
"753 -3 LINE"
);
},
{
closed = 1;
nodes = (
"1112 196 LINE",
"1111 230 OFFCURVE",
"1110 267 OFFCURVE",
"1110 297 CURVE SMOOTH",
"1110 326 OFFCURVE",
"1111 361 OFFCURVE",
"1112 393 CURVE",
"1069 393 LINE",
"1066 372 OFFCURVE",
"1062 341 OFFCURVE",
"1057 325 CURVE",
"1049 323 OFFCURVE",
"1032 321 OFFCURVE",
"1011 321 CURVE SMOOTH",
"928 321 LINE SMOOTH",
"910 321 OFFCURVE",
"892 323 OFFCURVE",
"876 324 CURVE",
"876 270 LINE",
"892 271 OFFCURVE",
"910 272 OFFCURVE",
"928 272 CURVE SMOOTH",
"1011 272 LINE SMOOTH",
"1032 272 OFFCURVE",
"1049 271 OFFCURVE",
"1057 268 CURVE",
"1062 252 OFFCURVE",
"1066 218 OFFCURVE",
"1069 196 CURVE"
);
},
{
closed = 1;
nodes = (
"528 141 LINE",
"483 150 LINE",
"461 105 OFFCURVE",
"443 73 OFFCURVE",
"431 55 CURVE",
"420 52 OFFCURVE",
"405 51 OFFCURVE",
"360 51 CURVE SMOOTH",
"264 51 LINE SMOOTH",
"235 51 OFFCURVE",
"217 53 OFFCURVE",
"200 55 CURVE",
"199 65 OFFCURVE",
"198 108 OFFCURVE",
"198 153 CURVE SMOOTH",
"198 423 LINE SMOOTH",
"198 468 OFFCURVE",
"199 526 OFFCURVE",
"200 535 CURVE",
"216 537 OFFCURVE",
"234 539 OFFCURVE",
"261 539 CURVE SMOOTH",
"375 539 LINE SMOOTH",
"388 539 OFFCURVE",
"402 538 OFFCURVE",
"413 536 CURVE",
"425 512 OFFCURVE",
"436 486 OFFCURVE",
"447 452 CURVE",
"492 459 LINE",
"472 591 LINE",
"440 589 OFFCURVE",
"404 587 OFFCURVE",
"372 587 CURVE SMOOTH",
"158 587 LINE SMOOTH",
"127 587 OFFCURVE",
"79 587 OFFCURVE",
"48 589 CURVE",
"46 548 LINE",
"70 546 OFFCURVE",
"101 539 OFFCURVE",
"108 534 CURVE",
"111 528 OFFCURVE",
"114 496 OFFCURVE",
"114 387 CURVE SMOOTH",
"114 199 LINE SMOOTH",
"114 91 OFFCURVE",
"111 59 OFFCURVE",
"108 52 CURVE",
"101 48 OFFCURVE",
"70 40 OFFCURVE",
"46 38 CURVE",
"48 -3 LINE",
"79 -1 OFFCURVE",
"127 0 OFFCURVE",
"158 0 CURVE SMOOTH",
"394 0 LINE SMOOTH",
"427 0 OFFCURVE",
"458 -2 OFFCURVE",
"488 -5 CURVE"
);
},
{
closed = 1;
nodes = (
"420 205 LINE",
"419 237 OFFCURVE",
"418 273 OFFCURVE",
"418 302 CURVE SMOOTH",
"418 332 OFFCURVE",
"419 366 OFFCURVE",
"420 399 CURVE",
"377 399 LINE",
"374 378 OFFCURVE",
"370 346 OFFCURVE",
"365 330 CURVE",
"357 328 OFFCURVE",
"340 327 OFFCURVE",
"319 327 CURVE SMOOTH",
"243 327 LINE SMOOTH",
"225 327 OFFCURVE",
"205 328 OFFCURVE",
"183 329 CURVE",
"183 275 LINE",
"205 276 OFFCURVE",
"225 277 OFFCURVE",
"243 277 CURVE SMOOTH",
"319 277 LINE SMOOTH",
"340 277 OFFCURVE",
"357 276 OFFCURVE",
"365 274 CURVE",
"370 258 OFFCURVE",
"374 225 OFFCURVE",
"377 205 CURVE"
);
}
);
};
color = -1;
layerId = "30A8E426-80C1-4FA7-AECB-85F4920FB6F7";
paths = (
{
closed = 1;
nodes = (
"81 -1 OFFCURVE",
"135 1 OFFCURVE",
"167 1 CURVE SMOOTH",
"198 1 OFFCURVE",
"253 -1 OFFCURVE",
"284 -3 CURVE",
"286 40 LINE",
"261 43 OFFCURVE",
"216 50 OFFCURVE",
"205 52 CURVE",
"201 59 OFFCURVE",
"198 91 OFFCURVE",
"198 188 CURVE SMOOTH",
"198 423 LINE SMOOTH",
"198 468 OFFCURVE",
"199 525 OFFCURVE",
"200 535 CURVE",
"214 537 OFFCURVE",
"241 539 OFFCURVE",
"261 539 CURVE SMOOTH",
"371 539 LINE SMOOTH",
"383 539 OFFCURVE",
"397 538 OFFCURVE",
"408 536 CURVE",
"421 512 OFFCURVE",
"432 486 OFFCURVE",
"443 452 CURVE",
"488 459 LINE",
"468 591 LINE",
"436 589 OFFCURVE",
"399 587 OFFCURVE",
"368 587 CURVE SMOOTH",
"158 587 LINE SMOOTH",
"127 587 OFFCURVE",
"79 588 OFFCURVE",
"48 589 CURVE",
"46 548 LINE",
"70 547 OFFCURVE",
"101 539 OFFCURVE",
"107 534 CURVE",
"111 528 OFFCURVE",
"114 496 OFFCURVE",
"114 387 CURVE SMOOTH",
"114 199 LINE SMOOTH",
"114 91 OFFCURVE",
"111 59 OFFCURVE",
"107 52 CURVE",
"101 48 OFFCURVE",
"71 40 OFFCURVE",
"51 38 CURVE",
"53 -3 LINE"
);
},
{
closed = 1;
nodes = (
"416 198 LINE",
"415 232 OFFCURVE",
"414 269 OFFCURVE",
"414 299 CURVE SMOOTH",
"414 328 OFFCURVE",
"415 363 OFFCURVE",
"416 395 CURVE",
"373 395 LINE",
"370 374 OFFCURVE",
"365 343 OFFCURVE",
"360 327 CURVE",
"352 325 OFFCURVE",
"336 323 OFFCURVE",
"311 323 CURVE SMOOTH",
"228 323 LINE SMOOTH",
"210 323 OFFCURVE",
"192 325 OFFCURVE",
"176 326 CURVE",
"176 272 LINE",
"192 273 OFFCURVE",
"210 274 OFFCURVE",
"228 274 CURVE SMOOTH",
"311 274 LINE SMOOTH",
"336 274 OFFCURVE",
"352 273 OFFCURVE",
"360 270 CURVE",
"365 254 OFFCURVE",
"370 220 OFFCURVE",
"373 198 CURVE"
);
}
);
width = 506;
},
{
anchors = (
{
name = bottom;
position = "{172, 0}";
},
{
name = top;
position = "{263, 587}";
}
);
background = {
anchors = (
{
name = bottom;
position = "{672, 0}";
},
{
name = top;
position = "{763, 587}";
}
);
paths = (
{
closed = 1;
nodes = (
"968 -2 OFFCURVE",
"1037 -1 OFFCURVE",
"1081 -1 CURVE SMOOTH",
"1125 -1 OFFCURVE",
"1196 -2 OFFCURVE",
"1226 -5 CURVE",
"1228 52 LINE",
"1204 55 OFFCURVE",
"1177 59 OFFCURVE",
"1147 67 CURVE",
"1144 75 OFFCURVE",
"1140 137 OFFCURVE",
"1140 170 CURVE SMOOTH",
"1140 402 LINE SMOOTH",
"1140 469 OFFCURVE",
"1140 510 OFFCURVE",
"1141 526 CURVE",
"1155 530 OFFCURVE",
"1179 532 OFFCURVE",
"1202 532 CURVE SMOOTH",
"1262 532 LINE SMOOTH",
"1278 532 OFFCURVE",
"1289 531 OFFCURVE",
"1307 528 CURVE",
"1321 500 OFFCURVE",
"1329 474 OFFCURVE",
"1345 435 CURVE",
"1404 443 LINE",
"1376 592 LINE",
"1342 591 OFFCURVE",
"1264 587 OFFCURVE",
"1222 587 CURVE SMOOTH",
"1073 587 LINE SMOOTH",
"1030 587 OFFCURVE",
"967 589 OFFCURVE",
"937 591 CURVE",
"934 536 LINE",
"960 535 OFFCURVE",
"987 529 OFFCURVE",
"998 520 CURVE",
"1002 513 OFFCURVE",
"1005 451 OFFCURVE",
"1005 366 CURVE SMOOTH",
"1005 221 LINE SMOOTH",
"1005 137 OFFCURVE",
"1002 75 OFFCURVE",
"998 67 CURVE",
"987 59 OFFCURVE",
"961 54 OFFCURVE",
"938 50 CURVE",
"941 -5 LINE"
);
},
{
closed = 1;
nodes = (
"1333 190 LINE",
"1332 225 OFFCURVE",
"1330 263 OFFCURVE",
"1330 296 CURVE SMOOTH",
"1330 328 OFFCURVE",
"1332 362 OFFCURVE",
"1333 395 CURVE",
"1277 395 LINE",
"1274 374 OFFCURVE",
"1269 338 OFFCURVE",
"1266 330 CURVE",
"1257 330 OFFCURVE",
"1236 327 OFFCURVE",
"1209 327 CURVE SMOOTH",
"1162 327 LINE SMOOTH",
"1138 327 OFFCURVE",
"1117 330 OFFCURVE",
"1103 331 CURVE",
"1103 261 LINE",
"1117 262 OFFCURVE",
"1138 264 OFFCURVE",
"1162 264 CURVE SMOOTH",
"1209 264 LINE SMOOTH",
"1236 264 OFFCURVE",
"1257 262 OFFCURVE",
"1266 261 CURVE",
"1269 253 OFFCURVE",
"1274 212 OFFCURVE",
"1277 190 CURVE"
);
},
{
closed = 1;
nodes = (
"566 157 LINE",
"509 168 LINE",
"490 130 OFFCURVE",
"473 98 OFFCURVE",
"454 68 CURVE",
"435 64 OFFCURVE",
"425 64 OFFCURVE",
"383 64 CURVE SMOOTH",
"331 64 LINE SMOOTH",
"290 64 OFFCURVE",
"267 66 OFFCURVE",
"243 69 CURVE",
"241 86 OFFCURVE",
"240 126 OFFCURVE",
"240 194 CURVE SMOOTH",
"240 402 LINE SMOOTH",
"240 469 OFFCURVE",
"241 509 OFFCURVE",
"243 524 CURVE",
"260 527 OFFCURVE",
"288 528 OFFCURVE",
"308 528 CURVE SMOOTH",
"382 528 LINE SMOOTH",
"398 528 OFFCURVE",
"410 527 OFFCURVE",
"428 524 CURVE",
"442 496 OFFCURVE",
"451 474 OFFCURVE",
"466 435 CURVE",
"524 443 LINE",
"497 592 LINE",
"462 591 OFFCURVE",
"385 587 OFFCURVE",
"343 587 CURVE SMOOTH",
"172 587 LINE SMOOTH",
"129 587 OFFCURVE",
"66 589 OFFCURVE",
"36 591 CURVE",
"33 536 LINE",
"58 535 OFFCURVE",
"86 529 OFFCURVE",
"97 520 CURVE",
"101 513 OFFCURVE",
"104 451 OFFCURVE",
"104 366 CURVE SMOOTH",
"104 221 LINE SMOOTH",
"104 137 OFFCURVE",
"101 75 OFFCURVE",
"97 67 CURVE",
"86 59 OFFCURVE",
"58 54 OFFCURVE",
"33 50 CURVE",
"36 -5 LINE",
"66 -2 OFFCURVE",
"129 0 OFFCURVE",
"172 0 CURVE SMOOTH",
"381 0 LINE SMOOTH",
"423 0 OFFCURVE",
"486 -4 OFFCURVE",
"521 -6 CURVE"
);
},
{
closed = 1;
nodes = (
"450 199 LINE",
"449 232 OFFCURVE",
"447 269 OFFCURVE",
"447 301 CURVE SMOOTH",
"447 334 OFFCURVE",
"449 367 OFFCURVE",
"450 401 CURVE",
"393 401 LINE",
"391 380 OFFCURVE",
"386 343 OFFCURVE",
"383 335 CURVE",
"374 335 OFFCURVE",
"352 333 OFFCURVE",
"326 333 CURVE SMOOTH",
"274 333 LINE SMOOTH",
"250 333 OFFCURVE",
"229 335 OFFCURVE",
"218 336 CURVE",
"218 266 LINE",
"229 267 OFFCURVE",
"250 269 OFFCURVE",
"274 269 CURVE SMOOTH",
"326 269 LINE SMOOTH",
"352 269 OFFCURVE",
"374 267 OFFCURVE",
"383 267 CURVE",
"386 259 OFFCURVE",
"391 219 OFFCURVE",
"393 199 CURVE"
);
}
);
};
color = -1;
layerId = "C0B3E82F-C341-4413-A405-AFA97EAADFAC";
paths = (
{
closed = 1;
nodes = (
"68 -2 OFFCURVE",
"137 -1 OFFCURVE",
"181 -1 CURVE SMOOTH",
"225 -1 OFFCURVE",
"296 -2 OFFCURVE",
"326 -5 CURVE",
"328 52 LINE",
"304 55 OFFCURVE",
"277 59 OFFCURVE",
"247 67 CURVE",
"244 75 OFFCURVE",
"240 137 OFFCURVE",
"240 170 CURVE SMOOTH",
"240 402 LINE SMOOTH",
"240 469 OFFCURVE",
"240 506 OFFCURVE",
"241 522 CURVE",
"255 526 OFFCURVE",
"279 528 OFFCURVE",
"302 528 CURVE SMOOTH",
"376 528 LINE SMOOTH",
"392 528 OFFCURVE",
"403 527 OFFCURVE",
"421 524 CURVE",
"434 496 OFFCURVE",
"445 474 OFFCURVE",
"459 435 CURVE",
"518 443 LINE",
"490 592 LINE",
"456 591 OFFCURVE",
"378 587 OFFCURVE",
"336 587 CURVE SMOOTH",
"173 587 LINE SMOOTH",
"130 587 OFFCURVE",
"67 589 OFFCURVE",
"37 591 CURVE",
"34 536 LINE",
"60 535 OFFCURVE",
"87 529 OFFCURVE",
"98 520 CURVE",
"102 513 OFFCURVE",
"105 451 OFFCURVE",
"105 366 CURVE SMOOTH",
"105 221 LINE SMOOTH",
"105 137 OFFCURVE",
"102 75 OFFCURVE",
"98 67 CURVE",
"87 59 OFFCURVE",
"61 54 OFFCURVE",
"38 50 CURVE",
"41 -5 LINE"
);
},
{
closed = 1;
nodes = (
"442 189 LINE",
"441 224 OFFCURVE",
"439 262 OFFCURVE",
"439 295 CURVE SMOOTH",
"439 328 OFFCURVE",
"441 363 OFFCURVE",
"442 396 CURVE",
"386 396 LINE",
"383 375 OFFCURVE",
"378 339 OFFCURVE",
"375 331 CURVE",
"366 331 OFFCURVE",
"345 328 OFFCURVE",
"318 328 CURVE SMOOTH",
"262 328 LINE SMOOTH",
"238 328 OFFCURVE",
"217 331 OFFCURVE",
"203 332 CURVE",
"203 260 LINE",
"217 261 OFFCURVE",
"238 263 OFFCURVE",
"262 263 CURVE SMOOTH",
"318 263 LINE SMOOTH",
"345 263 OFFCURVE",
"366 261 OFFCURVE",
"375 260 CURVE",
"378 252 OFFCURVE",
"383 211 OFFCURVE",
"386 189 CURVE"
);
}
);
width = 539;
}
);
leftKerningGroup = B;
note = F;
rightKerningGroup = F;
unicode = 0046;
},
{
glyphname = G;
lastChange = "2018-05-31 14:32:51 +0000";
layers = (
{
anchors = (
{
name = bottom;
position = "{352, 0}";
},
{
name = top;
position = "{352, 587}";
}
);
background = {
anchors = (
{
name = bottom;
position = "{1052, 0}";
},
{
name = top;
position = "{1052, 587}";
}
);
paths = (
{
closed = 1;
nodes = (
"1132 -9 OFFCURVE",
"1219 12 OFFCURVE",
"1271 46 CURVE",
"1269 81 OFFCURVE",
"1268 109 OFFCURVE",
"1268 155 CURVE SMOOTH",
"1268 191 OFFCURVE",
"1271 218 OFFCURVE",
"1272 225 CURVE",
"1279 230 OFFCURVE",
"1298 235 OFFCURVE",
"1313 237 CURVE",
"1311 277 LINE",
"1293 276 OFFCURVE",
"1256 274 OFFCURVE",
"1224 274 CURVE SMOOTH",
"1192 274 OFFCURVE",
"1146 274 OFFCURVE",
"1114 276 CURVE",
"1113 235 LINE",
"1138 234 OFFCURVE",
"1170 228 OFFCURVE",
"1178 224 CURVE",
"1181 217 OFFCURVE",
"1185 191 OFFCURVE",
"1185 108 CURVE SMOOTH",
"1185 23 LINE",
"1209 80 LINE",
"1173 53 OFFCURVE",
"1123 43 OFFCURVE",
"1086 43 CURVE SMOOTH",
"956 43 OFFCURVE",
"856 136 OFFCURVE",
"856 307 CURVE SMOOTH",
"856 436 OFFCURVE",
"924 545 OFFCURVE",
"1075 545 CURVE SMOOTH",
"1112 545 OFFCURVE",
"1159 537 OFFCURVE",
"1185 519 CURVE",
"1197 491 OFFCURVE",
"1206 461 OFFCURVE",
"1214 430 CURVE",
"1259 434 LINE",
"1252 565 LINE",
"1206 585 OFFCURVE",
"1138 596 OFFCURVE",
"1084 596 CURVE SMOOTH",
"876 596 OFFCURVE",
"751 456 OFFCURVE",
"751 288 CURVE SMOOTH",
"751 92 OFFCURVE",
"894 -9 OFFCURVE",
"1078 -9 CURVE SMOOTH"
);
},
{
closed = 1;
nodes = (
"436 -9 OFFCURVE",
"501 11 OFFCURVE",
"547 35 CURVE",
"558 76 OFFCURVE",
"568 119 OFFCURVE",
"575 161 CURVE",
"529 166 LINE",
"513 129 OFFCURVE",
"501 102 OFFCURVE",
"485 72 CURVE",
"454 53 OFFCURVE",
"419 44 OFFCURVE",
"377 44 CURVE SMOOTH",
"255 44 OFFCURVE",
"157 136 OFFCURVE",
"157 307 CURVE SMOOTH",
"157 436 OFFCURVE",
"221 545 OFFCURVE",
"371 545 CURVE SMOOTH",
"409 545 OFFCURVE",
"455 536 OFFCURVE",
"481 519 CURVE",
"493 488 OFFCURVE",
"502 456 OFFCURVE",
"511 424 CURVE",
"556 428 LINE",
"549 565 LINE",
"501 585 OFFCURVE",
"434 596 OFFCURVE",
"380 596 CURVE SMOOTH",
"172 596 OFFCURVE",
"51 456 OFFCURVE",
"51 289 CURVE SMOOTH",
"51 92 OFFCURVE",
"193 -9 OFFCURVE",
"367 -9 CURVE SMOOTH"
);
}
);
};
color = -1;
layerId = "30A8E426-80C1-4FA7-AECB-85F4920FB6F7";
paths = (
{
closed = 1;
nodes = (
"439 -9 OFFCURVE",
"519 12 OFFCURVE",
"571 46 CURVE",
"569 81 OFFCURVE",
"568 109 OFFCURVE",
"568 155 CURVE SMOOTH",
"568 191 OFFCURVE",
"568 218 OFFCURVE",
"569 225 CURVE",
"576 230 OFFCURVE",
"598 235 OFFCURVE",
"613 237 CURVE",
"611 277 LINE",
"593 276 OFFCURVE",
"556 274 OFFCURVE",
"524 274 CURVE SMOOTH",
"492 274 OFFCURVE",
"446 274 OFFCURVE",
"414 276 CURVE",
"413 235 LINE",
"438 234 OFFCURVE",
"470 228 OFFCURVE",
"478 224 CURVE",
"481 217 OFFCURVE",
"485 191 OFFCURVE",
"485 128 CURVE SMOOTH",
"485 23 LINE",
"509 79 LINE",
"473 54 OFFCURVE",
"423 44 OFFCURVE",
"386 44 CURVE SMOOTH",
"255 44 OFFCURVE",
"156 136 OFFCURVE",
"156 307 CURVE SMOOTH",
"156 436 OFFCURVE",
"221 545 OFFCURVE",
"375 545 CURVE SMOOTH",
"412 545 OFFCURVE",
"459 537 OFFCURVE",
"485 519 CURVE",
"497 491 OFFCURVE",
"506 461 OFFCURVE",
"514 430 CURVE",
"559 434 LINE",
"552 565 LINE",
"506 585 OFFCURVE",
"438 596 OFFCURVE",
"384 596 CURVE SMOOTH",
"173 596 OFFCURVE",
"51 456 OFFCURVE",
"51 288 CURVE SMOOTH",
"51 92 OFFCURVE",
"193 -9 OFFCURVE",
"375 -9 CURVE SMOOTH"
);
}
);
width = 650;
},
{
anchors = (
{
name = bottom;
position = "{353, 0}";
},
{
name = top;
position = "{353, 587}";
}
);
background = {
anchors = (
{
name = bottom;
position = "{1153, 0}";
},
{
name = top;
position = "{1153, 587}";
}
);
paths = (
{
closed = 1;
nodes = (
"1245 -9 OFFCURVE",
"1323 16 OFFCURVE",
"1381 55 CURVE",
"1379 93 OFFCURVE",
"1378 119 OFFCURVE",
"1378 135 CURVE SMOOTH",
"1378 165 OFFCURVE",
"1377 200 OFFCURVE",
"1380 207 CURVE",
"1389 217 OFFCURVE",
"1409 224 OFFCURVE",
"1428 227 CURVE",
"1425 279 LINE",
"1402 277 OFFCURVE",
"1351 275 OFFCURVE",
"1300 275 CURVE SMOOTH",
"1248 275 OFFCURVE",
"1203 276 OFFCURVE",
"1171 278 CURVE",
"1170 225 LINE",
"1198 223 OFFCURVE",
"1223 217 OFFCURVE",
"1236 209 CURVE",
"1239 201 OFFCURVE",
"1245 165 OFFCURVE",
"1245 108 CURVE SMOOTH",
"1245 22 LINE",
"1262 72 LINE",
"1241 64 OFFCURVE",
"1216 60 OFFCURVE",
"1199 60 CURVE SMOOTH",
"1093 60 OFFCURVE",
"1007 154 OFFCURVE",
"1007 321 CURVE SMOOTH",
"1007 442 OFFCURVE",
"1075 529 OFFCURVE",
"1189 529 CURVE SMOOTH",
"1212 529 OFFCURVE",
"1245 525 OFFCURVE",
"1275 510 CURVE",
"1288 479 OFFCURVE",
"1296 450 OFFCURVE",
"1307 417 CURVE",
"1370 420 LINE",
"1365 562 LINE",
"1325 582 OFFCURVE",
"1259 596 OFFCURVE",
"1200 596 CURVE SMOOTH",
"997 596 OFFCURVE",
"845 478 OFFCURVE",
"845 280 CURVE SMOOTH",
"845 98 OFFCURVE",
"980 -9 OFFCURVE",
"1173 -9 CURVE SMOOTH"
);
},
{
closed = 1;
nodes = (
"452 -9 OFFCURVE",
"531 16 OFFCURVE",
"571 42 CURVE",
"583 88 OFFCURVE",
"592 131 OFFCURVE",
"600 176 CURVE",
"532 183 LINE",
"522 159 OFFCURVE",
"512 127 OFFCURVE",
"497 94 CURVE",
"477 72 OFFCURVE",
"430 61 OFFCURVE",
"399 61 CURVE SMOOTH",
"293 61 OFFCURVE",
"209 154 OFFCURVE",
"209 308 CURVE SMOOTH",
"209 444 OFFCURVE",
"273 529 OFFCURVE",
"387 529 CURVE SMOOTH",
"420 529 OFFCURVE",
"449 522 OFFCURVE",
"475 510 CURVE",
"488 475 OFFCURVE",
"499 439 OFFCURVE",
"511 404 CURVE",
"573 408 LINE",
"566 562 LINE",
"524 582 OFFCURVE",
"458 596 OFFCURVE",
"396 596 CURVE SMOOTH",
"194 596 OFFCURVE",
"45 478 OFFCURVE",
"45 283 CURVE SMOOTH",
"45 98 OFFCURVE",
"178 -9 OFFCURVE",
"374 -9 CURVE SMOOTH"
);
}
);
};
color = -1;
layerId = "C0B3E82F-C341-4413-A405-AFA97EAADFAC";
paths = (
{
closed = 1;
nodes = (
"445 -9 OFFCURVE",
"523 9 OFFCURVE",
"581 45 CURVE",
"579 93 OFFCURVE",
"578 119 OFFCURVE",
"578 135 CURVE SMOOTH",
"578 165 OFFCURVE",
"577 201 OFFCURVE",
"580 210 CURVE",
"589 218 OFFCURVE",
"609 224 OFFCURVE",
"628 227 CURVE",
"625 279 LINE",
"602 277 OFFCURVE",
"551 275 OFFCURVE",
"500 275 CURVE SMOOTH",
"448 275 OFFCURVE",
"403 276 OFFCURVE",
"371 278 CURVE",
"370 225 LINE",
"398 223 OFFCURVE",
"423 217 OFFCURVE",
"436 209 CURVE",
"439 201 OFFCURVE",
"445 165 OFFCURVE",
"445 128 CURVE SMOOTH",
"445 22 LINE",
"462 76 LINE",
"441 66 OFFCURVE",
"416 60 OFFCURVE",
"399 60 CURVE SMOOTH",
"292 60 OFFCURVE",
"207 154 OFFCURVE",
"207 308 CURVE SMOOTH",
"207 444 OFFCURVE",
"273 529 OFFCURVE",
"389 529 CURVE SMOOTH",
"412 529 OFFCURVE",
"445 525 OFFCURVE",
"475 510 CURVE",
"488 479 OFFCURVE",
"496 450 OFFCURVE",
"507 417 CURVE",
"570 420 LINE",
"565 562 LINE",
"525 582 OFFCURVE",
"459 596 OFFCURVE",
"400 596 CURVE SMOOTH",
"194 596 OFFCURVE",
"45 478 OFFCURVE",
"45 280 CURVE SMOOTH",
"45 98 OFFCURVE",
"180 -9 OFFCURVE",
"373 -9 CURVE SMOOTH"
);
}
);
width = 661;
}
);
leftKerningGroup = C;
note = G;
rightKerningGroup = G;
unicode = 0047;
},
{
glyphname = H;
lastChange = "2018-05-31 14:32:51 +0000";
layers = (
{
anchors = (
{
name = bottom;
position = "{337, 0}";
},
{
name = center;
position = "{337, 434}";
},
{
name = top;
position = "{337, 587}";
},
{
name = topleft;
position = "{26, 587}";
}
);
background = {
anchors = (
{
name = bottom;
position = "{334, 0}";
},
{
name = center;
position = "{334, 434}";
},
{
name = top;
position = "{334, 587}";
},
{
name = topleft;
position = "{26, 587}";
}
);
paths = (
{
closed = 1;
nodes = (
"434 -1 OFFCURVE",
"479 2 OFFCURVE",
"512 2 CURVE SMOOTH",
"545 2 OFFCURVE",
"589 -1 OFFCURVE",
"620 -3 CURVE",
"622 38 LINE",
"599 40 OFFCURVE",
"568 48 OFFCURVE",
"561 52 CURVE",
"557 59 OFFCURVE",
"554 91 OFFCURVE",
"554 199 CURVE SMOOTH",
"554 387 LINE SMOOTH",
"554 496 OFFCURVE",
"557 528 OFFCURVE",
"561 534 CURVE",
"568 539 OFFCURVE",
"599 547 OFFCURVE",
"622 548 CURVE",
"620 589 LINE",
"589 587 OFFCURVE",
"545 585 OFFCURVE",
"512 585 CURVE SMOOTH",
"479 585 OFFCURVE",
"434 587 OFFCURVE",
"403 589 CURVE",
"401 548 LINE",
"424 547 OFFCURVE",
"454 539 OFFCURVE",
"461 534 CURVE",
"465 528 OFFCURVE",
"468 496 OFFCURVE",
"468 387 CURVE SMOOTH",
"468 199 LINE SMOOTH",
"468 91 OFFCURVE",
"465 59 OFFCURVE",
"461 52 CURVE",
"454 48 OFFCURVE",
"424 40 OFFCURVE",
"401 38 CURVE",
"403 -3 LINE"
);
},
{
closed = 1;
nodes = (
"78 -1 OFFCURVE",
"123 2 OFFCURVE",
"156 2 CURVE SMOOTH",
"189 2 OFFCURVE",
"234 -1 OFFCURVE",
"265 -3 CURVE",
"267 38 LINE",
"243 40 OFFCURVE",
"213 48 OFFCURVE",
"206 52 CURVE",
"202 59 OFFCURVE",
"199 91 OFFCURVE",
"199 199 CURVE SMOOTH",
"199 387 LINE SMOOTH",
"199 496 OFFCURVE",
"202 528 OFFCURVE",
"206 534 CURVE",
"213 539 OFFCURVE",
"243 547 OFFCURVE",
"267 548 CURVE",
"265 589 LINE",
"234 587 OFFCURVE",
"189 585 OFFCURVE",
"156 585 CURVE SMOOTH",
"123 585 OFFCURVE",
"78 587 OFFCURVE",
"47 589 CURVE",
"45 548 LINE",
"69 547 OFFCURVE",
"100 539 OFFCURVE",
"107 534 CURVE",
"110 528 OFFCURVE",
"113 496 OFFCURVE",
"113 387 CURVE SMOOTH",
"113 199 LINE SMOOTH",
"113 91 OFFCURVE",
"110 59 OFFCURVE",
"107 52 CURVE",
"100 48 OFFCURVE",
"69 40 OFFCURVE",
"45 38 CURVE",
"47 -3 LINE"
);
},
{
closed = 1;
nodes = (
"218 274 OFFCURVE",
"265 276 OFFCURVE",
"334 276 CURVE SMOOTH",
"404 276 OFFCURVE",
"449 274 OFFCURVE",
"478 272 CURVE",
"478 331 LINE",
"452 329 OFFCURVE",
"404 328 OFFCURVE",
"334 328 CURVE SMOOTH",
"265 328 OFFCURVE",
"215 329 OFFCURVE",
"189 331 CURVE",
"189 272 LINE"
);
}
);
};
color = -1;
layerId = "30A8E426-80C1-4FA7-AECB-85F4920FB6F7";
paths = (
{
closed = 1;
nodes = (
"441 -1 OFFCURVE",
"485 2 OFFCURVE",
"518 2 CURVE SMOOTH",
"551 2 OFFCURVE",
"595 -1 OFFCURVE",
"626 -3 CURVE",
"628 38 LINE",
"605 40 OFFCURVE",
"574 48 OFFCURVE",
"567 52 CURVE",
"563 59 OFFCURVE",
"560 91 OFFCURVE",
"560 199 CURVE SMOOTH",
"560 387 LINE SMOOTH",
"560 496 OFFCURVE",
"563 528 OFFCURVE",
"567 534 CURVE",
"574 539 OFFCURVE",
"605 547 OFFCURVE",
"628 548 CURVE",
"626 589 LINE",
"595 587 OFFCURVE",
"551 585 OFFCURVE",
"518 585 CURVE SMOOTH",
"486 585 OFFCURVE",
"441 587 OFFCURVE",
"410 589 CURVE",
"408 548 LINE",
"431 547 OFFCURVE",
"461 539 OFFCURVE",
"468 534 CURVE",
"472 528 OFFCURVE",
"475 496 OFFCURVE",
"475 387 CURVE SMOOTH",
"475 199 LINE SMOOTH",
"475 91 OFFCURVE",
"472 59 OFFCURVE",
"468 52 CURVE",
"461 48 OFFCURVE",
"431 40 OFFCURVE",
"408 38 CURVE",
"410 -3 LINE"
);
},
{
closed = 1;
nodes = (
"78 -1 OFFCURVE",
"123 2 OFFCURVE",
"156 2 CURVE SMOOTH",
"189 2 OFFCURVE",
"233 -1 OFFCURVE",
"264 -3 CURVE",
"266 38 LINE",
"242 40 OFFCURVE",
"212 48 OFFCURVE",
"205 52 CURVE",
"201 59 OFFCURVE",
"198 91 OFFCURVE",
"198 199 CURVE SMOOTH",
"198 387 LINE SMOOTH",
"198 496 OFFCURVE",
"201 528 OFFCURVE",
"205 534 CURVE",
"212 539 OFFCURVE",
"242 547 OFFCURVE",
"266 548 CURVE",
"264 589 LINE",
"233 587 OFFCURVE",
"189 585 OFFCURVE",
"156 585 CURVE SMOOTH",
"123 585 OFFCURVE",
"78 587 OFFCURVE",
"47 589 CURVE",
"45 548 LINE",
"69 547 OFFCURVE",
"100 539 OFFCURVE",
"107 534 CURVE",
"110 528 OFFCURVE",
"113 496 OFFCURVE",
"113 387 CURVE SMOOTH",
"113 199 LINE SMOOTH",
"113 91 OFFCURVE",
"110 59 OFFCURVE",
"107 52 CURVE",
"100 48 OFFCURVE",
"69 40 OFFCURVE",
"45 38 CURVE",
"47 -3 LINE"
);
},
{
closed = 1;
nodes = (
"217 274 OFFCURVE",
"264 276 OFFCURVE",
"337 276 CURVE SMOOTH",
"410 276 OFFCURVE",
"456 274 OFFCURVE",
"485 272 CURVE",
"485 331 LINE",
"459 329 OFFCURVE",
"410 328 OFFCURVE",
"337 328 CURVE SMOOTH",
"264 328 OFFCURVE",
"214 329 OFFCURVE",
"188 331 CURVE",
"188 272 LINE"
);
}
);
width = 673;
},
{
anchors = (
{
name = bottom;
position = "{351, 0}";
},
{
name = center;
position = "{351, 434}";
},
{
name = top;
position = "{351, 587}";
},
{
name = topleft;
position = "{28, 587}";
}
);
background = {
anchors = (
{
name = bottom;
position = "{347, 0}";
},
{
name = center;
position = "{347, 434}";
},
{
name = top;
position = "{347, 587}";
},
{
name = topleft;
position = "{28, 587}";
}
);
paths = (
{
closed = 1;
nodes = (
"417 -2 OFFCURVE",
"467 2 OFFCURVE",
"521 2 CURVE SMOOTH",
"575 2 OFFCURVE",
"628 -2 OFFCURVE",
"659 -5 CURVE",
"662 50 LINE",
"636 54 OFFCURVE",
"608 59 OFFCURVE",
"598 67 CURVE",
"594 75 OFFCURVE",
"590 137 OFFCURVE",
"590 221 CURVE SMOOTH",
"590 366 LINE SMOOTH",
"590 451 OFFCURVE",
"594 513 OFFCURVE",
"598 520 CURVE",
"608 529 OFFCURVE",
"636 534 OFFCURVE",
"662 536 CURVE",
"659 591 LINE",
"628 589 OFFCURVE",
"575 586 OFFCURVE",
"521 586 CURVE SMOOTH",
"467 586 OFFCURVE",
"417 589 OFFCURVE",
"387 591 CURVE",
"384 536 LINE",
"409 534 OFFCURVE",
"435 529 OFFCURVE",
"446 520 CURVE",
"449 513 OFFCURVE",
"453 451 OFFCURVE",
"453 366 CURVE SMOOTH",
"453 221 LINE SMOOTH",
"453 137 OFFCURVE",
"449 75 OFFCURVE",
"446 67 CURVE",
"435 59 OFFCURVE",
"409 54 OFFCURVE",
"384 50 CURVE",
"387 -5 LINE"
);
},
{
closed = 1;
nodes = (
"66 -2 OFFCURVE",
"119 2 OFFCURVE",
"173 2 CURVE SMOOTH",
"227 2 OFFCURVE",
"278 -2 OFFCURVE",
"307 -5 CURVE",
"310 50 LINE",
"285 54 OFFCURVE",
"259 59 OFFCURVE",
"248 67 CURVE",
"245 75 OFFCURVE",
"241 137 OFFCURVE",
"241 221 CURVE SMOOTH",
"241 366 LINE SMOOTH",
"241 451 OFFCURVE",
"245 513 OFFCURVE",
"248 520 CURVE",
"259 529 OFFCURVE",
"285 534 OFFCURVE",
"310 536 CURVE",
"307 591 LINE",
"278 589 OFFCURVE",
"227 586 OFFCURVE",
"173 586 CURVE SMOOTH",
"119 586 OFFCURVE",
"66 589 OFFCURVE",
"36 591 CURVE",
"33 536 LINE",
"58 534 OFFCURVE",
"86 529 OFFCURVE",
"97 520 CURVE",
"101 513 OFFCURVE",
"104 451 OFFCURVE",
"104 366 CURVE SMOOTH",
"104 221 LINE SMOOTH",
"104 137 OFFCURVE",
"101 75 OFFCURVE",
"97 67 CURVE",
"86 59 OFFCURVE",
"58 54 OFFCURVE",
"33 50 CURVE",
"36 -5 LINE"
);
},
{
closed = 1;
nodes = (
"246 262 OFFCURVE",
"285 265 OFFCURVE",
"347 265 CURVE SMOOTH",
"409 265 OFFCURVE",
"448 262 OFFCURVE",
"476 261 CURVE",
"476 338 LINE",
"447 336 OFFCURVE",
"409 334 OFFCURVE",
"347 334 CURVE SMOOTH",
"285 334 OFFCURVE",
"247 336 OFFCURVE",
"218 338 CURVE",
"218 261 LINE"
);
}
);
};
color = -1;
layerId = "C0B3E82F-C341-4413-A405-AFA97EAADFAC";
paths = (
{
closed = 1;
nodes = (
"425 -2 OFFCURVE",
"475 2 OFFCURVE",
"529 2 CURVE SMOOTH",
"583 2 OFFCURVE",
"636 -2 OFFCURVE",
"667 -5 CURVE",
"670 50 LINE",
"644 54 OFFCURVE",
"616 59 OFFCURVE",
"606 67 CURVE",
"602 75 OFFCURVE",
"598 137 OFFCURVE",
"598 221 CURVE SMOOTH",
"598 366 LINE SMOOTH",
"598 451 OFFCURVE",
"602 513 OFFCURVE",
"606 520 CURVE",
"616 529 OFFCURVE",
"644 534 OFFCURVE",
"670 536 CURVE",
"667 591 LINE",
"636 589 OFFCURVE",
"583 586 OFFCURVE",
"529 586 CURVE SMOOTH",
"475 586 OFFCURVE",
"425 589 OFFCURVE",
"395 591 CURVE",
"392 536 LINE",
"417 534 OFFCURVE",
"443 529 OFFCURVE",
"454 520 CURVE",
"457 513 OFFCURVE",
"461 451 OFFCURVE",
"461 366 CURVE SMOOTH",
"461 221 LINE SMOOTH",
"461 137 OFFCURVE",
"457 75 OFFCURVE",
"454 67 CURVE",
"443 59 OFFCURVE",
"417 54 OFFCURVE",
"392 50 CURVE",
"395 -5 LINE"
);
},
{
closed = 1;
nodes = (
"66 -2 OFFCURVE",
"119 2 OFFCURVE",
"173 2 CURVE SMOOTH",
"227 2 OFFCURVE",
"278 -2 OFFCURVE",
"307 -5 CURVE",
"310 50 LINE",
"285 54 OFFCURVE",
"259 59 OFFCURVE",
"248 67 CURVE",
"245 75 OFFCURVE",
"241 137 OFFCURVE",
"241 221 CURVE SMOOTH",
"241 366 LINE SMOOTH",
"241 451 OFFCURVE",
"245 513 OFFCURVE",
"248 520 CURVE",
"259 529 OFFCURVE",
"285 534 OFFCURVE",
"310 536 CURVE",
"307 591 LINE",
"278 589 OFFCURVE",
"227 586 OFFCURVE",
"173 586 CURVE SMOOTH",
"119 586 OFFCURVE",
"66 589 OFFCURVE",
"36 591 CURVE",
"33 536 LINE",
"58 534 OFFCURVE",
"86 529 OFFCURVE",
"97 520 CURVE",
"101 513 OFFCURVE",
"104 451 OFFCURVE",
"104 366 CURVE SMOOTH",
"104 221 LINE SMOOTH",
"104 137 OFFCURVE",
"101 75 OFFCURVE",
"97 67 CURVE",
"86 59 OFFCURVE",
"58 54 OFFCURVE",
"33 50 CURVE",
"36 -5 LINE"
);
},
{
closed = 1;
nodes = (
"246 262 OFFCURVE",
"285 265 OFFCURVE",
"351 265 CURVE SMOOTH",
"417 265 OFFCURVE",
"456 262 OFFCURVE",
"484 261 CURVE",
"484 338 LINE",
"455 336 OFFCURVE",
"417 334 OFFCURVE",
"351 334 CURVE SMOOTH",
"285 334 OFFCURVE",
"247 336 OFFCURVE",
"218 338 CURVE",
"218 261 LINE"
);
}
);
width = 702;
}
);
leftKerningGroup = B;
note = H;
rightKerningGroup = H;
unicode = 0048;
},
{
glyphname = I;
lastChange = "2018-05-31 14:32:51 +0000";
layers = (
{
anchors = (
{
name = bottom;
position = "{156, 0}";
},
{
name = ogonek;
position = "{213, 0}";
},
{
name = top;
position = "{156, 587}";
},
{
name = topleft;
position = "{26, 587}";
}
);
background = {
anchors = (
{
name = bottom;
position = "{156, 0}";
},
{
name = ogonek;
position = "{213, 0}";
},
{
name = top;
position = "{156, 587}";
},
{
name = topleft;
position = "{26, 587}";
}
);
paths = (
{
closed = 1;
nodes = (
"78 -1 OFFCURVE",
"123 2 OFFCURVE",
"156 2 CURVE SMOOTH",
"189 2 OFFCURVE",
"234 -1 OFFCURVE",
"265 -3 CURVE",
"267 38 LINE",
"243 40 OFFCURVE",
"213 48 OFFCURVE",
"206 52 CURVE",
"202 59 OFFCURVE",
"199 91 OFFCURVE",
"199 199 CURVE SMOOTH",
"199 387 LINE SMOOTH",
"199 496 OFFCURVE",
"202 528 OFFCURVE",
"206 534 CURVE",
"213 539 OFFCURVE",
"243 547 OFFCURVE",
"267 548 CURVE",
"265 589 LINE",
"234 587 OFFCURVE",
"189 586 OFFCURVE",
"156 586 CURVE SMOOTH",
"123 586 OFFCURVE",
"78 587 OFFCURVE",
"47 589 CURVE",
"45 548 LINE",
"69 547 OFFCURVE",
"100 539 OFFCURVE",
"107 534 CURVE",
"110 528 OFFCURVE",
"113 496 OFFCURVE",
"113 387 CURVE SMOOTH",
"113 199 LINE SMOOTH",
"113 91 OFFCURVE",
"110 59 OFFCURVE",
"107 52 CURVE",
"100 48 OFFCURVE",
"69 40 OFFCURVE",
"45 38 CURVE",
"47 -3 LINE"
);
}
);
};
color = -1;
layerId = "30A8E426-80C1-4FA7-AECB-85F4920FB6F7";
paths = (
{
closed = 1;
nodes = (
"78 -1 OFFCURVE",
"123 2 OFFCURVE",
"156 2 CURVE SMOOTH",
"188 2 OFFCURVE",
"233 -1 OFFCURVE",
"264 -3 CURVE",
"266 38 LINE",
"242 40 OFFCURVE",
"212 48 OFFCURVE",
"205 52 CURVE",
"201 59 OFFCURVE",
"198 91 OFFCURVE",
"198 199 CURVE SMOOTH",
"198 387 LINE SMOOTH",
"198 496 OFFCURVE",
"201 528 OFFCURVE",
"205 534 CURVE",
"212 539 OFFCURVE",
"242 547 OFFCURVE",
"266 548 CURVE",
"264 589 LINE",
"233 587 OFFCURVE",
"188 585 OFFCURVE",
"156 585 CURVE SMOOTH",
"123 585 OFFCURVE",
"78 587 OFFCURVE",
"47 589 CURVE",
"45 548 LINE",
"69 547 OFFCURVE",
"100 539 OFFCURVE",
"107 534 CURVE",
"110 528 OFFCURVE",
"113 496 OFFCURVE",
"113 387 CURVE SMOOTH",
"113 199 LINE SMOOTH",
"113 91 OFFCURVE",
"110 59 OFFCURVE",
"107 52 CURVE",
"100 48 OFFCURVE",
"69 40 OFFCURVE",
"45 38 CURVE",
"47 -3 LINE"
);
}
);
width = 311;
},
{
anchors = (
{
name = bottom;
position = "{173, 0}";
},
{
name = ogonek;
position = "{247, 0}";
},
{
name = top;
position = "{173, 587}";
},
{
name = topleft;
position = "{28, 587}";
}
);
background = {
anchors = (
{
name = bottom;
position = "{173, 0}";
},
{
name = ogonek;
position = "{247, 0}";
},
{
name = top;
position = "{173, 587}";
},
{
name = topleft;
position = "{28, 587}";
}
);
paths = (
{
closed = 1;
nodes = (
"66 -2 OFFCURVE",
"119 2 OFFCURVE",
"173 2 CURVE SMOOTH",
"227 2 OFFCURVE",
"280 -2 OFFCURVE",
"310 -5 CURVE",
"313 50 LINE",
"287 54 OFFCURVE",
"259 59 OFFCURVE",
"248 67 CURVE",
"245 75 OFFCURVE",
"241 137 OFFCURVE",
"241 221 CURVE SMOOTH",
"241 366 LINE SMOOTH",
"241 451 OFFCURVE",
"245 513 OFFCURVE",
"248 520 CURVE",
"259 529 OFFCURVE",
"287 534 OFFCURVE",
"313 536 CURVE",
"310 591 LINE",
"280 589 OFFCURVE",
"227 588 OFFCURVE",
"173 588 CURVE SMOOTH",
"119 588 OFFCURVE",
"66 589 OFFCURVE",
"36 591 CURVE",
"33 536 LINE",
"58 534 OFFCURVE",
"86 529 OFFCURVE",
"97 520 CURVE",
"101 513 OFFCURVE",
"104 451 OFFCURVE",
"104 366 CURVE SMOOTH",
"104 221 LINE SMOOTH",
"104 137 OFFCURVE",
"101 75 OFFCURVE",
"97 67 CURVE",
"86 59 OFFCURVE",
"58 54 OFFCURVE",
"33 50 CURVE",
"36 -5 LINE"
);
}
);
};
color = -1;
layerId = "C0B3E82F-C341-4413-A405-AFA97EAADFAC";
paths = (
{
closed = 1;
nodes = (
"66 -2 OFFCURVE",
"119 2 OFFCURVE",
"173 2 CURVE SMOOTH",
"227 2 OFFCURVE",
"280 -2 OFFCURVE",
"310 -5 CURVE",
"313 50 LINE",
"287 54 OFFCURVE",
"259 59 OFFCURVE",
"248 67 CURVE",
"245 75 OFFCURVE",
"241 137 OFFCURVE",
"241 221 CURVE SMOOTH",
"241 366 LINE SMOOTH",
"241 451 OFFCURVE",
"245 513 OFFCURVE",
"248 520 CURVE",
"259 529 OFFCURVE",
"287 534 OFFCURVE",
"313 536 CURVE",
"310 591 LINE",
"280 589 OFFCURVE",
"227 586 OFFCURVE",
"173 586 CURVE SMOOTH",
"119 586 OFFCURVE",
"66 589 OFFCURVE",
"36 591 CURVE",
"33 536 LINE",
"58 534 OFFCURVE",
"86 529 OFFCURVE",
"97 520 CURVE",
"101 513 OFFCURVE",
"104 451 OFFCURVE",
"104 366 CURVE SMOOTH",
"104 221 LINE SMOOTH",
"104 137 OFFCURVE",
"101 75 OFFCURVE",
"97 67 CURVE",
"86 59 OFFCURVE",
"58 54 OFFCURVE",
"33 50 CURVE",
"36 -5 LINE"
);
}
);
width = 345;
}
);
leftKerningGroup = B;
note = I;
rightKerningGroup = H;
unicode = 0049;
},
{
glyphname = Iogonek;
lastChange = "2018-05-31 14:32:51 +0000";
layers = (
{
anchors = (
{
name = top;
position = "{156, 587}";
},
{
name = topleft;
position = "{26, 587}";
}
);
background = {
anchors = (
{
name = top;
position = "{156, 587}";
},
{
name = topleft;
position = "{26, 587}";
}
);
paths = (
{
closed = 1;
nodes = (
"199 387 LINE SMOOTH",
"199 496 OFFCURVE",
"202 528 OFFCURVE",
"206 534 CURVE",
"213 539 OFFCURVE",
"243 547 OFFCURVE",
"267 548 CURVE",
"265 589 LINE",
"234 587 OFFCURVE",
"189 586 OFFCURVE",
"156 586 CURVE SMOOTH",
"123 586 OFFCURVE",
"78 587 OFFCURVE",
"47 589 CURVE",
"45 548 LINE",
"69 547 OFFCURVE",
"100 539 OFFCURVE",
"107 534 CURVE",
"110 528 OFFCURVE",
"113 496 OFFCURVE",
"113 387 CURVE SMOOTH",
"113 199 LINE SMOOTH",
"113 91 OFFCURVE",
"110 59 OFFCURVE",
"107 52 CURVE",
"100 48 OFFCURVE",
"69 40 OFFCURVE",
"45 38 CURVE",
"47 -3 LINE",
"85 0 OFFCURVE",
"144 2 OFFCURVE",
"190 2 CURVE",
"182 11 LINE",
"86 -9 OFFCURVE",
"34 -70 OFFCURVE",
"34 -128 CURVE SMOOTH",
"34 -178 OFFCURVE",
"81 -223 OFFCURVE",
"151 -223 CURVE SMOOTH",
"194 -223 OFFCURVE",
"231 -204 OFFCURVE",
"256 -173 CURVE",
"234 -146 LINE",
"213 -167 OFFCURVE",
"191 -181 OFFCURVE",
"165 -181 CURVE SMOOTH",
"128 -181 OFFCURVE",
"104 -158 OFFCURVE",
"104 -116 CURVE SMOOTH",
"104 -67 OFFCURVE",
"153 0 OFFCURVE",
"265 0 CURVE",
"267 38 LINE",
"243 40 OFFCURVE",
"213 48 OFFCURVE",
"206 52 CURVE",
"202 59 OFFCURVE",
"199 91 OFFCURVE",
"199 199 CURVE SMOOTH"
);
}
);
};
color = -1;
layerId = "30A8E426-80C1-4FA7-AECB-85F4920FB6F7";
paths = (
{
closed = 1;
nodes = (
"198 387 LINE SMOOTH",
"198 496 OFFCURVE",
"201 528 OFFCURVE",
"205 534 CURVE",
"212 539 OFFCURVE",
"242 547 OFFCURVE",
"266 548 CURVE",
"264 589 LINE",
"233 587 OFFCURVE",
"188 585 OFFCURVE",
"156 585 CURVE SMOOTH",
"123 585 OFFCURVE",
"78 587 OFFCURVE",
"47 589 CURVE",
"45 548 LINE",
"69 547 OFFCURVE",
"100 539 OFFCURVE",
"107 534 CURVE",
"110 528 OFFCURVE",
"113 496 OFFCURVE",
"113 387 CURVE SMOOTH",
"113 199 LINE SMOOTH",
"113 91 OFFCURVE",
"110 59 OFFCURVE",
"107 52 CURVE",
"100 48 OFFCURVE",
"69 40 OFFCURVE",
"45 38 CURVE",
"47 -3 LINE",
"85 0 OFFCURVE",
"144 2 OFFCURVE",
"190 2 CURVE",
"190 11 LINE",
"86 -9 OFFCURVE",
"44 -69 OFFCURVE",
"44 -125 CURVE SMOOTH",
"44 -177 OFFCURVE",
"88 -223 OFFCURVE",
"159 -223 CURVE SMOOTH",
"198 -223 OFFCURVE",
"234 -204 OFFCURVE",
"259 -173 CURVE",
"235 -147 LINE",
"216 -167 OFFCURVE",
"196 -181 OFFCURVE",
"171 -181 CURVE SMOOTH",
"135 -181 OFFCURVE",
"114 -158 OFFCURVE",
"114 -115 CURVE SMOOTH",
"114 -51 OFFCURVE",
"181 0 OFFCURVE",
"264 0 CURVE",
"266 38 LINE",
"242 40 OFFCURVE",
"212 48 OFFCURVE",
"205 52 CURVE",
"201 59 OFFCURVE",
"198 91 OFFCURVE",
"198 199 CURVE SMOOTH"
);
}
);
width = 311;
},
{
anchors = (
{
name = top;
position = "{173, 587}";
},
{
name = topleft;
position = "{28, 587}";
}
);
background = {
anchors = (
{
name = top;
position = "{173, 587}";
},
{
name = topleft;
position = "{28, 587}";
}
);
paths = (
{
closed = 1;
nodes = (
"241 366 LINE SMOOTH",
"241 451 OFFCURVE",
"245 513 OFFCURVE",
"248 520 CURVE",
"259 529 OFFCURVE",
"287 534 OFFCURVE",
"313 536 CURVE",
"310 591 LINE",
"280 589 OFFCURVE",
"227 588 OFFCURVE",
"173 588 CURVE SMOOTH",
"119 588 OFFCURVE",
"66 589 OFFCURVE",
"36 591 CURVE",
"33 536 LINE",
"58 534 OFFCURVE",
"86 529 OFFCURVE",
"97 520 CURVE",
"101 513 OFFCURVE",
"104 451 OFFCURVE",
"104 366 CURVE SMOOTH",
"104 221 LINE SMOOTH",
"104 137 OFFCURVE",
"101 75 OFFCURVE",
"97 67 CURVE",
"86 59 OFFCURVE",
"58 54 OFFCURVE",
"33 50 CURVE",
"36 -5 LINE",
"72 -1 OFFCURVE",
"124 2 OFFCURVE",
"218 2 CURVE",
"217 14 LINE",
"105 -10 OFFCURVE",
"45 -67 OFFCURVE",
"45 -122 CURVE SMOOTH",
"45 -181 OFFCURVE",
"103 -223 OFFCURVE",
"175 -223 CURVE SMOOTH",
"222 -223 OFFCURVE",
"261 -205 OFFCURVE",
"290 -173 CURVE",
"262 -134 LINE",
"238 -157 OFFCURVE",
"216 -168 OFFCURVE",
"194 -168 CURVE SMOOTH",
"164 -168 OFFCURVE",
"142 -148 OFFCURVE",
"142 -109 CURVE SMOOTH",
"142 -50 OFFCURVE",
"221 0 OFFCURVE",
"310 0 CURVE",
"313 50 LINE",
"287 54 OFFCURVE",
"259 59 OFFCURVE",
"248 67 CURVE",
"245 75 OFFCURVE",
"241 137 OFFCURVE",
"241 221 CURVE SMOOTH"
);
}
);
};
color = -1;
layerId = "C0B3E82F-C341-4413-A405-AFA97EAADFAC";
paths = (
{
closed = 1;
nodes = (
"241 366 LINE SMOOTH",
"241 451 OFFCURVE",
"245 513 OFFCURVE",
"248 520 CURVE",
"259 529 OFFCURVE",
"287 534 OFFCURVE",
"313 536 CURVE",
"310 591 LINE",
"280 589 OFFCURVE",
"227 586 OFFCURVE",
"173 586 CURVE SMOOTH",
"119 586 OFFCURVE",
"66 589 OFFCURVE",
"36 591 CURVE",
"33 536 LINE",
"58 534 OFFCURVE",
"86 529 OFFCURVE",
"97 520 CURVE",
"101 513 OFFCURVE",
"104 451 OFFCURVE",
"104 366 CURVE SMOOTH",
"104 221 LINE SMOOTH",
"104 137 OFFCURVE",
"101 75 OFFCURVE",
"97 67 CURVE",
"86 59 OFFCURVE",
"58 54 OFFCURVE",
"33 50 CURVE",
"36 -5 LINE",
"72 -1 OFFCURVE",
"124 2 OFFCURVE",
"218 2 CURVE",
"217 14 LINE",
"95 -12 OFFCURVE",
"45 -67 OFFCURVE",
"45 -122 CURVE SMOOTH",
"45 -181 OFFCURVE",
"100 -223 OFFCURVE",
"175 -223 CURVE SMOOTH",
"222 -223 OFFCURVE",
"261 -205 OFFCURVE",
"290 -173 CURVE",
"262 -134 LINE",
"240 -157 OFFCURVE",
"217 -168 OFFCURVE",
"196 -168 CURVE SMOOTH",
"165 -168 OFFCURVE",
"142 -148 OFFCURVE",
"142 -109 CURVE SMOOTH",
"142 -51 OFFCURVE",
"220 0 OFFCURVE",
"310 0 CURVE",
"313 50 LINE",
"287 54 OFFCURVE",
"259 59 OFFCURVE",
"248 67 CURVE",
"245 75 OFFCURVE",
"241 137 OFFCURVE",
"241 221 CURVE SMOOTH"
);
}
);
width = 345;
}
);
widthMetricsKey = I;
note = Iogonek;
rightMetricsKey = I;
unicode = 012E;
},
{
glyphname = J;
lastChange = "2018-05-31 14:32:51 +0000";
layers = (
{
anchors = (
{
name = top;
position = "{160, 587}";
}
);
background = {
paths = (
{
closed = 1;
nodes = (
"82 -1 OFFCURVE",
"127 2 OFFCURVE",
"160 2 CURVE SMOOTH",
"192 2 OFFCURVE",
"237 -1 OFFCURVE",
"268 -3 CURVE",
"270 38 LINE",
"246 40 OFFCURVE",
"216 48 OFFCURVE",
"209 52 CURVE",
"205 59 OFFCURVE",
"202 91 OFFCURVE",
"202 199 CURVE SMOOTH",
"202 387 LINE SMOOTH",
"202 496 OFFCURVE",
"205 528 OFFCURVE",
"209 534 CURVE",
"216 539 OFFCURVE",
"246 547 OFFCURVE",
"270 548 CURVE",
"268 589 LINE",
"237 587 OFFCURVE",
"192 585 OFFCURVE",
"160 585 CURVE SMOOTH",
"127 585 OFFCURVE",
"82 587 OFFCURVE",
"51 589 CURVE",
"49 548 LINE",
"73 547 OFFCURVE",
"104 539 OFFCURVE",
"111 534 CURVE",
"114 528 OFFCURVE",
"117 496 OFFCURVE",
"117 387 CURVE SMOOTH",
"117 199 LINE SMOOTH",
"117 91 OFFCURVE",
"114 59 OFFCURVE",
"111 52 CURVE",
"104 48 OFFCURVE",
"73 40 OFFCURVE",
"49 38 CURVE",
"51 -3 LINE"
);
}
);
};
color = -1;
layerId = "30A8E426-80C1-4FA7-AECB-85F4920FB6F7";
paths = (
{
closed = 1;
nodes = (
"215 537 OFFCURVE",
"245 547 OFFCURVE",
"266 548 CURVE",
"264 589 LINE",
"235 587 OFFCURVE",
"191 585 OFFCURVE",
"160 585 CURVE SMOOTH",
"127 585 OFFCURVE",
"79 587 OFFCURVE",
"45 589 CURVE",
"43 548 LINE",
"70 547 OFFCURVE",
"104 537 OFFCURVE",
"111 534 CURVE",
"114 526 OFFCURVE",
"117 496 OFFCURVE",
"117 387 CURVE",
"116 -27 LINE",
"116 -148 OFFCURVE",
"83 -169 OFFCURVE",
"36 -161 CURVE",
"71 -173 LINE",
"19 -121 LINE SMOOTH",
"1 -103 OFFCURVE",
"-15 -95 OFFCURVE",
"-33 -95 CURVE SMOOTH",
"-56 -95 OFFCURVE",
"-72 -109 OFFCURVE",
"-72 -132 CURVE SMOOTH",
"-72 -171 OFFCURVE",
"-18 -203 OFFCURVE",
"41 -203 CURVE SMOOTH",
"131 -203 OFFCURVE",
"203 -132 OFFCURVE",
"203 16 CURVE",
"202 387 LINE",
"202 496 OFFCURVE",
"205 528 OFFCURVE",
"209 534 CURVE"
);
}
);
width = 311;
},
{
anchors = (
{
name = top;
position = "{173, 587}";
}
);
background = {
anchors = (
{
name = top;
position = "{173, 587}";
}
);
paths = (
{
closed = 1;
nodes = (
"259 526 OFFCURVE",
"288 532 OFFCURVE",
"313 533 CURVE",
"310 590 LINE",
"280 589 OFFCURVE",
"227 588 OFFCURVE",
"173 588 CURVE SMOOTH",
"119 588 OFFCURVE",
"66 589 OFFCURVE",
"36 590 CURVE",
"33 533 LINE",
"59 532 OFFCURVE",
"86 526 OFFCURVE",
"97 518 CURVE",
"100 510 OFFCURVE",
"104 451 OFFCURVE",
"104 368 CURVE SMOOTH",
"105 -21 LINE",
"105 -141 OFFCURVE",
"91 -154 OFFCURVE",
"47 -147 CURVE",
"104 -167 LINE",
"32 -100 LINE SMOOTH",
"3 -73 OFFCURVE",
"-16 -66 OFFCURVE",
"-38 -66 CURVE SMOOTH",
"-66 -66 OFFCURVE",
"-88 -84 OFFCURVE",
"-88 -117 CURVE SMOOTH",
"-88 -169 OFFCURVE",
"-25 -203 OFFCURVE",
"64 -203 CURVE SMOOTH",
"158 -203 OFFCURVE",
"243 -133 OFFCURVE",
"243 3 CURVE",
"241 366 LINE",
"241 451 OFFCURVE",
"244 510 OFFCURVE",
"248 518 CURVE"
);
}
);
};
color = -1;
layerId = "C0B3E82F-C341-4413-A405-AFA97EAADFAC";
paths = (
{
closed = 1;
nodes = (
"259 528 OFFCURVE",
"288 534 OFFCURVE",
"312 535 CURVE",
"309 590 LINE",
"280 589 OFFCURVE",
"227 586 OFFCURVE",
"173 586 CURVE SMOOTH",
"119 586 OFFCURVE",
"65 589 OFFCURVE",
"33 590 CURVE",
"30 535 LINE",
"58 534 OFFCURVE",
"86 528 OFFCURVE",
"97 521 CURVE",
"100 512 OFFCURVE",
"104 453 OFFCURVE",
"104 370 CURVE",
"105 -21 LINE",
"105 -141 OFFCURVE",
"91 -154 OFFCURVE",
"47 -147 CURVE",
"104 -167 LINE",
"32 -100 LINE SMOOTH",
"3 -73 OFFCURVE",
"-16 -66 OFFCURVE",
"-38 -66 CURVE SMOOTH",
"-66 -66 OFFCURVE",
"-88 -85 OFFCURVE",
"-88 -119 CURVE SMOOTH",
"-88 -170 OFFCURVE",
"-25 -203 OFFCURVE",
"54 -203 CURVE SMOOTH",
"158 -203 OFFCURVE",
"243 -133 OFFCURVE",
"243 3 CURVE",
"241 368 LINE",
"241 453 OFFCURVE",
"244 512 OFFCURVE",
"248 520 CURVE"
);
}
);
width = 345;
}
);
leftKerningGroup = J;
note = J;
rightKerningGroup = J;
unicode = 004A;
},
{
glyphname = K;
lastChange = "2018-05-31 14:32:51 +0000";
layers = (
{
anchors = (
{
name = bottom;
position = "{315, 0}";
},
{
name = top;
position = "{315, 587}";
}
);
background = {
anchors = (
{
name = bottom;
position = "{315, 0}";
},
{
name = top;
position = "{315, 587}";
}
);
paths = (
{
closed = 1;
nodes = (
"400 -1 OFFCURVE",
"446 2 OFFCURVE",
"478 2 CURVE SMOOTH",
"513 2 OFFCURVE",
"557 1 OFFCURVE",
"601 -2 CURVE",
"601 39 LINE",
"580 42 OFFCURVE",
"565 45 OFFCURVE",
"547 51 CURVE",
"532 64 OFFCURVE",
"509 87 OFFCURVE",
"478 126 CURVE SMOOTH",
"286 341 LINE",
"283 309 LINE",
"526 537 LINE",
"544 541 OFFCURVE",
"568 545 OFFCURVE",
"584 547 CURVE",
"582 588 LINE",
"557 587 OFFCURVE",
"517 586 OFFCURVE",
"490 586 CURVE SMOOTH",
"464 586 OFFCURVE",
"416 586 OFFCURVE",
"387 587 CURVE",
"386 546 LINE",
"404 545 OFFCURVE",
"429 541 OFFCURVE",
"448 536 CURVE",
"240 323 LINE",
"187 309 LINE",
"187 272 LINE",
"226 272 LINE",
"386 98 LINE SMOOTH",
"404 78 OFFCURVE",
"417 61 OFFCURVE",
"426 49 CURVE",
"418 46 OFFCURVE",
"389 40 OFFCURVE",
"367 38 CURVE",
"369 -3 LINE"
);
},
{
closed = 1;
nodes = (
"79 -1 OFFCURVE",
"123 2 OFFCURVE",
"156 2 CURVE SMOOTH",
"189 2 OFFCURVE",
"233 -1 OFFCURVE",
"263 -3 CURVE",
"265 38 LINE",
"243 40 OFFCURVE",
"212 48 OFFCURVE",
"204 52 CURVE",
"201 59 OFFCURVE",
"199 91 OFFCURVE",
"199 199 CURVE SMOOTH",
"199 387 LINE SMOOTH",
"199 496 OFFCURVE",
"202 528 OFFCURVE",
"206 534 CURVE",
"213 539 OFFCURVE",
"243 547 OFFCURVE",
"267 547 CURVE",
"265 589 LINE",
"234 587 OFFCURVE",
"189 585 OFFCURVE",
"156 585 CURVE SMOOTH",
"123 585 OFFCURVE",
"78 587 OFFCURVE",
"47 589 CURVE",
"45 547 LINE",
"69 547 OFFCURVE",
"100 539 OFFCURVE",
"107 534 CURVE",
"110 528 OFFCURVE",
"113 496 OFFCURVE",
"113 387 CURVE SMOOTH",
"113 199 LINE SMOOTH",
"113 91 OFFCURVE",
"110 59 OFFCURVE",
"107 52 CURVE",
"100 48 OFFCURVE",
"70 40 OFFCURVE",
"47 38 CURVE",
"49 -3 LINE"
);
}
);
};
color = -1;
layerId = "30A8E426-80C1-4FA7-AECB-85F4920FB6F7";
paths = (
{
closed = 1;
nodes = (
"395 -1 OFFCURVE",
"442 2 OFFCURVE",
"475 2 CURVE SMOOTH",
"512 2 OFFCURVE",
"556 1 OFFCURVE",
"600 -2 CURVE",
"600 39 LINE",
"579 42 OFFCURVE",
"564 45 OFFCURVE",
"546 51 CURVE",
"531 64 OFFCURVE",
"510 89 OFFCURVE",
"477 126 CURVE SMOOTH",
"286 339 LINE",
"283 309 LINE",
"524 537 LINE",
"542 541 OFFCURVE",
"566 545 OFFCURVE",
"582 547 CURVE",
"580 588 LINE",
"555 587 OFFCURVE",
"515 586 OFFCURVE",
"488 586 CURVE SMOOTH",
"462 586 OFFCURVE",
"414 586 OFFCURVE",
"385 587 CURVE",
"384 546 LINE",
"402 545 OFFCURVE",
"427 541 OFFCURVE",
"446 536 CURVE",
"240 323 LINE",
"187 309 LINE",
"187 272 LINE",
"228 272 LINE",
"381 98 LINE SMOOTH",
"399 78 OFFCURVE",
"412 61 OFFCURVE",
"421 49 CURVE",
"413 46 OFFCURVE",
"384 40 OFFCURVE",
"362 38 CURVE",
"364 -3 LINE"
);
},
{
closed = 1;
nodes = (
"79 -1 OFFCURVE",
"123 2 OFFCURVE",
"156 2 CURVE SMOOTH",
"189 2 OFFCURVE",
"233 -1 OFFCURVE",
"263 -3 CURVE",
"265 38 LINE",
"243 40 OFFCURVE",
"212 48 OFFCURVE",
"204 52 CURVE",
"201 59 OFFCURVE",
"199 91 OFFCURVE",
"199 199 CURVE SMOOTH",
"199 387 LINE SMOOTH",
"199 496 OFFCURVE",
"202 529 OFFCURVE",
"206 535 CURVE",
"213 540 OFFCURVE",
"243 548 OFFCURVE",
"267 548 CURVE",
"265 589 LINE",
"234 587 OFFCURVE",
"189 585 OFFCURVE",
"156 585 CURVE SMOOTH",
"123 585 OFFCURVE",
"78 587 OFFCURVE",
"47 589 CURVE",
"45 548 LINE",
"69 548 OFFCURVE",
"100 540 OFFCURVE",
"107 535 CURVE",
"110 529 OFFCURVE",
"113 496 OFFCURVE",
"113 387 CURVE SMOOTH",
"113 199 LINE SMOOTH",
"113 91 OFFCURVE",
"110 59 OFFCURVE",
"107 52 CURVE",
"100 48 OFFCURVE",
"70 40 OFFCURVE",
"47 38 CURVE",
"49 -3 LINE"
);
}
);
width = 591;
},
{
anchors = (
{
name = bottom;
position = "{331, 0}";
},
{
name = top;
position = "{331, 587}";
}
);
background = {
paths = (
{
closed = 1;
nodes = (
"392 -3 OFFCURVE",
"467 2 OFFCURVE",
"521 2 CURVE SMOOTH",
"576 2 OFFCURVE",
"641 1 OFFCURVE",
"668 -2 CURVE",
"668 53 LINE",
"653 55 OFFCURVE",
"634 57 OFFCURVE",
"621 59 CURVE",
"611 69 OFFCURVE",
"595 85 OFFCURVE",
"548 142 CURVE SMOOTH",
"355 373 LINE",
"356 329 LINE",
"574 524 LINE",
"594 529 OFFCURVE",
"618 532 OFFCURVE",
"642 534 CURVE",
"639 588 LINE",
"614 587 OFFCURVE",
"554 586 OFFCURVE",
"521 586 CURVE SMOOTH",
"488 586 OFFCURVE",
"438 586 OFFCURVE",
"408 587 CURVE",
"407 532 LINE",
"420 532 OFFCURVE",
"454 530 OFFCURVE",
"471 525 CURVE",
"265 314 LINE",
"224 305 LINE",
"224 258 LINE",
"259 258 LINE",
"381 109 LINE SMOOTH",
"398 88 OFFCURVE",
"406 76 OFFCURVE",
"415 60 CURVE",
"402 56 OFFCURVE",
"379 52 OFFCURVE",
"363 50 CURVE",
"366 -5 LINE"
);
},
{
closed = 1;
nodes = (
"68 -2 OFFCURVE",
"119 2 OFFCURVE",
"173 2 CURVE SMOOTH",
"227 2 OFFCURVE",
"274 -2 OFFCURVE",
"297 -5 CURVE",
"300 50 LINE",
"280 53 OFFCURVE",
"256 59 OFFCURVE",
"246 67 CURVE",
"243 75 OFFCURVE",
"241 137 OFFCURVE",
"241 221 CURVE SMOOTH",
"241 366 LINE SMOOTH",
"241 452 OFFCURVE",
"245 514 OFFCURVE",
"248 521 CURVE",
"259 530 OFFCURVE",
"287 536 OFFCURVE",
"313 537 CURVE",
"310 592 LINE",
"280 590 OFFCURVE",
"227 586 OFFCURVE",
"173 586 CURVE SMOOTH",
"119 586 OFFCURVE",
"66 590 OFFCURVE",
"36 592 CURVE",
"33 537 LINE",
"58 536 OFFCURVE",
"86 530 OFFCURVE",
"97 521 CURVE",
"101 514 OFFCURVE",
"104 452 OFFCURVE",
"104 366 CURVE SMOOTH",
"104 221 LINE SMOOTH",
"104 137 OFFCURVE",
"102 75 OFFCURVE",
"99 67 CURVE",
"87 59 OFFCURVE",
"60 54 OFFCURVE",
"36 50 CURVE",
"39 -5 LINE"
);
}
);
};
color = -1;
layerId = "C0B3E82F-C341-4413-A405-AFA97EAADFAC";
paths = (
{
closed = 1;
nodes = (
"395 -3 OFFCURVE",
"467 2 OFFCURVE",
"521 2 CURVE SMOOTH",
"573 2 OFFCURVE",
"638 1 OFFCURVE",
"665 -2 CURVE",
"665 53 LINE",
"650 55 OFFCURVE",
"631 57 OFFCURVE",
"618 59 CURVE",
"608 69 OFFCURVE",
"592 85 OFFCURVE",
"545 142 CURVE SMOOTH",
"352 373 LINE",
"356 329 LINE",
"574 524 LINE",
"594 529 OFFCURVE",
"618 532 OFFCURVE",
"642 534 CURVE",
"639 588 LINE",
"614 587 OFFCURVE",
"554 586 OFFCURVE",
"521 586 CURVE SMOOTH",
"488 586 OFFCURVE",
"438 586 OFFCURVE",
"408 587 CURVE",
"407 532 LINE",
"420 532 OFFCURVE",
"454 530 OFFCURVE",
"471 525 CURVE",
"265 314 LINE",
"224 305 LINE",
"224 258 LINE",
"262 258 LINE",
"384 109 LINE SMOOTH",
"401 88 OFFCURVE",
"409 76 OFFCURVE",
"418 60 CURVE",
"405 56 OFFCURVE",
"382 52 OFFCURVE",
"366 50 CURVE",
"369 -5 LINE"
);
},
{
closed = 1;
nodes = (
"68 -2 OFFCURVE",
"119 2 OFFCURVE",
"173 2 CURVE SMOOTH",
"227 2 OFFCURVE",
"274 -2 OFFCURVE",
"297 -5 CURVE",
"300 50 LINE",
"280 53 OFFCURVE",
"256 59 OFFCURVE",
"246 67 CURVE",
"243 75 OFFCURVE",
"241 137 OFFCURVE",
"241 221 CURVE SMOOTH",
"241 366 LINE SMOOTH",
"241 452 OFFCURVE",
"245 514 OFFCURVE",
"248 521 CURVE",
"259 530 OFFCURVE",
"287 536 OFFCURVE",
"313 537 CURVE",
"310 592 LINE",
"280 590 OFFCURVE",
"227 586 OFFCURVE",
"173 586 CURVE SMOOTH",
"119 586 OFFCURVE",
"66 590 OFFCURVE",
"36 592 CURVE",
"33 537 LINE",
"58 536 OFFCURVE",
"86 530 OFFCURVE",
"97 521 CURVE",
"101 514 OFFCURVE",
"104 452 OFFCURVE",
"104 366 CURVE SMOOTH",
"104 221 LINE SMOOTH",
"104 137 OFFCURVE",
"102 75 OFFCURVE",
"99 67 CURVE",
"87 59 OFFCURVE",
"60 54 OFFCURVE",
"36 50 CURVE",
"39 -5 LINE"
);
}
);
width = 656;
}
);
leftKerningGroup = B;
note = K;
rightKerningGroup = K;
unicode = 004B;
},
{
glyphname = L;
lastChange = "2018-05-31 14:32:51 +0000";
layers = (
{
anchors = (
{
name = bottom;
position = "{281, 0}";
},
{
name = center;
position = "{194, 303}";
},
{
name = dotacc;
position = "{348, 320}";
},
{
name = top;
position = "{158, 587}";
},
{
name = topright;
position = "{367, 587}";
}
);
background = {
anchors = (
{
name = bottom;
position = "{281, 0}";
},
{
name = center;
position = "{194, 303}";
},
{
name = dotacc;
position = "{348, 320}";
},
{
name = top;
position = "{158, 587}";
},
{
name = topright;
position = "{367, 587}";
}
);
paths = (
{
closed = 1;
nodes = (
"510 148 LINE",
"465 158 LINE",
"442 111 OFFCURVE",
"425 76 OFFCURVE",
"413 58 CURVE",
"388 54 OFFCURVE",
"368 54 OFFCURVE",
"341 54 CURVE SMOOTH",
"267 54 LINE SMOOTH",
"238 54 OFFCURVE",
"220 55 OFFCURVE",
"204 57 CURVE",
"203 67 OFFCURVE",
"201 115 OFFCURVE",
"201 199 CURVE SMOOTH",
"201 387 LINE SMOOTH",
"201 496 OFFCURVE",
"204 528 OFFCURVE",
"208 534 CURVE",
"215 539 OFFCURVE",
"248 544 OFFCURVE",
"291 547 CURVE",
"289 589 LINE",
"253 587 OFFCURVE",
"208 586 OFFCURVE",
"170 586 CURVE SMOOTH",
"138 586 OFFCURVE",
"80 587 OFFCURVE",
"49 589 CURVE",
"47 548 LINE",
"71 546 OFFCURVE",
"102 539 OFFCURVE",
"109 534 CURVE",
"112 528 OFFCURVE",
"115 496 OFFCURVE",
"115 387 CURVE SMOOTH",
"115 199 LINE SMOOTH",
"115 91 OFFCURVE",
"112 59 OFFCURVE",
"109 52 CURVE",
"102 48 OFFCURVE",
"71 40 OFFCURVE",
"47 38 CURVE",
"49 -3 LINE",
"80 -1 OFFCURVE",
"128 0 OFFCURVE",
"159 0 CURVE SMOOTH",
"372 0 LINE SMOOTH",
"404 0 OFFCURVE",
"438 -2 OFFCURVE",
"469 -5 CURVE"
);
}
);
};
color = -1;
layerId = "30A8E426-80C1-4FA7-AECB-85F4920FB6F7";
paths = (
{
closed = 1;
nodes = (
"510 148 LINE",
"465 158 LINE",
"447 120 OFFCURVE",
"431 88 OFFCURVE",
"413 60 CURVE",
"388 56 OFFCURVE",
"368 56 OFFCURVE",
"341 56 CURVE SMOOTH",
"267 56 LINE SMOOTH",
"238 56 OFFCURVE",
"220 57 OFFCURVE",
"204 59 CURVE",
"203 69 OFFCURVE",
"201 115 OFFCURVE",
"201 199 CURVE SMOOTH",
"201 387 LINE SMOOTH",
"201 496 OFFCURVE",
"204 528 OFFCURVE",
"208 534 CURVE",
"215 539 OFFCURVE",
"248 544 OFFCURVE",
"291 547 CURVE",
"289 589 LINE",
"253 587 OFFCURVE",
"208 586 OFFCURVE",
"170 586 CURVE SMOOTH",
"138 586 OFFCURVE",
"80 587 OFFCURVE",
"49 589 CURVE",
"47 548 LINE",
"71 546 OFFCURVE",
"102 539 OFFCURVE",
"109 534 CURVE",
"112 528 OFFCURVE",
"115 496 OFFCURVE",
"115 387 CURVE SMOOTH",
"115 199 LINE SMOOTH",
"115 91 OFFCURVE",
"112 59 OFFCURVE",
"109 52 CURVE",
"102 48 OFFCURVE",
"71 40 OFFCURVE",
"47 38 CURVE",
"49 -3 LINE",
"80 -1 OFFCURVE",
"128 0 OFFCURVE",
"159 0 CURVE SMOOTH",
"372 0 LINE SMOOTH",
"404 0 OFFCURVE",
"438 -2 OFFCURVE",
"469 -5 CURVE"
);
}
);
width = 514;
},
{
anchors = (
{
name = bottom;
position = "{299, 0}";
},
{
name = center;
position = "{203, 303}";
},
{
name = dotacc;
position = "{389, 320}";
},
{
name = top;
position = "{174, 587}";
},
{
name = topright;
position = "{383, 587}";
}
);
background = {
anchors = (
{
name = bottom;
position = "{299, 0}";
},
{
name = center;
position = "{203, 303}";
},
{
name = dotacc;
position = "{389, 320}";
},
{
name = top;
position = "{174, 587}";
},
{
name = topright;
position = "{383, 587}";
}
);
paths = (
{
closed = 1;
nodes = (
"549 174 LINE",
"487 189 LINE",
"466 148 OFFCURVE",
"450 111 OFFCURVE",
"431 81 CURVE",
"417 78 OFFCURVE",
"410 75 OFFCURVE",
"360 75 CURVE SMOOTH",
"333 75 LINE SMOOTH",
"293 75 OFFCURVE",
"270 76 OFFCURVE",
"247 79 CURVE",
"245 95 OFFCURVE",
"243 137 OFFCURVE",
"243 221 CURVE SMOOTH",
"243 366 LINE SMOOTH",
"243 451 OFFCURVE",
"246 512 OFFCURVE",
"250 519 CURVE",
"261 528 OFFCURVE",
"287 533 OFFCURVE",
"338 536 CURVE",
"335 592 LINE",
"274 589 OFFCURVE",
"239 586 OFFCURVE",
"186 586 CURVE SMOOTH",
"143 586 OFFCURVE",
"67 589 OFFCURVE",
"37 591 CURVE",
"34 536 LINE",
"60 535 OFFCURVE",
"88 529 OFFCURVE",
"99 520 CURVE",
"102 513 OFFCURVE",
"106 451 OFFCURVE",
"106 366 CURVE SMOOTH",
"106 221 LINE SMOOTH",
"106 137 OFFCURVE",
"102 75 OFFCURVE",
"99 67 CURVE",
"88 59 OFFCURVE",
"60 54 OFFCURVE",
"34 50 CURVE",
"37 -5 LINE",
"67 -2 OFFCURVE",
"131 0 OFFCURVE",
"174 0 CURVE SMOOTH",
"341 0 LINE SMOOTH",
"383 0 OFFCURVE",
"465 -4 OFFCURVE",
"500 -7 CURVE"
);
}
);
};
color = -1;
layerId = "C0B3E82F-C341-4413-A405-AFA97EAADFAC";
paths = (
{
closed = 1;
nodes = (
"549 174 LINE",
"487 189 LINE",
"466 148 OFFCURVE",
"450 110 OFFCURVE",
"431 80 CURVE",
"417 77 OFFCURVE",
"410 74 OFFCURVE",
"360 74 CURVE SMOOTH",
"333 74 LINE SMOOTH",
"294 74 OFFCURVE",
"271 75 OFFCURVE",
"248 78 CURVE",
"246 94 OFFCURVE",
"244 137 OFFCURVE",
"244 221 CURVE SMOOTH",
"244 366 LINE SMOOTH",
"244 451 OFFCURVE",
"247 512 OFFCURVE",
"251 519 CURVE",
"262 528 OFFCURVE",
"288 533 OFFCURVE",
"339 536 CURVE",
"336 592 LINE",
"275 589 OFFCURVE",
"240 586 OFFCURVE",
"187 586 CURVE SMOOTH",
"144 586 OFFCURVE",
"67 589 OFFCURVE",
"37 591 CURVE",
"34 536 LINE",
"60 535 OFFCURVE",
"88 529 OFFCURVE",
"99 520 CURVE",
"102 513 OFFCURVE",
"106 451 OFFCURVE",
"106 366 CURVE SMOOTH",
"106 221 LINE SMOOTH",
"106 137 OFFCURVE",
"102 75 OFFCURVE",
"99 67 CURVE",
"88 59 OFFCURVE",
"60 54 OFFCURVE",
"34 50 CURVE",
"37 -5 LINE",
"67 -2 OFFCURVE",
"131 0 OFFCURVE",
"174 0 CURVE SMOOTH",
"341 0 LINE SMOOTH",
"383 0 OFFCURVE",
"465 -4 OFFCURVE",
"500 -7 CURVE"
);
}
);
width = 553;
}
);
leftKerningGroup = B;
note = L;
rightKerningGroup = L;
unicode = 004C;
},
{
glyphname = M;
lastChange = "2018-05-31 14:32:51 +0000";
layers = (
{
anchors = (
{
name = bottom;
position = "{413, 0}";
},
{
name = top;
position = "{413, 587}";
}
);
background = {
anchors = (
{
name = bottom;
position = "{1213, 0}";
},
{
name = top;
position = "{1213, 587}";
}
);
paths = (
{
closed = 1;
nodes = (
"861 548 LINE",
"886 547 OFFCURVE",
"919 539 OFFCURVE",
"927 534 CURVE",
"928 520 OFFCURVE",
"928 493 OFFCURVE",
"924 401 CURVE SMOOTH",
"917 253 LINE SMOOTH",
"912 142 OFFCURVE",
"908 65 OFFCURVE",
"904 52 CURVE",
"897 48 OFFCURVE",
"866 40 OFFCURVE",
"840 39 CURVE",
"842 -3 LINE",
"876 -1 OFFCURVE",
"908 1 OFFCURVE",
"935 1 CURVE SMOOTH",
"960 1 OFFCURVE",
"996 -1 OFFCURVE",
"1029 -3 CURVE",
"1031 39 LINE",
"1006 40 OFFCURVE",
"974 48 OFFCURVE",
"967 52 CURVE",
"965 66 OFFCURVE",
"965 148 OFFCURVE",
"971 269 CURVE SMOOTH",
"985 558 LINE",
"961 558 LINE",
"1192 -3 LINE",
"1227 -3 LINE",
"1443 558 LINE",
"1426 558 LINE",
"1451 203 LINE SMOOTH",
"1458 106 OFFCURVE",
"1458 66 OFFCURVE",
"1458 52 CURVE",
"1451 48 OFFCURVE",
"1420 40 OFFCURVE",
"1397 38 CURVE",
"1399 -3 LINE",
"1429 -1 OFFCURVE",
"1478 2 OFFCURVE",
"1505 2 CURVE SMOOTH",
"1533 2 OFFCURVE",
"1583 -1 OFFCURVE",
"1614 -3 CURVE",
"1616 38 LINE",
"1593 40 OFFCURVE",
"1561 48 OFFCURVE",
"1554 52 CURVE",
"1551 72 OFFCURVE",
"1547 118 OFFCURVE",
"1540 218 CURVE SMOOTH",
"1528 401 LINE SMOOTH",
"1522 493 OFFCURVE",
"1519 528 OFFCURVE",
"1520 534 CURVE",
"1527 539 OFFCURVE",
"1560 547 OFFCURVE",
"1585 548 CURVE",
"1583 588 LINE",
"1554 587 OFFCURVE",
"1517 586 OFFCURVE",
"1490 586 CURVE SMOOTH",
"1462 586 OFFCURVE",
"1427 587 OFFCURVE",
"1400 588 CURVE",
"1215 109 LINE",
"1238 109 LINE",
"1046 588 LINE",
"1019 587 OFFCURVE",
"984 586 OFFCURVE",
"957 586 CURVE SMOOTH",
"929 586 OFFCURVE",
"892 587 OFFCURVE",
"863 588 CURVE"
);
},
{
closed = 1;
nodes = (
"518 146 LINE",
"181 588 LINE",
"164 587 OFFCURVE",
"137 586 OFFCURVE",
"115 586 CURVE SMOOTH",
"93 586 OFFCURVE",
"73 586 OFFCURVE",
"42 588 CURVE",
"40 546 LINE",
"63 547 OFFCURVE",
"94 539 OFFCURVE",
"101 534 CURVE",
"105 522 OFFCURVE",
"108 496 OFFCURVE",
"108 394 CURVE SMOOTH",
"108 223 LINE SMOOTH",
"108 103 OFFCURVE",
"104 59 OFFCURVE",
"101 52 CURVE",
"94 48 OFFCURVE",
"62 40 OFFCURVE",
"36 38 CURVE",
"38 -3 LINE",
"71 -1 OFFCURVE",
"105 2 OFFCURVE",
"132 2 CURVE SMOOTH",
"160 2 OFFCURVE",
"202 -1 OFFCURVE",
"236 -3 CURVE",
"238 38 LINE",
"212 40 OFFCURVE",
"179 48 OFFCURVE",
"173 52 CURVE",
"169 59 OFFCURVE",
"165 103 OFFCURVE",
"165 223 CURVE SMOOTH",
"165 488 LINE",
"143 488 LINE",
"512 -4 LINE",
"556 -4 LINE",
"556 43 OFFCURVE",
"555 87 OFFCURVE",
"555 129 CURVE SMOOTH",
"555 367 LINE SMOOTH",
"555 484 OFFCURVE",
"559 529 OFFCURVE",
"562 535 CURVE",
"569 540 OFFCURVE",
"602 547 OFFCURVE",
"627 548 CURVE",
"625 589 LINE",
"592 587 OFFCURVE",
"559 586 OFFCURVE",
"531 586 CURVE SMOOTH",
"504 586 OFFCURVE",
"463 587 OFFCURVE",
"430 589 CURVE",
"428 548 LINE",
"454 547 OFFCURVE",
"486 540 OFFCURVE",
"493 535 CURVE",
"496 529 OFFCURVE",
"500 484 OFFCURVE",
"500 367 CURVE SMOOTH",
"500 146 LINE"
);
}
);
};
color = -1;
layerId = "30A8E426-80C1-4FA7-AECB-85F4920FB6F7";
paths = (
{
closed = 1;
nodes = (
"50 547 LINE",
"74 546 OFFCURVE",
"107 539 OFFCURVE",
"115 534 CURVE",
"116 520 OFFCURVE",
"117 493 OFFCURVE",
"116 401 CURVE SMOOTH",
"113 203 LINE SMOOTH",
"112 122 OFFCURVE",
"111 65 OFFCURVE",
"108 52 CURVE",
"101 48 OFFCURVE",
"70 40 OFFCURVE",
"44 39 CURVE",
"46 -3 LINE",
"79 -1 OFFCURVE",
"111 1 OFFCURVE",
"142 1 CURVE SMOOTH",
"167 1 OFFCURVE",
"204 -1 OFFCURVE",
"237 -3 CURVE",
"239 39 LINE",
"213 40 OFFCURVE",
"182 48 OFFCURVE",
"175 52 CURVE",
"172 66 OFFCURVE",
"172 128 OFFCURVE",
"172 219 CURVE SMOOTH",
"171 558 LINE",
"147 558 LINE",
"393 -3 LINE",
"428 -3 LINE",
"670 558 LINE",
"644 558 LINE",
"647 203 LINE SMOOTH",
"648 106 OFFCURVE",
"648 66 OFFCURVE",
"646 52 CURVE",
"639 48 OFFCURVE",
"608 40 OFFCURVE",
"584 38 CURVE",
"586 -3 LINE",
"617 -1 OFFCURVE",
"664 2 OFFCURVE",
"691 2 CURVE SMOOTH",
"721 2 OFFCURVE",
"769 -1 OFFCURVE",
"801 -3 CURVE",
"803 38 LINE",
"780 40 OFFCURVE",
"749 48 OFFCURVE",
"742 52 CURVE",
"739 72 OFFCURVE",
"740 118 OFFCURVE",
"737 218 CURVE SMOOTH",
"731 401 LINE SMOOTH",
"728 493 OFFCURVE",
"730 528 OFFCURVE",
"731 535 CURVE",
"739 539 OFFCURVE",
"769 546 OFFCURVE",
"796 547 CURVE",
"794 588 LINE",
"764 587 OFFCURVE",
"729 586 OFFCURVE",
"704 586 CURVE SMOOTH",
"680 586 OFFCURVE",
"654 587 OFFCURVE",
"628 588 CURVE",
"421 109 LINE",
"439 109 LINE",
"230 588 LINE",
"203 587 OFFCURVE",
"168 586 OFFCURVE",
"142 586 CURVE SMOOTH",
"109 586 OFFCURVE",
"80 587 OFFCURVE",
"52 588 CURVE"
);
}
);
width = 851;
},
{
anchors = (
{
name = bottom;
position = "{417, 0}";
},
{
name = top;
position = "{417, 587}";
}
);
background = {
paths = (
{
closed = 1;
nodes = (
"44 534 LINE",
"71 532 OFFCURVE",
"100 529 OFFCURVE",
"111 520 CURVE",
"111 513 OFFCURVE",
"112 486 OFFCURVE",
"109 394 CURVE SMOOTH",
"103 203 LINE SMOOTH",
"101 129 OFFCURVE",
"97 75 OFFCURVE",
"95 67 CURVE",
"84 59 OFFCURVE",
"52 55 OFFCURVE",
"25 51 CURVE",
"28 -4 LINE",
"60 -1 OFFCURVE",
"104 1 OFFCURVE",
"132 1 CURVE SMOOTH",
"161 1 OFFCURVE",
"215 -1 OFFCURVE",
"247 -4 CURVE",
"250 51 LINE",
"222 55 OFFCURVE",
"193 59 OFFCURVE",
"182 67 CURVE",
"180 75 OFFCURVE",
"180 129 OFFCURVE",
"181 213 CURVE SMOOTH",
"187 558 LINE",
"123 558 LINE",
"383 -3 LINE",
"447 -3 LINE",
"681 558 LINE",
"637 558 LINE",
"647 221 LINE SMOOTH",
"649 137 OFFCURVE",
"649 75 OFFCURVE",
"646 67 CURVE",
"633 59 OFFCURVE",
"609 54 OFFCURVE",
"584 50 CURVE",
"587 -5 LINE",
"617 -2 OFFCURVE",
"666 2 OFFCURVE",
"717 2 CURVE SMOOTH",
"768 2 OFFCURVE",
"830 -2 OFFCURVE",
"861 -5 CURVE",
"864 50 LINE",
"838 54 OFFCURVE",
"810 59 OFFCURVE",
"800 67 CURVE",
"797 75 OFFCURVE",
"791 150 OFFCURVE",
"787 221 CURVE SMOOTH",
"777 396 LINE SMOOTH",
"774 451 OFFCURVE",
"771 509 OFFCURVE",
"775 523 CURVE",
"787 529 OFFCURVE",
"815 534 OFFCURVE",
"842 536 CURVE",
"839 591 LINE",
"807 589 OFFCURVE",
"756 586 OFFCURVE",
"706 586 CURVE SMOOTH",
"678 586 OFFCURVE",
"642 587 OFFCURVE",
"615 588 CURVE",
"434 145 LINE",
"464 145 LINE",
"263 588 LINE",
"237 587 OFFCURVE",
"179 586 OFFCURVE",
"152 586 CURVE SMOOTH",
"126 586 OFFCURVE",
"81 588 OFFCURVE",
"47 589 CURVE"
);
}
);
};
color = -1;
layerId = "C0B3E82F-C341-4413-A405-AFA97EAADFAC";
paths = (
{
closed = 1;
nodes = (
"40 534 LINE",
"67 532 OFFCURVE",
"96 529 OFFCURVE",
"107 520 CURVE",
"107 513 OFFCURVE",
"108 486 OFFCURVE",
"107 394 CURVE SMOOTH",
"105 203 LINE SMOOTH",
"104 129 OFFCURVE",
"101 75 OFFCURVE",
"99 67 CURVE",
"88 59 OFFCURVE",
"56 55 OFFCURVE",
"29 51 CURVE",
"32 -4 LINE",
"64 -1 OFFCURVE",
"108 1 OFFCURVE",
"136 1 CURVE SMOOTH",
"165 1 OFFCURVE",
"219 -1 OFFCURVE",
"251 -4 CURVE",
"254 51 LINE",
"226 55 OFFCURVE",
"197 59 OFFCURVE",
"186 67 CURVE",
"183 75 OFFCURVE",
"183 129 OFFCURVE",
"183 213 CURVE SMOOTH",
"182 558 LINE",
"118 558 LINE",
"386 -3 LINE",
"450 -3 LINE",
"688 558 LINE",
"641 558 LINE",
"645 221 LINE SMOOTH",
"646 137 OFFCURVE",
"645 75 OFFCURVE",
"642 67 CURVE",
"629 59 OFFCURVE",
"605 54 OFFCURVE",
"580 50 CURVE",
"583 -5 LINE",
"613 -2 OFFCURVE",
"662 2 OFFCURVE",
"713 2 CURVE SMOOTH",
"764 2 OFFCURVE",
"826 -2 OFFCURVE",
"857 -5 CURVE",
"860 50 LINE",
"834 54 OFFCURVE",
"806 59 OFFCURVE",
"796 67 CURVE",
"793 75 OFFCURVE",
"789 150 OFFCURVE",
"786 221 CURVE SMOOTH",
"779 396 LINE SMOOTH",
"777 451 OFFCURVE",
"775 509 OFFCURVE",
"779 523 CURVE",
"791 529 OFFCURVE",
"819 534 OFFCURVE",
"846 536 CURVE",
"844 591 LINE",
"812 589 OFFCURVE",
"761 586 OFFCURVE",
"718 586 CURVE SMOOTH",
"689 586 OFFCURVE",
"653 587 OFFCURVE",
"626 588 CURVE",
"437 145 LINE",
"467 145 LINE",
"258 588 LINE",
"232 587 OFFCURVE",
"174 586 OFFCURVE",
"147 586 CURVE SMOOTH",
"121 586 OFFCURVE",
"76 588 OFFCURVE",
"42 589 CURVE"
);
}
);
width = 892;
}
);
leftKerningGroup = M;
note = M;
rightKerningGroup = M;
unicode = 004D;
},
{
glyphname = N;
lastChange = "2018-05-31 14:32:51 +0000";
layers = (
{
anchors = (
{
name = bottom;
position = "{337, 0}";
},
{
name = top;
position = "{337, 587}";
}
);
background = {
anchors = (
{
name = bottom;
position = "{336, 0}";
},
{
name = top;
position = "{336, 587}";
}
);
paths = (
{
closed = 1;
nodes = (
"521 146 LINE",
"186 588 LINE",
"169 587 OFFCURVE",
"142 586 OFFCURVE",
"120 586 CURVE SMOOTH",
"98 586 OFFCURVE",
"78 586 OFFCURVE",
"47 588 CURVE",
"45 546 LINE",
"68 547 OFFCURVE",
"99 539 OFFCURVE",
"106 534 CURVE",
"110 522 OFFCURVE",
"113 496 OFFCURVE",
"113 394 CURVE SMOOTH",
"113 223 LINE SMOOTH",
"113 103 OFFCURVE",
"109 59 OFFCURVE",
"106 52 CURVE",
"99 48 OFFCURVE",
"67 40 OFFCURVE",
"41 38 CURVE",
"43 -3 LINE",
"76 -1 OFFCURVE",
"110 2 OFFCURVE",
"137 2 CURVE SMOOTH",
"165 2 OFFCURVE",
"207 -1 OFFCURVE",
"241 -3 CURVE",
"243 38 LINE",
"217 40 OFFCURVE",
"184 48 OFFCURVE",
"178 52 CURVE",
"174 59 OFFCURVE",
"170 103 OFFCURVE",
"170 223 CURVE SMOOTH",
"170 488 LINE",
"148 488 LINE",
"515 -4 LINE",
"559 -4 LINE",
"559 43 OFFCURVE",
"558 87 OFFCURVE",
"558 129 CURVE SMOOTH",
"558 367 LINE SMOOTH",
"558 484 OFFCURVE",
"562 529 OFFCURVE",
"565 535 CURVE",
"572 540 OFFCURVE",
"605 547 OFFCURVE",
"630 548 CURVE",
"628 589 LINE",
"595 587 OFFCURVE",
"562 586 OFFCURVE",
"534 586 CURVE SMOOTH",
"507 586 OFFCURVE",
"466 587 OFFCURVE",
"433 589 CURVE",
"431 548 LINE",
"457 547 OFFCURVE",
"489 540 OFFCURVE",
"496 535 CURVE",
"499 529 OFFCURVE",
"503 484 OFFCURVE",
"503 367 CURVE SMOOTH",
"503 146 LINE"
);
}
);
};
color = -1;
layerId = "30A8E426-80C1-4FA7-AECB-85F4920FB6F7";
paths = (
{
closed = 1;
nodes = (
"523 146 LINE",
"186 588 LINE",
"169 587 OFFCURVE",
"142 586 OFFCURVE",
"120 586 CURVE SMOOTH",
"98 586 OFFCURVE",
"78 586 OFFCURVE",
"47 588 CURVE",
"45 547 LINE",
"68 548 OFFCURVE",
"99 539 OFFCURVE",
"106 534 CURVE",
"110 522 OFFCURVE",
"113 496 OFFCURVE",
"113 394 CURVE SMOOTH",
"113 223 LINE SMOOTH",
"113 103 OFFCURVE",
"109 59 OFFCURVE",
"106 52 CURVE",
"99 48 OFFCURVE",
"67 40 OFFCURVE",
"41 38 CURVE",
"43 -3 LINE",
"76 -1 OFFCURVE",
"110 1 OFFCURVE",
"137 1 CURVE SMOOTH",
"165 1 OFFCURVE",
"207 -1 OFFCURVE",
"241 -3 CURVE",
"243 38 LINE",
"217 40 OFFCURVE",
"184 48 OFFCURVE",
"178 52 CURVE",
"174 59 OFFCURVE",
"170 103 OFFCURVE",
"170 223 CURVE SMOOTH",
"170 488 LINE",
"148 488 LINE",
"517 -4 LINE",
"561 -4 LINE",
"561 43 OFFCURVE",
"560 87 OFFCURVE",
"560 129 CURVE SMOOTH",
"560 367 LINE SMOOTH",
"560 484 OFFCURVE",
"564 529 OFFCURVE",
"567 535 CURVE",
"574 540 OFFCURVE",
"607 547 OFFCURVE",
"632 548 CURVE",
"630 589 LINE",
"597 587 OFFCURVE",
"564 586 OFFCURVE",
"536 586 CURVE SMOOTH",
"509 586 OFFCURVE",
"468 587 OFFCURVE",
"435 589 CURVE",
"433 548 LINE",
"459 547 OFFCURVE",
"491 540 OFFCURVE",
"498 535 CURVE",
"501 529 OFFCURVE",
"505 484 OFFCURVE",
"505 367 CURVE SMOOTH",
"505 146 LINE"
);
}
);
width = 673;
},
{
anchors = (
{
name = bottom;
position = "{347, 0}";
},
{
name = top;
position = "{347, 587}";
}
);
background = {
paths = (
{
closed = 1;
nodes = (
"557 187 LINE",
"196 588 LINE",
"180 587 OFFCURVE",
"143 587 OFFCURVE",
"121 587 CURVE SMOOTH",
"98 587 OFFCURVE",
"67 588 OFFCURVE",
"36 591 CURVE",
"33 536 LINE",
"58 535 OFFCURVE",
"86 529 OFFCURVE",
"97 520 CURVE",
"100 517 OFFCURVE",
"104 451 OFFCURVE",
"104 394 CURVE SMOOTH",
"104 263 LINE SMOOTH",
"104 129 OFFCURVE",
"100 75 OFFCURVE",
"97 67 CURVE",
"86 59 OFFCURVE",
"56 54 OFFCURVE",
"28 50 CURVE",
"31 -5 LINE",
"64 -2 OFFCURVE",
"110 2 OFFCURVE",
"139 2 CURVE SMOOTH",
"168 2 OFFCURVE",
"222 -2 OFFCURVE",
"254 -5 CURVE",
"257 50 LINE",
"229 54 OFFCURVE",
"200 59 OFFCURVE",
"189 67 CURVE",
"185 75 OFFCURVE",
"179 129 OFFCURVE",
"181 263 CURVE SMOOTH",
"182 459 LINE",
"126 459 LINE",
"528 -5 LINE",
"589 -5 LINE",
"589 42 OFFCURVE",
"589 86 OFFCURVE",
"589 148 CURVE SMOOTH",
"589 337 LINE SMOOTH",
"589 458 OFFCURVE",
"592 513 OFFCURVE",
"596 520 CURVE",
"607 529 OFFCURVE",
"636 533 OFFCURVE",
"664 536 CURVE",
"661 591 LINE",
"628 588 OFFCURVE",
"589 587 OFFCURVE",
"557 587 CURVE SMOOTH",
"527 587 OFFCURVE",
"476 588 OFFCURVE",
"443 591 CURVE",
"440 536 LINE",
"468 533 OFFCURVE",
"498 529 OFFCURVE",
"509 520 CURVE",
"512 513 OFFCURVE",
"516 458 OFFCURVE",
"516 337 CURVE SMOOTH",
"516 187 LINE"
);
}
);
};
color = -1;
layerId = "C0B3E82F-C341-4413-A405-AFA97EAADFAC";
paths = (
{
closed = 1;
nodes = (
"559 187 LINE",
"196 588 LINE",
"180 587 OFFCURVE",
"143 587 OFFCURVE",
"121 587 CURVE SMOOTH",
"98 587 OFFCURVE",
"67 588 OFFCURVE",
"36 591 CURVE",
"33 536 LINE",
"58 535 OFFCURVE",
"86 529 OFFCURVE",
"97 520 CURVE",
"100 517 OFFCURVE",
"104 451 OFFCURVE",
"104 394 CURVE SMOOTH",
"104 263 LINE SMOOTH",
"104 129 OFFCURVE",
"100 75 OFFCURVE",
"97 67 CURVE",
"86 59 OFFCURVE",
"56 54 OFFCURVE",
"28 50 CURVE",
"31 -5 LINE",
"64 -2 OFFCURVE",
"110 1 OFFCURVE",
"139 1 CURVE SMOOTH",
"168 1 OFFCURVE",
"222 -2 OFFCURVE",
"254 -5 CURVE",
"257 50 LINE",
"229 54 OFFCURVE",
"200 59 OFFCURVE",
"189 67 CURVE",
"185 75 OFFCURVE",
"179 129 OFFCURVE",
"181 263 CURVE SMOOTH",
"182 459 LINE",
"126 459 LINE",
"530 -5 LINE",
"591 -5 LINE",
"591 42 OFFCURVE",
"591 86 OFFCURVE",
"591 148 CURVE SMOOTH",
"591 337 LINE SMOOTH",
"591 458 OFFCURVE",
"594 513 OFFCURVE",
"598 520 CURVE",
"609 529 OFFCURVE",
"638 533 OFFCURVE",
"666 536 CURVE",
"663 591 LINE",
"630 588 OFFCURVE",
"591 587 OFFCURVE",
"559 587 CURVE SMOOTH",
"529 587 OFFCURVE",
"478 588 OFFCURVE",
"445 591 CURVE",
"442 536 LINE",
"470 533 OFFCURVE",
"500 529 OFFCURVE",
"511 520 CURVE",
"514 513 OFFCURVE",
"518 458 OFFCURVE",
"518 337 CURVE SMOOTH",
"518 187 LINE"
);
}
);
width = 695;
}
);
leftKerningGroup = N;
note = N;
rightKerningGroup = N;
unicode = 004E;
},
{
glyphname = Eng;
lastChange = "2018-05-31 14:32:51 +0000";
layers = (
{
background = {
paths = (
{
closed = 1;
nodes = (
"1197 -228 OFFCURVE",
"1258 -148 OFFCURVE",
"1258 16 CURVE SMOOTH",
"1258 367 LINE SMOOTH",
"1258 484 OFFCURVE",
"1262 529 OFFCURVE",
"1265 535 CURVE",
"1272 540 OFFCURVE",
"1305 547 OFFCURVE",
"1330 548 CURVE",
"1328 589 LINE",
"1295 587 OFFCURVE",
"1262 586 OFFCURVE",
"1234 586 CURVE SMOOTH",
"1207 586 OFFCURVE",
"1166 587 OFFCURVE",
"1133 589 CURVE",
"1131 548 LINE",
"1157 547 OFFCURVE",
"1189 540 OFFCURVE",
"1196 535 CURVE",
"1199 529 OFFCURVE",
"1203 484 OFFCURVE",
"1203 367 CURVE SMOOTH",
"1203 146 LINE",
"1221 146 LINE",
"886 588 LINE",
"869 587 OFFCURVE",
"842 586 OFFCURVE",
"820 586 CURVE SMOOTH",
"798 586 OFFCURVE",
"778 586 OFFCURVE",
"747 588 CURVE",
"745 546 LINE",
"768 547 OFFCURVE",
"799 539 OFFCURVE",
"806 534 CURVE",
"810 522 OFFCURVE",
"813 496 OFFCURVE",
"813 394 CURVE SMOOTH",
"813 223 LINE SMOOTH",
"813 103 OFFCURVE",
"809 59 OFFCURVE",
"806 52 CURVE",
"799 48 OFFCURVE",
"767 40 OFFCURVE",
"741 38 CURVE",
"743 -3 LINE",
"776 -1 OFFCURVE",
"810 2 OFFCURVE",
"837 2 CURVE SMOOTH",
"865 2 OFFCURVE",
"907 -1 OFFCURVE",
"941 -3 CURVE",
"943 38 LINE",
"917 40 OFFCURVE",
"884 48 OFFCURVE",
"878 52 CURVE",
"874 59 OFFCURVE",
"870 103 OFFCURVE",
"870 223 CURVE SMOOTH",
"870 488 LINE",
"848 488 LINE",
"1215 -4 LINE",
"1201 55 LINE",
"1201 -22 LINE SMOOTH",
"1201 -143 OFFCURVE",
"1145 -192 OFFCURVE",
"1091 -183 CURVE",
"1135 -196 LINE",
"1080 -143 LINE SMOOTH",
"1061 -125 OFFCURVE",
"1044 -116 OFFCURVE",
"1025 -116 CURVE SMOOTH",
"1000 -116 OFFCURVE",
"984 -130 OFFCURVE",
"984 -153 CURVE SMOOTH",
"984 -192 OFFCURVE",
"1041 -228 OFFCURVE",
"1101 -228 CURVE SMOOTH"
);
},
{
closed = 1;
nodes = (
"523 146 LINE",
"186 588 LINE",
"169 587 OFFCURVE",
"142 586 OFFCURVE",
"120 586 CURVE SMOOTH",
"98 586 OFFCURVE",
"78 586 OFFCURVE",
"47 588 CURVE",
"45 546 LINE",
"68 547 OFFCURVE",
"99 539 OFFCURVE",
"106 534 CURVE",
"110 522 OFFCURVE",
"113 496 OFFCURVE",
"113 394 CURVE SMOOTH",
"113 223 LINE SMOOTH",
"113 103 OFFCURVE",
"109 59 OFFCURVE",
"106 52 CURVE",
"99 48 OFFCURVE",
"67 40 OFFCURVE",
"41 38 CURVE",
"43 -3 LINE",
"76 -1 OFFCURVE",
"110 1 OFFCURVE",
"137 1 CURVE SMOOTH",
"165 1 OFFCURVE",
"207 -1 OFFCURVE",
"241 -3 CURVE",
"243 38 LINE",
"217 40 OFFCURVE",
"184 48 OFFCURVE",
"178 52 CURVE",
"174 59 OFFCURVE",
"170 103 OFFCURVE",
"170 223 CURVE SMOOTH",
"170 488 LINE",
"148 488 LINE",
"517 -4 LINE",
"561 -4 LINE",
"561 43 OFFCURVE",
"560 87 OFFCURVE",
"560 129 CURVE SMOOTH",
"560 367 LINE SMOOTH",
"560 484 OFFCURVE",
"564 529 OFFCURVE",
"567 535 CURVE",
"574 540 OFFCURVE",
"607 547 OFFCURVE",
"632 548 CURVE",
"630 589 LINE",
"597 587 OFFCURVE",
"564 586 OFFCURVE",
"536 586 CURVE SMOOTH",
"509 586 OFFCURVE",
"468 587 OFFCURVE",
"435 589 CURVE",
"433 548 LINE",
"459 547 OFFCURVE",
"491 540 OFFCURVE",
"498 535 CURVE",
"501 529 OFFCURVE",
"505 484 OFFCURVE",
"505 367 CURVE SMOOTH",
"505 146 LINE"
);
}
);
};
color = -1;
layerId = "30A8E426-80C1-4FA7-AECB-85F4920FB6F7";
paths = (
{
closed = 1;
nodes = (
"499 -228 OFFCURVE",
"560 -148 OFFCURVE",
"560 16 CURVE SMOOTH",
"560 367 LINE SMOOTH",
"560 484 OFFCURVE",
"564 529 OFFCURVE",
"567 535 CURVE",
"574 540 OFFCURVE",
"607 547 OFFCURVE",
"632 548 CURVE",
"630 589 LINE",
"597 587 OFFCURVE",
"564 586 OFFCURVE",
"536 586 CURVE SMOOTH",
"509 586 OFFCURVE",
"468 587 OFFCURVE",
"435 589 CURVE",
"433 548 LINE",
"459 547 OFFCURVE",
"491 540 OFFCURVE",
"498 535 CURVE",
"501 529 OFFCURVE",
"505 484 OFFCURVE",
"505 367 CURVE SMOOTH",
"505 146 LINE",
"523 146 LINE",
"186 588 LINE",
"169 587 OFFCURVE",
"142 586 OFFCURVE",
"120 586 CURVE SMOOTH",
"98 586 OFFCURVE",
"78 586 OFFCURVE",
"47 588 CURVE",
"45 547 LINE",
"68 548 OFFCURVE",
"99 539 OFFCURVE",
"106 534 CURVE",
"110 522 OFFCURVE",
"113 496 OFFCURVE",
"113 394 CURVE SMOOTH",
"113 223 LINE SMOOTH",
"113 103 OFFCURVE",
"109 59 OFFCURVE",
"106 52 CURVE",
"99 48 OFFCURVE",
"67 40 OFFCURVE",
"41 38 CURVE",
"43 -3 LINE",
"76 -1 OFFCURVE",
"110 2 OFFCURVE",
"137 2 CURVE SMOOTH",
"165 2 OFFCURVE",
"207 -1 OFFCURVE",
"241 -3 CURVE",
"243 38 LINE",
"217 40 OFFCURVE",
"184 48 OFFCURVE",
"178 52 CURVE",
"174 59 OFFCURVE",
"170 103 OFFCURVE",
"170 223 CURVE SMOOTH",
"170 488 LINE",
"148 488 LINE",
"517 -4 LINE",
"503 55 LINE",
"503 -22 LINE SMOOTH",
"503 -143 OFFCURVE",
"447 -192 OFFCURVE",
"393 -183 CURVE",
"437 -196 LINE",
"382 -143 LINE SMOOTH",
"363 -125 OFFCURVE",
"346 -116 OFFCURVE",
"327 -116 CURVE SMOOTH",
"302 -116 OFFCURVE",
"286 -130 OFFCURVE",
"286 -153 CURVE SMOOTH",
"286 -192 OFFCURVE",
"343 -228 OFFCURVE",
"403 -228 CURVE SMOOTH"
);
}
);
width = 673;
},
{
background = {
paths = (
{
closed = 1;
nodes = (
"1329 -228 OFFCURVE",
"1389 -147 OFFCURVE",
"1389 22 CURVE SMOOTH",
"1389 337 LINE SMOOTH",
"1389 458 OFFCURVE",
"1392 513 OFFCURVE",
"1396 520 CURVE",
"1407 529 OFFCURVE",
"1436 533 OFFCURVE",
"1464 536 CURVE",
"1461 591 LINE",
"1428 588 OFFCURVE",
"1389 587 OFFCURVE",
"1357 587 CURVE SMOOTH",
"1327 587 OFFCURVE",
"1276 588 OFFCURVE",
"1243 591 CURVE",
"1240 536 LINE",
"1268 533 OFFCURVE",
"1298 529 OFFCURVE",
"1309 520 CURVE",
"1312 513 OFFCURVE",
"1316 458 OFFCURVE",
"1316 337 CURVE SMOOTH",
"1316 187 LINE",
"1357 187 LINE",
"996 588 LINE",
"980 587 OFFCURVE",
"943 587 OFFCURVE",
"921 587 CURVE SMOOTH",
"898 587 OFFCURVE",
"867 588 OFFCURVE",
"836 591 CURVE",
"833 536 LINE",
"858 535 OFFCURVE",
"886 529 OFFCURVE",
"897 520 CURVE",
"900 517 OFFCURVE",
"904 451 OFFCURVE",
"904 394 CURVE SMOOTH",
"904 263 LINE SMOOTH",
"904 129 OFFCURVE",
"900 75 OFFCURVE",
"897 67 CURVE",
"886 59 OFFCURVE",
"856 54 OFFCURVE",
"828 50 CURVE",
"831 -5 LINE",
"864 -2 OFFCURVE",
"910 2 OFFCURVE",
"939 2 CURVE SMOOTH",
"968 2 OFFCURVE",
"1022 -2 OFFCURVE",
"1054 -5 CURVE",
"1057 50 LINE",
"1029 54 OFFCURVE",
"1000 59 OFFCURVE",
"989 67 CURVE",
"985 75 OFFCURVE",
"980 129 OFFCURVE",
"981 263 CURVE SMOOTH",
"982 459 LINE",
"926 459 LINE",
"1328 -5 LINE",
"1315 61 LINE",
"1315 -30 LINE SMOOTH",
"1315 -142 OFFCURVE",
"1262 -176 OFFCURVE",
"1212 -168 CURVE",
"1269 -190 LINE",
"1194 -122 LINE SMOOTH",
"1165 -96 OFFCURVE",
"1145 -87 OFFCURVE",
"1121 -87 CURVE SMOOTH",
"1092 -87 OFFCURVE",
"1069 -105 OFFCURVE",
"1069 -138 CURVE SMOOTH",
"1069 -190 OFFCURVE",
"1135 -228 OFFCURVE",
"1215 -228 CURVE SMOOTH"
);
},
{
closed = 1;
nodes = (
"559 187 LINE",
"196 588 LINE",
"180 587 OFFCURVE",
"143 587 OFFCURVE",
"121 587 CURVE SMOOTH",
"98 587 OFFCURVE",
"67 588 OFFCURVE",
"36 591 CURVE",
"33 536 LINE",
"58 535 OFFCURVE",
"86 529 OFFCURVE",
"97 520 CURVE",
"100 517 OFFCURVE",
"104 451 OFFCURVE",
"104 394 CURVE SMOOTH",
"104 263 LINE SMOOTH",
"104 129 OFFCURVE",
"100 75 OFFCURVE",
"97 67 CURVE",
"86 59 OFFCURVE",
"56 54 OFFCURVE",
"28 50 CURVE",
"31 -5 LINE",
"64 -2 OFFCURVE",
"110 1 OFFCURVE",
"139 1 CURVE SMOOTH",
"168 1 OFFCURVE",
"222 -2 OFFCURVE",
"254 -5 CURVE",
"257 50 LINE",
"229 54 OFFCURVE",
"200 59 OFFCURVE",
"189 67 CURVE",
"185 75 OFFCURVE",
"179 129 OFFCURVE",
"181 263 CURVE SMOOTH",
"182 459 LINE",
"126 459 LINE",
"530 -5 LINE",
"591 -5 LINE",
"591 42 OFFCURVE",
"591 86 OFFCURVE",
"591 148 CURVE SMOOTH",
"591 337 LINE SMOOTH",
"591 458 OFFCURVE",
"594 513 OFFCURVE",
"598 520 CURVE",
"609 529 OFFCURVE",
"638 533 OFFCURVE",
"666 536 CURVE",
"663 591 LINE",
"630 588 OFFCURVE",
"591 587 OFFCURVE",
"559 587 CURVE SMOOTH",
"529 587 OFFCURVE",
"478 588 OFFCURVE",
"445 591 CURVE",
"442 536 LINE",
"470 533 OFFCURVE",
"500 529 OFFCURVE",
"511 520 CURVE",
"514 513 OFFCURVE",
"518 458 OFFCURVE",
"518 337 CURVE SMOOTH",
"518 187 LINE"
);
}
);
};
color = -1;
layerId = "C0B3E82F-C341-4413-A405-AFA97EAADFAC";
paths = (
{
closed = 1;
nodes = (
"531 -228 OFFCURVE",
"591 -147 OFFCURVE",
"591 22 CURVE SMOOTH",
"591 337 LINE SMOOTH",
"591 458 OFFCURVE",
"594 513 OFFCURVE",
"598 520 CURVE",
"609 529 OFFCURVE",
"638 533 OFFCURVE",
"666 536 CURVE",
"663 591 LINE",
"630 588 OFFCURVE",
"591 587 OFFCURVE",
"559 587 CURVE SMOOTH",
"529 587 OFFCURVE",
"478 588 OFFCURVE",
"445 591 CURVE",
"442 536 LINE",
"470 533 OFFCURVE",
"500 529 OFFCURVE",
"511 520 CURVE",
"514 513 OFFCURVE",
"518 458 OFFCURVE",
"518 337 CURVE SMOOTH",
"518 187 LINE",
"559 187 LINE",
"196 588 LINE",
"180 587 OFFCURVE",
"143 587 OFFCURVE",
"121 587 CURVE SMOOTH",
"98 587 OFFCURVE",
"67 588 OFFCURVE",
"36 591 CURVE",
"33 536 LINE",
"58 535 OFFCURVE",
"86 529 OFFCURVE",
"97 520 CURVE",
"100 517 OFFCURVE",
"104 451 OFFCURVE",
"104 394 CURVE SMOOTH",
"104 263 LINE SMOOTH",
"104 129 OFFCURVE",
"100 75 OFFCURVE",
"97 67 CURVE",
"86 59 OFFCURVE",
"56 54 OFFCURVE",
"28 50 CURVE",
"31 -5 LINE",
"64 -2 OFFCURVE",
"110 2 OFFCURVE",
"139 2 CURVE SMOOTH",
"168 2 OFFCURVE",
"222 -2 OFFCURVE",
"254 -5 CURVE",
"257 50 LINE",
"229 54 OFFCURVE",
"200 59 OFFCURVE",
"189 67 CURVE",
"185 75 OFFCURVE",
"179 129 OFFCURVE",
"181 263 CURVE SMOOTH",
"182 459 LINE",
"126 459 LINE",
"530 -5 LINE",
"517 61 LINE",
"517 -30 LINE SMOOTH",
"517 -142 OFFCURVE",
"464 -176 OFFCURVE",
"414 -168 CURVE",
"471 -190 LINE",
"396 -122 LINE SMOOTH",
"367 -96 OFFCURVE",
"347 -87 OFFCURVE",
"323 -87 CURVE SMOOTH",
"294 -87 OFFCURVE",
"271 -105 OFFCURVE",
"271 -138 CURVE SMOOTH",
"271 -190 OFFCURVE",
"337 -228 OFFCURVE",
"417 -228 CURVE SMOOTH"
);
}
);
width = 695;
}
);
leftMetricsKey = N;
widthMetricsKey = N;
note = Eng;
unicode = 014A;
},
{
glyphname = O;
lastChange = "2018-05-31 14:32:51 +0000";
layers = (
{
anchors = (
{
name = bottom;
position = "{343, 0}";
},
{
name = center;
position = "{343, 294}";
},
{
name = ogonek;
position = "{417, 0}";
},
{
name = top;
position = "{343, 587}";
},
{
name = topleft;
position = "{18, 587}";
},
{
name = topright;
position = "{669, 587}";
}
);
background = {
anchors = (
{
name = bottom;
position = "{343, 0}";
},
{
name = center;
position = "{343, 294}";
},
{
name = ogonek;
position = "{417, 0}";
},
{
name = top;
position = "{343, 587}";
},
{
name = topleft;
position = "{18, 587}";
},
{
name = topright;
position = "{669, 587}";
}
);
paths = (
{
closed = 1;
nodes = (
"503 -9 OFFCURVE",
"636 119 OFFCURVE",
"636 298 CURVE SMOOTH",
"636 474 OFFCURVE",
"519 596 OFFCURVE",
"352 596 CURVE SMOOTH",
"180 596 OFFCURVE",
"51 467 OFFCURVE",
"51 291 CURVE SMOOTH",
"51 114 OFFCURVE",
"174 -9 OFFCURVE",
"349 -9 CURVE SMOOTH"
);
},
{
closed = 1;
nodes = (
"240 45 OFFCURVE",
"155 155 OFFCURVE",
"155 310 CURVE SMOOTH",
"155 455 OFFCURVE",
"225 545 OFFCURVE",
"340 545 CURVE SMOOTH",
"456 545 OFFCURVE",
"535 435 OFFCURVE",
"535 274 CURVE SMOOTH",
"535 134 OFFCURVE",
"466 45 OFFCURVE",
"359 45 CURVE SMOOTH"
);
}
);
};
color = -1;
layerId = "30A8E426-80C1-4FA7-AECB-85F4920FB6F7";
paths = (
{
closed = 1;
nodes = (
"503 -9 OFFCURVE",
"636 119 OFFCURVE",
"636 298 CURVE SMOOTH",
"636 474 OFFCURVE",
"519 596 OFFCURVE",
"352 596 CURVE SMOOTH",
"179 596 OFFCURVE",
"51 466 OFFCURVE",
"51 291 CURVE SMOOTH",
"51 114 OFFCURVE",
"174 -9 OFFCURVE",
"349 -9 CURVE SMOOTH"
);
},
{
closed = 1;
nodes = (
"240 45 OFFCURVE",
"155 155 OFFCURVE",
"155 310 CURVE SMOOTH",
"155 456 OFFCURVE",
"225 546 OFFCURVE",
"340 546 CURVE SMOOTH",
"456 546 OFFCURVE",
"535 435 OFFCURVE",
"535 274 CURVE SMOOTH",
"535 134 OFFCURVE",
"466 45 OFFCURVE",
"359 45 CURVE SMOOTH"
);
}
);
width = 687;
},
{
anchors = (
{
name = bottom;
position = "{356, 0}";
},
{
name = center;
position = "{356, 294}";
},
{
name = ogonek;
position = "{431, 0}";
},
{
name = top;
position = "{356, 587}";
},
{
name = topleft;
position = "{18, 587}";
},
{
name = topright;
position = "{694, 587}";
}
);
background = {
anchors = (
{
name = bottom;
position = "{356, 0}";
},
{
name = center;
position = "{356, 294}";
},
{
name = ogonek;
position = "{431, 0}";
},
{
name = top;
position = "{356, 587}";
},
{
name = topleft;
position = "{18, 587}";
},
{
name = topright;
position = "{694, 587}";
}
);
paths = (
{
closed = 1;
nodes = (
"495 -9 OFFCURVE",
"667 94 OFFCURVE",
"667 302 CURVE SMOOTH",
"667 476 OFFCURVE",
"541 596 OFFCURVE",
"363 596 CURVE SMOOTH",
"180 596 OFFCURVE",
"45 466 OFFCURVE",
"45 286 CURVE SMOOTH",
"45 113 OFFCURVE",
"179 -9 OFFCURVE",
"363 -9 CURVE SMOOTH"
);
},
{
closed = 1;
nodes = (
"274 66 OFFCURVE",
"206 168 OFFCURVE",
"206 316 CURVE SMOOTH",
"206 446 OFFCURVE",
"259 529 OFFCURVE",
"351 529 CURVE SMOOTH",
"447 529 OFFCURVE",
"508 428 OFFCURVE",
"508 276 CURVE SMOOTH",
"508 140 OFFCURVE",
"460 66 OFFCURVE",
"370 66 CURVE SMOOTH"
);
}
);
};
color = -1;
layerId = "C0B3E82F-C341-4413-A405-AFA97EAADFAC";
paths = (
{
closed = 1;
nodes = (
"495 -9 OFFCURVE",
"667 94 OFFCURVE",
"667 302 CURVE SMOOTH",
"667 475 OFFCURVE",
"542 596 OFFCURVE",
"363 596 CURVE SMOOTH",
"179 596 OFFCURVE",
"45 465 OFFCURVE",
"45 286 CURVE SMOOTH",
"45 114 OFFCURVE",
"178 -9 OFFCURVE",
"363 -9 CURVE SMOOTH"
);
},
{
closed = 1;
nodes = (
"273 66 OFFCURVE",
"206 169 OFFCURVE",
"206 316 CURVE SMOOTH",
"206 449 OFFCURVE",
"261 529 OFFCURVE",
"351 529 CURVE SMOOTH",
"446 529 OFFCURVE",
"508 429 OFFCURVE",
"508 276 CURVE SMOOTH",
"508 140 OFFCURVE",
"460 66 OFFCURVE",
"370 66 CURVE SMOOTH"
);
}
);
width = 712;
}
);
leftKerningGroup = C;
note = O;
rightKerningGroup = D;
rightMetricsKey = "=|";
unicode = 004F;
},
{
glyphname = Ohorn;
lastChange = "2018-05-31 14:32:51 +0000";
layers = (
{
anchors = (
{
name = bottom;
position = "{343, 0}";
},
{
name = center;
position = "{343, 294}";
},
{
name = top;
position = "{343, 587}";
},
{
name = topleft;
position = "{18, 587}";
}
);
background = {
anchors = (
{
name = bottom;
position = "{1043, 0}";
},
{
name = center;
position = "{1043, 294}";
},
{
name = top;
position = "{1043, 587}";
},
{
name = topleft;
position = "{718, 587}";
}
);
paths = (
{
closed = 1;
nodes = (
"1366 703 OFFCURVE",
"1326 719 OFFCURVE",
"1276 710 CURVE",
"1274 659 LINE SMOOTH",
"1272 600 OFFCURVE",
"1245 579 OFFCURVE",
"1201 579 CURVE SMOOTH",
"1163 579 OFFCURVE",
"1116 596 OFFCURVE",
"1055 596 CURVE SMOOTH",
"878 596 OFFCURVE",
"751 467 OFFCURVE",
"751 291 CURVE SMOOTH",
"751 114 OFFCURVE",
"874 -9 OFFCURVE",
"1049 -9 CURVE SMOOTH",
"1203 -9 OFFCURVE",
"1336 119 OFFCURVE",
"1336 298 CURVE SMOOTH",
"1336 412 OFFCURVE",
"1286 504 OFFCURVE",
"1205 555 CURVE",
"1174 534 LINE",
"1301 513 OFFCURVE",
"1366 593 OFFCURVE",
"1366 651 CURVE SMOOTH"
);
},
{
closed = 1;
nodes = (
"940 45 OFFCURVE",
"855 155 OFFCURVE",
"855 310 CURVE SMOOTH",
"855 455 OFFCURVE",
"925 545 OFFCURVE",
"1040 545 CURVE SMOOTH",
"1156 545 OFFCURVE",
"1235 435 OFFCURVE",
"1235 274 CURVE SMOOTH",
"1235 134 OFFCURVE",
"1166 45 OFFCURVE",
"1059 45 CURVE SMOOTH"
);
},
{
closed = 1;
nodes = (
"503 -9 OFFCURVE",
"636 119 OFFCURVE",
"636 298 CURVE SMOOTH",
"636 474 OFFCURVE",
"519 596 OFFCURVE",
"352 596 CURVE SMOOTH",
"179 596 OFFCURVE",
"51 466 OFFCURVE",
"51 291 CURVE SMOOTH",
"51 114 OFFCURVE",
"174 -9 OFFCURVE",
"349 -9 CURVE SMOOTH"
);
},
{
closed = 1;
nodes = (
"240 45 OFFCURVE",
"155 155 OFFCURVE",
"155 310 CURVE SMOOTH",
"155 456 OFFCURVE",
"225 546 OFFCURVE",
"340 546 CURVE SMOOTH",
"456 546 OFFCURVE",
"535 435 OFFCURVE",
"535 274 CURVE SMOOTH",
"535 134 OFFCURVE",
"466 45 OFFCURVE",
"359 45 CURVE SMOOTH"
);
}
);
};
color = -1;
layerId = "30A8E426-80C1-4FA7-AECB-85F4920FB6F7";
paths = (
{
closed = 1;
nodes = (
"666 703 OFFCURVE",
"626 719 OFFCURVE",
"576 710 CURVE",
"574 659 LINE SMOOTH",
"572 600 OFFCURVE",
"545 579 OFFCURVE",
"501 579 CURVE SMOOTH",
"463 579 OFFCURVE",
"416 596 OFFCURVE",
"355 596 CURVE SMOOTH",
"179 596 OFFCURVE",
"51 466 OFFCURVE",
"51 291 CURVE SMOOTH",
"51 114 OFFCURVE",
"174 -9 OFFCURVE",
"349 -9 CURVE SMOOTH",
"503 -9 OFFCURVE",
"636 119 OFFCURVE",
"636 298 CURVE SMOOTH",
"636 412 OFFCURVE",
"586 504 OFFCURVE",
"505 555 CURVE",
"474 534 LINE",
"601 513 OFFCURVE",
"666 593 OFFCURVE",
"666 651 CURVE SMOOTH"
);
},
{
closed = 1;
nodes = (
"240 45 OFFCURVE",
"155 155 OFFCURVE",
"155 310 CURVE SMOOTH",
"155 456 OFFCURVE",
"225 546 OFFCURVE",
"340 546 CURVE SMOOTH",
"456 546 OFFCURVE",
"535 435 OFFCURVE",
"535 274 CURVE SMOOTH",
"535 134 OFFCURVE",
"466 45 OFFCURVE",
"359 45 CURVE SMOOTH"
);
}
);
width = 687;
},
{
anchors = (
{
name = bottom;
position = "{356, 0}";
},
{
name = center;
position = "{356, 294}";
},
{
name = top;
position = "{356, 587}";
},
{
name = topleft;
position = "{18, 587}";
}
);
background = {
anchors = (
{
name = bottom;
position = "{1156, 0}";
},
{
name = center;
position = "{1156, 294}";
},
{
name = top;
position = "{1156, 587}";
},
{
name = topleft;
position = "{818, 587}";
}
);
paths = (
{
closed = 1;
nodes = (
"1502 717 OFFCURVE",
"1449 726 OFFCURVE",
"1387 718 CURVE",
"1385 658 LINE SMOOTH",
"1383 612 OFFCURVE",
"1355 580 OFFCURVE",
"1310 580 CURVE SMOOTH",
"1278 580 OFFCURVE",
"1230 596 OFFCURVE",
"1171 596 CURVE SMOOTH",
"977 596 OFFCURVE",
"845 466 OFFCURVE",
"845 286 CURVE SMOOTH",
"845 113 OFFCURVE",
"979 -9 OFFCURVE",
"1163 -9 CURVE SMOOTH",
"1295 -9 OFFCURVE",
"1467 94 OFFCURVE",
"1467 302 CURVE SMOOTH",
"1467 410 OFFCURVE",
"1417 497 OFFCURVE",
"1339 547 CURVE",
"1271 531 LINE",
"1409 498 OFFCURVE",
"1502 576 OFFCURVE",
"1502 654 CURVE SMOOTH"
);
},
{
closed = 1;
nodes = (
"1074 66 OFFCURVE",
"1006 168 OFFCURVE",
"1006 316 CURVE SMOOTH",
"1006 446 OFFCURVE",
"1059 529 OFFCURVE",
"1151 529 CURVE SMOOTH",
"1247 529 OFFCURVE",
"1308 428 OFFCURVE",
"1308 276 CURVE SMOOTH",
"1308 140 OFFCURVE",
"1260 66 OFFCURVE",
"1170 66 CURVE SMOOTH"
);
},
{
closed = 1;
nodes = (
"495 -9 OFFCURVE",
"667 94 OFFCURVE",
"667 302 CURVE SMOOTH",
"667 475 OFFCURVE",
"542 596 OFFCURVE",
"363 596 CURVE SMOOTH",
"179 596 OFFCURVE",
"45 465 OFFCURVE",
"45 286 CURVE SMOOTH",
"45 114 OFFCURVE",
"178 -9 OFFCURVE",
"363 -9 CURVE SMOOTH"
);
},
{
closed = 1;
nodes = (
"273 66 OFFCURVE",
"206 169 OFFCURVE",
"206 316 CURVE SMOOTH",
"206 449 OFFCURVE",
"261 529 OFFCURVE",
"351 529 CURVE SMOOTH",
"446 529 OFFCURVE",
"508 429 OFFCURVE",
"508 276 CURVE SMOOTH",
"508 140 OFFCURVE",
"460 66 OFFCURVE",
"370 66 CURVE SMOOTH"
);
}
);
};
color = -1;
layerId = "C0B3E82F-C341-4413-A405-AFA97EAADFAC";
paths = (
{
closed = 1;
nodes = (
"702 717 OFFCURVE",
"649 726 OFFCURVE",
"587 718 CURVE",
"585 658 LINE SMOOTH",
"583 612 OFFCURVE",
"555 580 OFFCURVE",
"510 580 CURVE SMOOTH",
"478 580 OFFCURVE",
"430 596 OFFCURVE",
"371 596 CURVE SMOOTH",
"179 596 OFFCURVE",
"45 465 OFFCURVE",
"45 286 CURVE SMOOTH",
"45 114 OFFCURVE",
"178 -9 OFFCURVE",
"363 -9 CURVE SMOOTH",
"495 -9 OFFCURVE",
"667 94 OFFCURVE",
"667 302 CURVE SMOOTH",
"667 410 OFFCURVE",
"617 497 OFFCURVE",
"539 547 CURVE",
"471 531 LINE",
"609 498 OFFCURVE",
"702 576 OFFCURVE",
"702 654 CURVE SMOOTH"
);
},
{
closed = 1;
nodes = (
"273 66 OFFCURVE",
"206 169 OFFCURVE",
"206 316 CURVE SMOOTH",
"206 449 OFFCURVE",
"261 529 OFFCURVE",
"351 529 CURVE SMOOTH",
"446 529 OFFCURVE",
"508 429 OFFCURVE",
"508 276 CURVE SMOOTH",
"508 140 OFFCURVE",
"460 66 OFFCURVE",
"370 66 CURVE SMOOTH"
);
}
);
width = 712;
}
);
leftMetricsKey = O;
widthMetricsKey = O;
note = Ohorn;
unicode = 01A0;
},
{
glyphname = Oogonek;
lastChange = "2018-05-31 14:32:51 +0000";
layers = (
{
anchors = (
{
name = center;
position = "{343, 294}";
},
{
name = top;
position = "{343, 587}";
},
{
name = topleft;
position = "{18, 587}";
},
{
name = topright;
position = "{669, 587}";
}
);
background = {
paths = (
{
closed = 1;
nodes = (
"503 -9 OFFCURVE",
"636 119 OFFCURVE",
"636 298 CURVE SMOOTH",
"636 474 OFFCURVE",
"519 596 OFFCURVE",
"352 596 CURVE SMOOTH",
"179 596 OFFCURVE",
"51 466 OFFCURVE",
"51 291 CURVE SMOOTH",
"51 114 OFFCURVE",
"174 -9 OFFCURVE",
"349 -9 CURVE SMOOTH"
);
},
{
closed = 1;
nodes = (
"240 45 OFFCURVE",
"155 155 OFFCURVE",
"155 310 CURVE SMOOTH",
"155 456 OFFCURVE",
"225 546 OFFCURVE",
"340 546 CURVE SMOOTH",
"456 546 OFFCURVE",
"535 435 OFFCURVE",
"535 274 CURVE SMOOTH",
"535 134 OFFCURVE",
"466 45 OFFCURVE",
"359 45 CURVE SMOOTH"
);
}
);
};
layerId = "30A8E426-80C1-4FA7-AECB-85F4920FB6F7";
paths = (
{
closed = 1;
nodes = (
"419 -223 OFFCURVE",
"455 -203 OFFCURVE",
"481 -173 CURVE",
"459 -146 LINE",
"438 -167 OFFCURVE",
"416 -181 OFFCURVE",
"390 -181 CURVE SMOOTH",
"355 -181 OFFCURVE",
"332 -158 OFFCURVE",
"332 -122 CURVE SMOOTH",
"332 -74 OFFCURVE",
"371 -21 OFFCURVE",
"452 11 CURVE SMOOTH",
"555 52 OFFCURVE",
"636 158 OFFCURVE",
"636 298 CURVE SMOOTH",
"636 474 OFFCURVE",
"519 596 OFFCURVE",
"352 596 CURVE SMOOTH",
"179 596 OFFCURVE",
"51 466 OFFCURVE",
"51 291 CURVE SMOOTH",
"51 114 OFFCURVE",
"174 -9 OFFCURVE",
"349 -9 CURVE SMOOTH",
"378 -9 LINE",
"412 19 LINE",
"318 -17 OFFCURVE",
"262 -71 OFFCURVE",
"262 -132 CURVE SMOOTH",
"262 -183 OFFCURVE",
"306 -223 OFFCURVE",
"376 -223 CURVE SMOOTH"
);
},
{
closed = 1;
nodes = (
"240 45 OFFCURVE",
"155 155 OFFCURVE",
"155 310 CURVE SMOOTH",
"155 456 OFFCURVE",
"225 546 OFFCURVE",
"340 546 CURVE SMOOTH",
"456 546 OFFCURVE",
"535 435 OFFCURVE",
"535 274 CURVE SMOOTH",
"535 134 OFFCURVE",
"466 45 OFFCURVE",
"359 45 CURVE SMOOTH"
);
}
);
width = 687;
},
{
anchors = (
{
name = center;
position = "{356, 294}";
},
{
name = top;
position = "{356, 587}";
},
{
name = topleft;
position = "{18, 587}";
},
{
name = topright;
position = "{694, 587}";
}
);
background = {
paths = (
{
closed = 1;
nodes = (
"495 -9 OFFCURVE",
"667 94 OFFCURVE",
"667 302 CURVE SMOOTH",
"667 475 OFFCURVE",
"542 596 OFFCURVE",
"363 596 CURVE SMOOTH",
"179 596 OFFCURVE",
"45 465 OFFCURVE",
"45 286 CURVE SMOOTH",
"45 114 OFFCURVE",
"178 -9 OFFCURVE",
"363 -9 CURVE SMOOTH"
);
},
{
closed = 1;
nodes = (
"273 66 OFFCURVE",
"206 169 OFFCURVE",
"206 316 CURVE SMOOTH",
"206 449 OFFCURVE",
"261 529 OFFCURVE",
"351 529 CURVE SMOOTH",
"446 529 OFFCURVE",
"508 429 OFFCURVE",
"508 276 CURVE SMOOTH",
"508 140 OFFCURVE",
"460 66 OFFCURVE",
"370 66 CURVE SMOOTH"
);
}
);
};
layerId = "C0B3E82F-C341-4413-A405-AFA97EAADFAC";
paths = (
{
closed = 1;
nodes = (
"432 -223 OFFCURVE",
"473 -207 OFFCURVE",
"502 -173 CURVE",
"474 -134 LINE",
"450 -157 OFFCURVE",
"428 -168 OFFCURVE",
"406 -168 CURVE SMOOTH",
"376 -168 OFFCURVE",
"354 -148 OFFCURVE",
"354 -113 CURVE SMOOTH",
"354 -71 OFFCURVE",
"385 -21 OFFCURVE",
"474 14 CURVE SMOOTH",
"573 53 OFFCURVE",
"667 147 OFFCURVE",
"667 302 CURVE SMOOTH",
"667 475 OFFCURVE",
"542 596 OFFCURVE",
"363 596 CURVE SMOOTH",
"179 596 OFFCURVE",
"45 465 OFFCURVE",
"45 286 CURVE SMOOTH",
"45 114 OFFCURVE",
"178 -9 OFFCURVE",
"363 -9 CURVE SMOOTH",
"385 -9 LINE",
"417 24 LINE",
"315 -12 OFFCURVE",
"257 -65 OFFCURVE",
"257 -122 CURVE SMOOTH",
"257 -181 OFFCURVE",
"315 -223 OFFCURVE",
"387 -223 CURVE SMOOTH"
);
},
{
closed = 1;
nodes = (
"273 66 OFFCURVE",
"206 169 OFFCURVE",
"206 316 CURVE SMOOTH",
"206 449 OFFCURVE",
"261 529 OFFCURVE",
"351 529 CURVE SMOOTH",
"446 529 OFFCURVE",
"508 429 OFFCURVE",
"508 276 CURVE SMOOTH",
"508 140 OFFCURVE",
"460 66 OFFCURVE",
"370 66 CURVE SMOOTH"
);
}
);
width = 712;
}
);
leftMetricsKey = O;
widthMetricsKey = O;
unicode = 01EA;
},
{
glyphname = OE;
lastChange = "2018-05-31 14:32:51 +0000";
layers = (
{
anchors = (
{
name = bottom;
position = "{523, 0}";
},
{
name = top;
position = "{523, 587}";
}
);
background = {
anchors = (
{
name = bottom;
position = "{1524, 0}";
},
{
name = top;
position = "{1524, 587}";
}
);
paths = (
{
closed = 1;
nodes = (
"1440 -9 OFFCURVE",
"1489 0 OFFCURVE",
"1527 0 CURVE SMOOTH",
"1766 0 LINE SMOOTH",
"1799 0 OFFCURVE",
"1830 -2 OFFCURVE",
"1861 -5 CURVE",
"1900 141 LINE",
"1855 150 LINE",
"1833 105 OFFCURVE",
"1815 70 OFFCURVE",
"1804 52 CURVE",
"1792 49 OFFCURVE",
"1777 48 OFFCURVE",
"1732 48 CURVE SMOOTH",
"1633 48 LINE SMOOTH",
"1604 48 OFFCURVE",
"1586 50 OFFCURVE",
"1569 52 CURVE",
"1568 62 OFFCURVE",
"1566 108 OFFCURVE",
"1566 153 CURVE SMOOTH",
"1566 423 LINE SMOOTH",
"1566 468 OFFCURVE",
"1568 529 OFFCURVE",
"1569 538 CURVE",
"1585 540 OFFCURVE",
"1603 542 OFFCURVE",
"1630 542 CURVE SMOOTH",
"1748 542 LINE SMOOTH",
"1760 542 OFFCURVE",
"1774 541 OFFCURVE",
"1785 539 CURVE",
"1797 515 OFFCURVE",
"1808 486 OFFCURVE",
"1819 452 CURVE",
"1865 459 LINE",
"1844 591 LINE",
"1812 589 OFFCURVE",
"1776 587 OFFCURVE",
"1744 587 CURVE SMOOTH",
"1514 587 LINE SMOOTH",
"1470 587 OFFCURVE",
"1431 594 OFFCURVE",
"1384 594 CURVE SMOOTH",
"1180 594 OFFCURVE",
"1052 464 OFFCURVE",
"1052 288 CURVE SMOOTH",
"1052 98 OFFCURVE",
"1182 -9 OFFCURVE",
"1389 -9 CURVE SMOOTH"
);
},
{
closed = 1;
nodes = (
"1247 44 OFFCURVE",
"1157 142 OFFCURVE",
"1157 301 CURVE SMOOTH",
"1157 447 OFFCURVE",
"1239 542 OFFCURVE",
"1377 542 CURVE SMOOTH",
"1417 542 OFFCURVE",
"1448 537 OFFCURVE",
"1476 529 CURVE",
"1478 514 OFFCURVE",
"1481 479 OFFCURVE",
"1481 391 CURVE SMOOTH",
"1481 203 LINE SMOOTH",
"1481 108 OFFCURVE",
"1480 75 OFFCURVE",
"1478 57 CURVE",
"1457 50 OFFCURVE",
"1427 44 OFFCURVE",
"1398 44 CURVE SMOOTH"
);
},
{
closed = 1;
nodes = (
"1793 205 LINE",
"1791 237 OFFCURVE",
"1790 273 OFFCURVE",
"1790 302 CURVE SMOOTH",
"1790 332 OFFCURVE",
"1791 366 OFFCURVE",
"1793 399 CURVE",
"1750 399 LINE",
"1747 378 OFFCURVE",
"1742 346 OFFCURVE",
"1737 330 CURVE",
"1729 328 OFFCURVE",
"1712 327 OFFCURVE",
"1691 327 CURVE SMOOTH",
"1609 327 LINE SMOOTH",
"1591 327 OFFCURVE",
"1572 328 OFFCURVE",
"1550 329 CURVE",
"1550 275 LINE",
"1572 276 OFFCURVE",
"1591 277 OFFCURVE",
"1609 277 CURVE SMOOTH",
"1691 277 LINE SMOOTH",
"1712 277 OFFCURVE",
"1729 276 OFFCURVE",
"1737 274 CURVE",
"1742 258 OFFCURVE",
"1747 225 OFFCURVE",
"1750 205 CURVE"
);
},
{
closed = 1;
nodes = (
"895 141 LINE",
"850 150 LINE",
"828 105 OFFCURVE",
"810 73 OFFCURVE",
"798 55 CURVE",
"787 52 OFFCURVE",
"772 51 OFFCURVE",
"727 51 CURVE SMOOTH",
"631 51 LINE SMOOTH",
"602 51 OFFCURVE",
"584 53 OFFCURVE",
"567 55 CURVE",
"566 65 OFFCURVE",
"565 108 OFFCURVE",
"565 153 CURVE SMOOTH",
"565 423 LINE SMOOTH",
"565 468 OFFCURVE",
"566 526 OFFCURVE",
"567 535 CURVE",
"583 537 OFFCURVE",
"601 539 OFFCURVE",
"628 539 CURVE SMOOTH",
"742 539 LINE SMOOTH",
"755 539 OFFCURVE",
"769 538 OFFCURVE",
"780 536 CURVE",
"792 512 OFFCURVE",
"803 486 OFFCURVE",
"814 452 CURVE",
"859 459 LINE",
"839 591 LINE",
"807 589 OFFCURVE",
"771 587 OFFCURVE",
"739 587 CURVE SMOOTH",
"525 587 LINE SMOOTH",
"494 587 OFFCURVE",
"446 587 OFFCURVE",
"415 589 CURVE",
"413 548 LINE",
"437 546 OFFCURVE",
"468 539 OFFCURVE",
"475 534 CURVE",
"478 528 OFFCURVE",
"481 496 OFFCURVE",
"481 387 CURVE SMOOTH",
"481 199 LINE SMOOTH",
"481 91 OFFCURVE",
"478 59 OFFCURVE",
"475 52 CURVE",
"468 48 OFFCURVE",
"437 40 OFFCURVE",
"413 38 CURVE",
"415 -3 LINE",
"446 -1 OFFCURVE",
"494 0 OFFCURVE",
"525 0 CURVE SMOOTH",
"761 0 LINE SMOOTH",
"794 0 OFFCURVE",
"825 -2 OFFCURVE",
"855 -5 CURVE"
);
},
{
closed = 1;
nodes = (
"787 205 LINE",
"786 237 OFFCURVE",
"785 273 OFFCURVE",
"785 302 CURVE SMOOTH",
"785 332 OFFCURVE",
"786 366 OFFCURVE",
"787 399 CURVE",
"744 399 LINE",
"741 378 OFFCURVE",
"737 346 OFFCURVE",
"732 330 CURVE",
"724 328 OFFCURVE",
"707 327 OFFCURVE",
"686 327 CURVE SMOOTH",
"610 327 LINE SMOOTH",
"592 327 OFFCURVE",
"572 328 OFFCURVE",
"550 329 CURVE",
"550 275 LINE",
"572 276 OFFCURVE",
"592 277 OFFCURVE",
"610 277 CURVE SMOOTH",
"686 277 LINE SMOOTH",
"707 277 OFFCURVE",
"724 276 OFFCURVE",
"732 274 CURVE",
"737 258 OFFCURVE",
"741 225 OFFCURVE",
"744 205 CURVE"
);
}
);
};
color = -1;
layerId = "30A8E426-80C1-4FA7-AECB-85F4920FB6F7";
paths = (
{
closed = 1;
nodes = (
"440 -9 OFFCURVE",
"489 0 OFFCURVE",
"527 0 CURVE SMOOTH",
"761 0 LINE SMOOTH",
"794 0 OFFCURVE",
"825 -2 OFFCURVE",
"855 -5 CURVE",
"895 141 LINE",
"850 150 LINE",
"828 105 OFFCURVE",
"810 73 OFFCURVE",
"798 55 CURVE",
"787 52 OFFCURVE",
"772 51 OFFCURVE",
"727 51 CURVE SMOOTH",
"631 51 LINE SMOOTH",
"602 51 OFFCURVE",
"584 53 OFFCURVE",
"567 55 CURVE",
"566 65 OFFCURVE",
"565 108 OFFCURVE",
"565 153 CURVE SMOOTH",
"565 423 LINE SMOOTH",
"565 468 OFFCURVE",
"566 526 OFFCURVE",
"567 535 CURVE",
"583 537 OFFCURVE",
"601 539 OFFCURVE",
"628 539 CURVE SMOOTH",
"742 539 LINE SMOOTH",
"755 539 OFFCURVE",
"769 538 OFFCURVE",
"780 536 CURVE",
"792 512 OFFCURVE",
"803 486 OFFCURVE",
"814 452 CURVE",
"859 459 LINE",
"839 591 LINE",
"807 589 OFFCURVE",
"771 587 OFFCURVE",
"739 587 CURVE SMOOTH",
"514 587 LINE SMOOTH",
"470 587 OFFCURVE",
"431 594 OFFCURVE",
"384 594 CURVE SMOOTH",
"180 594 OFFCURVE",
"52 464 OFFCURVE",
"52 288 CURVE SMOOTH",
"52 98 OFFCURVE",
"182 -9 OFFCURVE",
"389 -9 CURVE SMOOTH"
);
},
{
closed = 1;
nodes = (
"247 45 OFFCURVE",
"157 142 OFFCURVE",
"157 301 CURVE SMOOTH",
"157 447 OFFCURVE",
"239 542 OFFCURVE",
"379 542 CURVE SMOOTH",
"417 542 OFFCURVE",
"448 537 OFFCURVE",
"476 529 CURVE",
"478 514 OFFCURVE",
"481 479 OFFCURVE",
"481 391 CURVE SMOOTH",
"481 203 LINE SMOOTH",
"481 108 OFFCURVE",
"480 75 OFFCURVE",
"478 57 CURVE",
"457 50 OFFCURVE",
"427 45 OFFCURVE",
"398 45 CURVE SMOOTH"
);
},
{
closed = 1;
nodes = (
"787 205 LINE",
"786 237 OFFCURVE",
"785 273 OFFCURVE",
"785 302 CURVE SMOOTH",
"785 332 OFFCURVE",
"786 366 OFFCURVE",
"787 399 CURVE",
"744 399 LINE",
"741 378 OFFCURVE",
"737 346 OFFCURVE",
"732 330 CURVE",
"724 328 OFFCURVE",
"707 327 OFFCURVE",
"686 327 CURVE SMOOTH",
"610 327 LINE SMOOTH",
"592 327 OFFCURVE",
"572 328 OFFCURVE",
"550 329 CURVE",
"550 275 LINE",
"572 276 OFFCURVE",
"592 277 OFFCURVE",
"610 277 CURVE SMOOTH",
"686 277 LINE SMOOTH",
"707 277 OFFCURVE",
"724 276 OFFCURVE",
"732 274 CURVE",
"737 258 OFFCURVE",
"741 225 OFFCURVE",
"744 205 CURVE"
);
}
);
width = 927;
},
{
anchors = (
{
name = bottom;
position = "{530, 0}";
},
{
name = top;
position = "{530, 587}";
}
);
background = {
anchors = (
{
name = bottom;
position = "{1431, 0}";
},
{
name = top;
position = "{1431, 587}";
}
);
paths = (
{
closed = 1;
nodes = (
"1327 -9 OFFCURVE",
"1368 0 OFFCURVE",
"1412 0 CURVE SMOOTH",
"1625 0 LINE SMOOTH",
"1667 0 OFFCURVE",
"1731 -4 OFFCURVE",
"1766 -6 CURVE",
"1811 157 LINE",
"1754 168 LINE",
"1734 130 OFFCURVE",
"1717 94 OFFCURVE",
"1699 64 CURVE",
"1679 60 OFFCURVE",
"1670 60 OFFCURVE",
"1628 60 CURVE SMOOTH",
"1590 60 LINE SMOOTH",
"1550 60 OFFCURVE",
"1527 62 OFFCURVE",
"1502 65 CURVE",
"1500 82 OFFCURVE",
"1499 126 OFFCURVE",
"1499 194 CURVE SMOOTH",
"1499 402 LINE SMOOTH",
"1499 469 OFFCURVE",
"1500 513 OFFCURVE",
"1502 528 CURVE",
"1520 531 OFFCURVE",
"1547 532 OFFCURVE",
"1568 532 CURVE SMOOTH",
"1627 532 LINE SMOOTH",
"1643 532 OFFCURVE",
"1655 531 OFFCURVE",
"1673 528 CURVE",
"1686 500 OFFCURVE",
"1694 474 OFFCURVE",
"1710 435 CURVE",
"1770 443 LINE",
"1741 592 LINE",
"1707 591 OFFCURVE",
"1629 587 OFFCURVE",
"1587 587 CURVE SMOOTH",
"1414 587 LINE SMOOTH",
"1375 587 OFFCURVE",
"1334 594 OFFCURVE",
"1298 594 CURVE SMOOTH",
"1051 594 OFFCURVE",
"946 443 OFFCURVE",
"946 287 CURVE SMOOTH",
"946 104 OFFCURVE",
"1082 -9 OFFCURVE",
"1280 -9 CURVE SMOOTH"
);
},
{
closed = 1;
nodes = (
"1184 63 OFFCURVE",
"1108 151 OFFCURVE",
"1108 306 CURVE SMOOTH",
"1108 415 OFFCURVE",
"1158 526 OFFCURVE",
"1292 526 CURVE SMOOTH",
"1311 526 OFFCURVE",
"1339 523 OFFCURVE",
"1356 515 CURVE",
"1358 506 OFFCURVE",
"1362 453 OFFCURVE",
"1362 373 CURVE SMOOTH",
"1362 225 LINE SMOOTH",
"1362 140 OFFCURVE",
"1359 85 OFFCURVE",
"1358 74 CURVE",
"1342 70 OFFCURVE",
"1315 63 OFFCURVE",
"1295 63 CURVE SMOOTH"
);
},
{
closed = 1;
nodes = (
"1695 199 LINE",
"1694 232 OFFCURVE",
"1692 269 OFFCURVE",
"1692 301 CURVE SMOOTH",
"1692 334 OFFCURVE",
"1694 367 OFFCURVE",
"1695 401 CURVE",
"1639 401 LINE",
"1636 380 OFFCURVE",
"1630 343 OFFCURVE",
"1627 335 CURVE",
"1619 335 OFFCURVE",
"1597 333 OFFCURVE",
"1570 333 CURVE SMOOTH",
"1533 333 LINE SMOOTH",
"1509 333 OFFCURVE",
"1488 335 OFFCURVE",
"1477 336 CURVE",
"1477 266 LINE",
"1488 267 OFFCURVE",
"1509 269 OFFCURVE",
"1533 269 CURVE SMOOTH",
"1570 269 LINE SMOOTH",
"1597 269 OFFCURVE",
"1619 267 OFFCURVE",
"1627 267 CURVE",
"1630 259 OFFCURVE",
"1636 219 OFFCURVE",
"1639 199 CURVE"
);
},
{
closed = 1;
nodes = (
"911 157 LINE",
"854 168 LINE",
"835 130 OFFCURVE",
"818 98 OFFCURVE",
"799 68 CURVE",
"780 64 OFFCURVE",
"770 64 OFFCURVE",
"728 64 CURVE SMOOTH",
"689 64 LINE SMOOTH",
"648 64 OFFCURVE",
"625 66 OFFCURVE",
"601 69 CURVE",
"599 86 OFFCURVE",
"598 126 OFFCURVE",
"598 194 CURVE SMOOTH",
"598 402 LINE SMOOTH",
"598 469 OFFCURVE",
"599 509 OFFCURVE",
"601 524 CURVE",
"618 527 OFFCURVE",
"646 528 OFFCURVE",
"666 528 CURVE SMOOTH",
"727 528 LINE SMOOTH",
"743 528 OFFCURVE",
"755 527 OFFCURVE",
"773 524 CURVE",
"787 496 OFFCURVE",
"796 474 OFFCURVE",
"811 435 CURVE",
"869 443 LINE",
"842 592 LINE",
"807 591 OFFCURVE",
"730 587 OFFCURVE",
"688 587 CURVE SMOOTH",
"530 587 LINE SMOOTH",
"487 587 OFFCURVE",
"424 589 OFFCURVE",
"394 591 CURVE",
"391 536 LINE",
"416 535 OFFCURVE",
"444 529 OFFCURVE",
"455 520 CURVE",
"459 513 OFFCURVE",
"462 451 OFFCURVE",
"462 366 CURVE SMOOTH",
"462 221 LINE SMOOTH",
"462 137 OFFCURVE",
"459 75 OFFCURVE",
"455 67 CURVE",
"444 59 OFFCURVE",
"416 54 OFFCURVE",
"391 50 CURVE",
"394 -5 LINE",
"424 -2 OFFCURVE",
"487 0 OFFCURVE",
"530 0 CURVE SMOOTH",
"726 0 LINE SMOOTH",
"768 0 OFFCURVE",
"831 -4 OFFCURVE",
"866 -6 CURVE"
);
},
{
closed = 1;
nodes = (
"795 199 LINE",
"794 232 OFFCURVE",
"792 269 OFFCURVE",
"792 301 CURVE SMOOTH",
"792 334 OFFCURVE",
"794 368 OFFCURVE",
"795 402 CURVE",
"738 402 LINE",
"736 381 OFFCURVE",
"731 344 OFFCURVE",
"728 336 CURVE",
"719 336 OFFCURVE",
"697 334 OFFCURVE",
"671 334 CURVE SMOOTH",
"632 334 LINE SMOOTH",
"608 334 OFFCURVE",
"587 336 OFFCURVE",
"576 337 CURVE",
"576 266 LINE",
"587 267 OFFCURVE",
"608 269 OFFCURVE",
"632 269 CURVE SMOOTH",
"671 269 LINE SMOOTH",
"697 269 OFFCURVE",
"719 267 OFFCURVE",
"728 267 CURVE",
"731 259 OFFCURVE",
"736 219 OFFCURVE",
"738 199 CURVE"
);
}
);
};
color = -1;
layerId = "C0B3E82F-C341-4413-A405-AFA97EAADFAC";
paths = (
{
closed = 1;
nodes = (
"427 -9 OFFCURVE",
"468 0 OFFCURVE",
"522 0 CURVE SMOOTH",
"725 0 LINE SMOOTH",
"767 0 OFFCURVE",
"831 -4 OFFCURVE",
"866 -6 CURVE",
"911 157 LINE",
"854 168 LINE",
"835 130 OFFCURVE",
"818 98 OFFCURVE",
"799 68 CURVE",
"779 64 OFFCURVE",
"770 64 OFFCURVE",
"728 64 CURVE SMOOTH",
"689 64 LINE SMOOTH",
"648 64 OFFCURVE",
"625 66 OFFCURVE",
"601 69 CURVE",
"599 86 OFFCURVE",
"598 126 OFFCURVE",
"598 194 CURVE SMOOTH",
"598 402 LINE SMOOTH",
"598 469 OFFCURVE",
"599 509 OFFCURVE",
"601 524 CURVE",
"619 527 OFFCURVE",
"645 528 OFFCURVE",
"666 528 CURVE SMOOTH",
"727 528 LINE SMOOTH",
"743 528 OFFCURVE",
"755 527 OFFCURVE",
"773 524 CURVE",
"787 496 OFFCURVE",
"796 474 OFFCURVE",
"811 435 CURVE",
"869 443 LINE",
"842 592 LINE",
"807 591 OFFCURVE",
"730 587 OFFCURVE",
"688 587 CURVE SMOOTH",
"524 587 LINE SMOOTH",
"475 587 OFFCURVE",
"434 593 OFFCURVE",
"398 593 CURVE SMOOTH",
"151 593 OFFCURVE",
"46 443 OFFCURVE",
"46 287 CURVE SMOOTH",
"46 104 OFFCURVE",
"182 -9 OFFCURVE",
"380 -9 CURVE SMOOTH"
);
},
{
closed = 1;
nodes = (
"284 65 OFFCURVE",
"208 151 OFFCURVE",
"208 306 CURVE SMOOTH",
"208 415 OFFCURVE",
"258 526 OFFCURVE",
"391 526 CURVE SMOOTH",
"411 526 OFFCURVE",
"438 523 OFFCURVE",
"456 516 CURVE",
"458 506 OFFCURVE",
"462 453 OFFCURVE",
"462 373 CURVE SMOOTH",
"462 225 LINE SMOOTH",
"462 140 OFFCURVE",
"459 85 OFFCURVE",
"458 74 CURVE",
"442 70 OFFCURVE",
"415 65 OFFCURVE",
"395 65 CURVE SMOOTH"
);
},
{
closed = 1;
nodes = (
"795 199 LINE",
"794 232 OFFCURVE",
"792 269 OFFCURVE",
"792 301 CURVE SMOOTH",
"792 334 OFFCURVE",
"794 368 OFFCURVE",
"795 402 CURVE",
"738 402 LINE",
"736 381 OFFCURVE",
"731 344 OFFCURVE",
"728 336 CURVE",
"719 336 OFFCURVE",
"697 334 OFFCURVE",
"671 334 CURVE SMOOTH",
"632 334 LINE SMOOTH",
"608 334 OFFCURVE",
"587 336 OFFCURVE",
"576 337 CURVE",
"576 266 LINE",
"587 267 OFFCURVE",
"608 269 OFFCURVE",
"632 269 CURVE SMOOTH",
"671 269 LINE SMOOTH",
"697 269 OFFCURVE",
"719 267 OFFCURVE",
"728 267 CURVE",
"731 259 OFFCURVE",
"736 219 OFFCURVE",
"738 199 CURVE"
);
}
);
width = 928;
}
);
leftMetricsKey = "=O+1";
note = OE;
rightMetricsKey = "=E+1";
unicode = 0152;
},
{
glyphname = P;
lastChange = "2018-05-31 14:32:51 +0000";
layers = (
{
anchors = (
{
name = bottom;
position = "{156, 0}";
},
{
name = top;
position = "{254, 587}";
}
);
background = {
anchors = (
{
name = bottom;
position = "{156, 0}";
},
{
name = top;
position = "{254, 587}";
}
);
paths = (
{
closed = 1;
nodes = (
"80 -1 OFFCURVE",
"133 1 OFFCURVE",
"166 1 CURVE SMOOTH",
"199 1 OFFCURVE",
"251 -1 OFFCURVE",
"282 -3 CURVE",
"284 40 LINE",
"259 43 OFFCURVE",
"216 50 OFFCURVE",
"205 53 CURVE",
"201 59 OFFCURVE",
"198 91 OFFCURVE",
"198 188 CURVE SMOOTH",
"198 409 LINE SMOOTH",
"198 468 OFFCURVE",
"199 529 OFFCURVE",
"200 539 CURVE",
"215 543 OFFCURVE",
"228 544 OFFCURVE",
"253 544 CURVE SMOOTH",
"330 544 OFFCURVE",
"382 494 OFFCURVE",
"382 406 CURVE SMOOTH",
"382 325 OFFCURVE",
"335 286 OFFCURVE",
"267 286 CURVE SMOOTH",
"233 286 OFFCURVE",
"211 292 OFFCURVE",
"182 301 CURVE",
"182 246 LINE",
"204 241 OFFCURVE",
"239 237 OFFCURVE",
"265 237 CURVE SMOOTH",
"377 237 OFFCURVE",
"472 308 OFFCURVE",
"472 419 CURVE SMOOTH",
"472 527 OFFCURVE",
"394 588 OFFCURVE",
"262 588 CURVE SMOOTH",
"223 588 OFFCURVE",
"193 586 OFFCURVE",
"166 586 CURVE SMOOTH",
"120 586 OFFCURVE",
"78 587 OFFCURVE",
"47 588 CURVE",
"45 547 LINE",
"69 546 OFFCURVE",
"100 539 OFFCURVE",
"107 534 CURVE",
"110 528 OFFCURVE",
"113 496 OFFCURVE",
"113 387 CURVE SMOOTH",
"113 199 LINE SMOOTH",
"113 91 OFFCURVE",
"110 59 OFFCURVE",
"107 52 CURVE",
"100 48 OFFCURVE",
"70 40 OFFCURVE",
"50 38 CURVE",
"52 -3 LINE"
);
}
);
};
color = -1;
layerId = "30A8E426-80C1-4FA7-AECB-85F4920FB6F7";
paths = (
{
closed = 1;
nodes = (
"80 -1 OFFCURVE",
"133 1 OFFCURVE",
"166 1 CURVE SMOOTH",
"199 1 OFFCURVE",
"251 -1 OFFCURVE",
"282 -3 CURVE",
"284 39 LINE",
"249 43 OFFCURVE",
"216 50 OFFCURVE",
"205 53 CURVE",
"201 59 OFFCURVE",
"198 91 OFFCURVE",
"198 188 CURVE SMOOTH",
"198 407 LINE SMOOTH",
"198 466 OFFCURVE",
"199 528 OFFCURVE",
"200 538 CURVE",
"218 542 OFFCURVE",
"231 543 OFFCURVE",
"253 543 CURVE SMOOTH",
"325 543 OFFCURVE",
"382 500 OFFCURVE",
"382 405 CURVE SMOOTH",
"382 323 OFFCURVE",
"335 284 OFFCURVE",
"267 284 CURVE SMOOTH",
"233 284 OFFCURVE",
"211 289 OFFCURVE",
"182 297 CURVE",
"182 242 LINE",
"204 238 OFFCURVE",
"229 235 OFFCURVE",
"267 235 CURVE SMOOTH",
"377 235 OFFCURVE",
"472 306 OFFCURVE",
"472 418 CURVE SMOOTH",
"472 527 OFFCURVE",
"394 588 OFFCURVE",
"262 588 CURVE SMOOTH",
"223 588 OFFCURVE",
"193 586 OFFCURVE",
"166 586 CURVE SMOOTH",
"120 586 OFFCURVE",
"78 587 OFFCURVE",
"47 588 CURVE",
"45 547 LINE",
"69 546 OFFCURVE",
"100 539 OFFCURVE",
"107 534 CURVE",
"110 528 OFFCURVE",
"113 496 OFFCURVE",
"113 387 CURVE SMOOTH",
"113 199 LINE SMOOTH",
"113 91 OFFCURVE",
"110 59 OFFCURVE",
"107 52 CURVE",
"100 48 OFFCURVE",
"70 40 OFFCURVE",
"50 38 CURVE",
"52 -3 LINE"
);
}
);
width = 516;
},
{
anchors = (
{
name = bottom;
position = "{173, 0}";
},
{
name = top;
position = "{288, 587}";
}
);
background = {
anchors = (
{
name = bottom;
position = "{173, 0}";
},
{
name = top;
position = "{288, 587}";
}
);
paths = (
{
closed = 1;
nodes = (
"70 -2 OFFCURVE",
"140 -1 OFFCURVE",
"182 -1 CURVE SMOOTH",
"225 -1 OFFCURVE",
"297 -2 OFFCURVE",
"330 -5 CURVE",
"333 52 LINE",
"305 55 OFFCURVE",
"278 59 OFFCURVE",
"248 67 CURVE",
"245 75 OFFCURVE",
"241 137 OFFCURVE",
"241 170 CURVE SMOOTH",
"241 343 LINE SMOOTH",
"241 467 OFFCURVE",
"241 511 OFFCURVE",
"242 526 CURVE",
"253 530 OFFCURVE",
"265 530 OFFCURVE",
"283 530 CURVE SMOOTH",
"351 530 OFFCURVE",
"392 480 OFFCURVE",
"392 395 CURVE SMOOTH",
"392 326 OFFCURVE",
"358 285 OFFCURVE",
"297 285 CURVE SMOOTH",
"266 285 OFFCURVE",
"242 291 OFFCURVE",
"227 299 CURVE",
"227 228 LINE",
"245 224 OFFCURVE",
"274 220 OFFCURVE",
"293 220 CURVE SMOOTH",
"442 220 OFFCURVE",
"538 304 OFFCURVE",
"538 411 CURVE SMOOTH",
"538 522 OFFCURVE",
"449 588 OFFCURVE",
"302 588 CURVE SMOOTH",
"256 588 OFFCURVE",
"222 586 OFFCURVE",
"188 586 CURVE SMOOTH",
"126 586 OFFCURVE",
"68 586 OFFCURVE",
"38 588 CURVE",
"35 533 LINE",
"60 532 OFFCURVE",
"88 529 OFFCURVE",
"99 520 CURVE",
"103 513 OFFCURVE",
"106 451 OFFCURVE",
"106 366 CURVE SMOOTH",
"106 221 LINE SMOOTH",
"106 137 OFFCURVE",
"103 75 OFFCURVE",
"99 67 CURVE",
"88 59 OFFCURVE",
"62 54 OFFCURVE",
"39 50 CURVE",
"42 -5 LINE"
);
}
);
};
color = -1;
layerId = "C0B3E82F-C341-4413-A405-AFA97EAADFAC";
paths = (
{
closed = 1;
nodes = (
"68 -2 OFFCURVE",
"140 -1 OFFCURVE",
"182 -1 CURVE SMOOTH",
"225 -1 OFFCURVE",
"297 -2 OFFCURVE",
"330 -5 CURVE",
"333 52 LINE",
"305 55 OFFCURVE",
"278 59 OFFCURVE",
"248 67 CURVE",
"245 75 OFFCURVE",
"241 137 OFFCURVE",
"241 170 CURVE SMOOTH",
"241 343 LINE SMOOTH",
"241 467 OFFCURVE",
"241 510 OFFCURVE",
"242 525 CURVE",
"253 528 OFFCURVE",
"265 530 OFFCURVE",
"283 530 CURVE SMOOTH",
"346 530 OFFCURVE",
"392 487 OFFCURVE",
"392 395 CURVE SMOOTH",
"392 326 OFFCURVE",
"358 285 OFFCURVE",
"297 285 CURVE SMOOTH",
"266 285 OFFCURVE",
"242 291 OFFCURVE",
"227 299 CURVE",
"227 227 LINE",
"247 223 OFFCURVE",
"273 220 OFFCURVE",
"297 220 CURVE SMOOTH",
"450 220 OFFCURVE",
"538 304 OFFCURVE",
"538 405 CURVE SMOOTH",
"538 522 OFFCURVE",
"449 588 OFFCURVE",
"302 588 CURVE SMOOTH",
"256 588 OFFCURVE",
"222 586 OFFCURVE",
"188 586 CURVE SMOOTH",
"126 586 OFFCURVE",
"66 586 OFFCURVE",
"36 588 CURVE",
"33 533 LINE",
"58 532 OFFCURVE",
"86 529 OFFCURVE",
"97 520 CURVE",
"101 513 OFFCURVE",
"104 451 OFFCURVE",
"104 366 CURVE SMOOTH",
"104 221 LINE SMOOTH",
"104 137 OFFCURVE",
"101 75 OFFCURVE",
"97 67 CURVE",
"86 59 OFFCURVE",
"60 54 OFFCURVE",
"37 50 CURVE",
"40 -5 LINE"
);
}
);
width = 572;
}
);
leftKerningGroup = B;
note = P;
rightKerningGroup = P;
unicode = 0050;
},
{
glyphname = Thorn;
lastChange = "2018-05-31 14:32:51 +0000";
layers = (
{
background = {
paths = (
{
closed = 1;
nodes = (
"678 -1 OFFCURVE",
"724 2 OFFCURVE",
"757 2 CURVE SMOOTH",
"790 2 OFFCURVE",
"835 -1 OFFCURVE",
"877 -3 CURVE",
"879 40 LINE",
"845 41 OFFCURVE",
"811 48 OFFCURVE",
"803 52 CURVE",
"801 59 OFFCURVE",
"799 82 OFFCURVE",
"799 117 CURVE SMOOTH",
"799 432 LINE",
"812 435 OFFCURVE",
"828 435 OFFCURVE",
"841 435 CURVE SMOOTH",
"932 435 OFFCURVE",
"985 387 OFFCURVE",
"985 298 CURVE SMOOTH",
"985 216 OFFCURVE",
"936 177 OFFCURVE",
"858 177 CURVE SMOOTH",
"834 177 OFFCURVE",
"811 180 OFFCURVE",
"786 188 CURVE",
"786 140 LINE",
"805 134 OFFCURVE",
"837 130 OFFCURVE",
"856 130 CURVE SMOOTH",
"980 130 OFFCURVE",
"1076 199 OFFCURVE",
"1076 310 CURVE SMOOTH",
"1076 421 OFFCURVE",
"996 480 OFFCURVE",
"849 480 CURVE SMOOTH",
"827 480 OFFCURVE",
"805 479 OFFCURVE",
"782 477 CURVE",
"799 451 LINE",
"799 492 LINE SMOOTH",
"799 515 OFFCURVE",
"801 528 OFFCURVE",
"803 534 CURVE",
"811 539 OFFCURVE",
"842 547 OFFCURVE",
"864 548 CURVE",
"862 589 LINE",
"833 587 OFFCURVE",
"790 585 OFFCURVE",
"757 585 CURVE SMOOTH",
"724 585 OFFCURVE",
"678 587 OFFCURVE",
"650 589 CURVE",
"648 548 LINE",
"669 547 OFFCURVE",
"700 539 OFFCURVE",
"707 534 CURVE",
"710 528 OFFCURVE",
"713 496 OFFCURVE",
"713 387 CURVE SMOOTH",
"713 199 LINE SMOOTH",
"713 91 OFFCURVE",
"710 59 OFFCURVE",
"707 52 CURVE",
"700 48 OFFCURVE",
"669 40 OFFCURVE",
"645 38 CURVE",
"647 -3 LINE"
);
},
{
closed = 1;
nodes = (
"80 -108 OFFCURVE",
"133 -106 OFFCURVE",
"166 -106 CURVE SMOOTH",
"199 -106 OFFCURVE",
"251 -108 OFFCURVE",
"282 -110 CURVE",
"284 -68 LINE",
"249 -64 OFFCURVE",
"216 -57 OFFCURVE",
"205 -54 CURVE",
"201 -48 OFFCURVE",
"198 -16 OFFCURVE",
"198 81 CURVE SMOOTH",
"198 300 LINE SMOOTH",
"198 359 OFFCURVE",
"199 421 OFFCURVE",
"200 431 CURVE",
"218 435 OFFCURVE",
"231 436 OFFCURVE",
"253 436 CURVE SMOOTH",
"325 436 OFFCURVE",
"382 393 OFFCURVE",
"382 298 CURVE SMOOTH",
"382 216 OFFCURVE",
"335 177 OFFCURVE",
"267 177 CURVE SMOOTH",
"233 177 OFFCURVE",
"211 182 OFFCURVE",
"182 190 CURVE",
"182 135 LINE",
"204 131 OFFCURVE",
"229 128 OFFCURVE",
"267 128 CURVE SMOOTH",
"377 128 OFFCURVE",
"472 199 OFFCURVE",
"472 311 CURVE SMOOTH",
"472 420 OFFCURVE",
"394 481 OFFCURVE",
"262 481 CURVE SMOOTH",
"223 481 OFFCURVE",
"193 479 OFFCURVE",
"166 479 CURVE SMOOTH",
"120 479 OFFCURVE",
"78 480 OFFCURVE",
"47 481 CURVE",
"45 440 LINE",
"69 439 OFFCURVE",
"100 432 OFFCURVE",
"107 427 CURVE",
"110 421 OFFCURVE",
"113 389 OFFCURVE",
"113 280 CURVE SMOOTH",
"113 92 LINE SMOOTH",
"113 -16 OFFCURVE",
"110 -48 OFFCURVE",
"107 -55 CURVE",
"100 -59 OFFCURVE",
"70 -67 OFFCURVE",
"50 -69 CURVE",
"52 -110 LINE"
);
}
);
};
color = -1;
layerId = "30A8E426-80C1-4FA7-AECB-85F4920FB6F7";
paths = (
{
closed = 1;
nodes = (
"78 -1 OFFCURVE",
"124 2 OFFCURVE",
"157 2 CURVE SMOOTH",
"190 2 OFFCURVE",
"235 -1 OFFCURVE",
"277 -3 CURVE",
"279 40 LINE",
"245 41 OFFCURVE",
"211 48 OFFCURVE",
"203 52 CURVE",
"201 59 OFFCURVE",
"198 82 OFFCURVE",
"198 117 CURVE SMOOTH",
"198 432 LINE",
"215 435 OFFCURVE",
"231 436 OFFCURVE",
"251 436 CURVE SMOOTH",
"325 436 OFFCURVE",
"382 393 OFFCURVE",
"382 298 CURVE SMOOTH",
"382 216 OFFCURVE",
"334 177 OFFCURVE",
"261 177 CURVE SMOOTH",
"232 177 OFFCURVE",
"207 181 OFFCURVE",
"182 188 CURVE",
"182 138 LINE",
"204 133 OFFCURVE",
"239 130 OFFCURVE",
"265 130 CURVE SMOOTH",
"377 130 OFFCURVE",
"472 199 OFFCURVE",
"472 311 CURVE SMOOTH",
"472 420 OFFCURVE",
"394 481 OFFCURVE",
"254 481 CURVE SMOOTH",
"227 481 OFFCURVE",
"205 479 OFFCURVE",
"182 476 CURVE",
"199 451 LINE",
"199 492 LINE SMOOTH",
"199 515 OFFCURVE",
"201 528 OFFCURVE",
"203 534 CURVE",
"211 539 OFFCURVE",
"242 547 OFFCURVE",
"264 548 CURVE",
"262 589 LINE",
"233 587 OFFCURVE",
"190 585 OFFCURVE",
"157 585 CURVE SMOOTH",
"124 585 OFFCURVE",
"78 587 OFFCURVE",
"50 589 CURVE",
"48 548 LINE",
"69 547 OFFCURVE",
"100 539 OFFCURVE",
"107 534 CURVE",
"110 528 OFFCURVE",
"113 496 OFFCURVE",
"113 387 CURVE SMOOTH",
"113 199 LINE SMOOTH",
"113 91 OFFCURVE",
"110 59 OFFCURVE",
"107 52 CURVE",
"100 48 OFFCURVE",
"69 40 OFFCURVE",
"45 38 CURVE",
"47 -3 LINE"
);
}
);
width = 516;
},
{
background = {
paths = (
{
closed = 1;
nodes = (
"666 -2 OFFCURVE",
"718 2 OFFCURVE",
"772 2 CURVE SMOOTH",
"826 2 OFFCURVE",
"879 -2 OFFCURVE",
"920 -5 CURVE",
"923 51 LINE",
"886 54 OFFCURVE",
"858 59 OFFCURVE",
"843 67 CURVE",
"843 75 OFFCURVE",
"841 98 OFFCURVE",
"841 129 CURVE SMOOTH",
"841 428 LINE",
"855 432 OFFCURVE",
"866 432 OFFCURVE",
"876 432 CURVE SMOOTH",
"951 432 OFFCURVE",
"992 382 OFFCURVE",
"992 297 CURVE SMOOTH",
"992 228 OFFCURVE",
"957 188 OFFCURVE",
"894 188 CURVE SMOOTH",
"866 188 OFFCURVE",
"842 191 OFFCURVE",
"826 198 CURVE",
"826 137 LINE",
"845 130 OFFCURVE",
"866 125 OFFCURVE",
"890 125 CURVE SMOOTH",
"1042 125 OFFCURVE",
"1137 206 OFFCURVE",
"1137 312 CURVE SMOOTH",
"1137 428 OFFCURVE",
"1049 489 OFFCURVE",
"895 489 CURVE SMOOTH",
"855 489 OFFCURVE",
"825 486 OFFCURVE",
"807 481 CURVE",
"841 434 LINE",
"841 493 LINE SMOOTH",
"841 506 OFFCURVE",
"843 514 OFFCURVE",
"845 520 CURVE",
"858 529 OFFCURVE",
"884 534 OFFCURVE",
"909 536 CURVE",
"906 591 LINE",
"877 589 OFFCURVE",
"826 586 OFFCURVE",
"772 586 CURVE SMOOTH",
"718 586 OFFCURVE",
"666 589 OFFCURVE",
"635 591 CURVE",
"632 536 LINE",
"658 534 OFFCURVE",
"686 529 OFFCURVE",
"697 520 CURVE",
"701 513 OFFCURVE",
"704 451 OFFCURVE",
"704 366 CURVE SMOOTH",
"704 221 LINE SMOOTH",
"704 137 OFFCURVE",
"701 75 OFFCURVE",
"697 67 CURVE",
"686 59 OFFCURVE",
"658 54 OFFCURVE",
"633 50 CURVE",
"636 -5 LINE"
);
},
{
closed = 1;
nodes = (
"68 -100 OFFCURVE",
"140 -99 OFFCURVE",
"182 -99 CURVE SMOOTH",
"225 -99 OFFCURVE",
"297 -100 OFFCURVE",
"330 -103 CURVE",
"333 -46 LINE",
"305 -43 OFFCURVE",
"278 -39 OFFCURVE",
"248 -31 CURVE",
"245 -23 OFFCURVE",
"241 39 OFFCURVE",
"241 72 CURVE SMOOTH",
"241 245 LINE SMOOTH",
"241 369 OFFCURVE",
"241 412 OFFCURVE",
"242 427 CURVE",
"253 430 OFFCURVE",
"265 432 OFFCURVE",
"283 432 CURVE SMOOTH",
"346 432 OFFCURVE",
"392 389 OFFCURVE",
"392 297 CURVE SMOOTH",
"392 228 OFFCURVE",
"358 187 OFFCURVE",
"297 187 CURVE SMOOTH",
"266 187 OFFCURVE",
"242 193 OFFCURVE",
"227 201 CURVE",
"227 129 LINE",
"247 125 OFFCURVE",
"273 122 OFFCURVE",
"297 122 CURVE SMOOTH",
"450 122 OFFCURVE",
"538 206 OFFCURVE",
"538 307 CURVE SMOOTH",
"538 424 OFFCURVE",
"449 490 OFFCURVE",
"302 490 CURVE SMOOTH",
"256 490 OFFCURVE",
"222 488 OFFCURVE",
"188 488 CURVE SMOOTH",
"126 488 OFFCURVE",
"66 488 OFFCURVE",
"36 490 CURVE",
"33 435 LINE",
"58 434 OFFCURVE",
"86 431 OFFCURVE",
"97 422 CURVE",
"101 415 OFFCURVE",
"104 353 OFFCURVE",
"104 268 CURVE SMOOTH",
"104 123 LINE SMOOTH",
"104 39 OFFCURVE",
"101 -23 OFFCURVE",
"97 -31 CURVE",
"86 -39 OFFCURVE",
"60 -44 OFFCURVE",
"37 -48 CURVE",
"40 -103 LINE"
);
}
);
};
color = -1;
layerId = "C0B3E82F-C341-4413-A405-AFA97EAADFAC";
paths = (
{
closed = 1;
nodes = (
"66 -2 OFFCURVE",
"118 2 OFFCURVE",
"172 2 CURVE SMOOTH",
"226 2 OFFCURVE",
"279 -2 OFFCURVE",
"320 -5 CURVE",
"323 51 LINE",
"286 54 OFFCURVE",
"258 59 OFFCURVE",
"243 67 CURVE",
"243 75 OFFCURVE",
"241 98 OFFCURVE",
"241 129 CURVE SMOOTH",
"241 427 LINE",
"253 430 OFFCURVE",
"265 432 OFFCURVE",
"283 432 CURVE SMOOTH",
"346 432 OFFCURVE",
"392 389 OFFCURVE",
"392 297 CURVE SMOOTH",
"392 228 OFFCURVE",
"358 187 OFFCURVE",
"291 187 CURVE SMOOTH",
"266 187 OFFCURVE",
"242 192 OFFCURVE",
"227 197 CURVE",
"227 132 LINE",
"247 128 OFFCURVE",
"273 125 OFFCURVE",
"299 125 CURVE SMOOTH",
"450 125 OFFCURVE",
"538 206 OFFCURVE",
"538 307 CURVE SMOOTH",
"538 424 OFFCURVE",
"449 490 OFFCURVE",
"296 490 CURVE SMOOTH",
"261 490 OFFCURVE",
"225 486 OFFCURVE",
"207 484 CURVE",
"241 434 LINE",
"241 493 LINE SMOOTH",
"241 506 OFFCURVE",
"243 514 OFFCURVE",
"245 520 CURVE",
"258 529 OFFCURVE",
"284 534 OFFCURVE",
"309 536 CURVE",
"306 591 LINE",
"277 589 OFFCURVE",
"226 586 OFFCURVE",
"172 586 CURVE SMOOTH",
"118 586 OFFCURVE",
"66 589 OFFCURVE",
"35 591 CURVE",
"32 536 LINE",
"58 534 OFFCURVE",
"86 529 OFFCURVE",
"97 520 CURVE",
"101 513 OFFCURVE",
"104 451 OFFCURVE",
"104 366 CURVE SMOOTH",
"104 221 LINE SMOOTH",
"104 137 OFFCURVE",
"101 75 OFFCURVE",
"97 67 CURVE",
"86 59 OFFCURVE",
"58 54 OFFCURVE",
"33 50 CURVE",
"36 -5 LINE"
);
}
);
width = 572;
}
);
leftKerningGroup = B;
note = Thorn;
rightKerningGroup = Thorn;
unicode = 00DE;
},
{
glyphname = Q;
lastChange = "2018-05-31 14:32:51 +0000";
layers = (
{
anchors = (
{
name = bottom;
position = "{343, 0}";
},
{
name = top;
position = "{343, 587}";
}
);
background = {
anchors = (
{
name = bottom;
position = "{1143, 0}";
},
{
name = top;
position = "{1143, 587}";
}
);
paths = (
{
closed = 1;
nodes = (
"355 -6 LINE",
"509 -6 OFFCURVE",
"636 120 OFFCURVE",
"636 298 CURVE SMOOTH",
"636 474 OFFCURVE",
"519 596 OFFCURVE",
"352 596 CURVE SMOOTH",
"180 596 OFFCURVE",
"51 467 OFFCURVE",
"51 291 CURVE SMOOTH",
"51 114 OFFCURVE",
"174 -8 OFFCURVE",
"349 -8 CURVE"
);
},
{
closed = 1;
nodes = (
"648 -135 OFFCURVE",
"694 -123 OFFCURVE",
"728 -103 CURVE",
"719 -63 LINE",
"698 -69 OFFCURVE",
"677 -72 OFFCURVE",
"657 -72 CURVE SMOOTH",
"615 -72 OFFCURVE",
"577 -61 OFFCURVE",
"528 -33 CURVE SMOOTH",
"489 -11 OFFCURVE",
"455 2 OFFCURVE",
"409 7 CURVE",
"277 7 LINE",
"308 -4 OFFCURVE",
"335 -22 OFFCURVE",
"365 -42 CURVE SMOOTH",
"392 -60 OFFCURVE",
"417 -74 OFFCURVE",
"441 -88 CURVE SMOOTH",
"489 -116 OFFCURVE",
"538 -135 OFFCURVE",
"600 -135 CURVE SMOOTH"
);
},
{
closed = 1;
nodes = (
"240 45 OFFCURVE",
"155 155 OFFCURVE",
"155 310 CURVE SMOOTH",
"155 455 OFFCURVE",
"225 545 OFFCURVE",
"340 545 CURVE SMOOTH",
"456 545 OFFCURVE",
"535 435 OFFCURVE",
"535 274 CURVE SMOOTH",
"535 134 OFFCURVE",
"466 45 OFFCURVE",
"359 45 CURVE SMOOTH"
);
}
);
};
color = -1;
layerId = "30A8E426-80C1-4FA7-AECB-85F4920FB6F7";
paths = (
{
closed = 1;
nodes = (
"359 -6 LINE",
"506 -6 OFFCURVE",
"636 119 OFFCURVE",
"636 298 CURVE SMOOTH",
"636 474 OFFCURVE",
"519 596 OFFCURVE",
"352 596 CURVE SMOOTH",
"179 596 OFFCURVE",
"51 466 OFFCURVE",
"51 291 CURVE SMOOTH",
"51 114 OFFCURVE",
"174 -8 OFFCURVE",
"349 -8 CURVE"
);
},
{
closed = 1;
nodes = (
"648 -135 OFFCURVE",
"694 -123 OFFCURVE",
"728 -103 CURVE",
"719 -63 LINE",
"698 -69 OFFCURVE",
"677 -72 OFFCURVE",
"657 -72 CURVE SMOOTH",
"615 -72 OFFCURVE",
"577 -61 OFFCURVE",
"528 -33 CURVE SMOOTH",
"489 -11 OFFCURVE",
"455 2 OFFCURVE",
"409 7 CURVE",
"275 7 LINE",
"319 -5 OFFCURVE",
"389 -58 OFFCURVE",
"433 -83 CURVE SMOOTH",
"503 -123 OFFCURVE",
"545 -135 OFFCURVE",
"600 -135 CURVE SMOOTH"
);
},
{
closed = 1;
nodes = (
"240 45 OFFCURVE",
"155 155 OFFCURVE",
"155 310 CURVE SMOOTH",
"155 456 OFFCURVE",
"225 546 OFFCURVE",
"340 546 CURVE SMOOTH",
"456 546 OFFCURVE",
"535 435 OFFCURVE",
"535 274 CURVE SMOOTH",
"535 134 OFFCURVE",
"466 45 OFFCURVE",
"359 45 CURVE SMOOTH"
);
}
);
width = 687;
},
{
anchors = (
{
name = bottom;
position = "{356, 0}";
},
{
name = top;
position = "{356, 587}";
}
);
background = {
anchors = (
{
name = bottom;
position = "{1056, 0}";
},
{
name = top;
position = "{1056, 587}";
}
);
paths = (
{
closed = 1;
nodes = (
"367 -4 LINE",
"506 -4 OFFCURVE",
"667 95 OFFCURVE",
"667 302 CURVE SMOOTH",
"667 476 OFFCURVE",
"541 596 OFFCURVE",
"363 596 CURVE SMOOTH",
"180 596 OFFCURVE",
"45 466 OFFCURVE",
"45 286 CURVE SMOOTH",
"45 113 OFFCURVE",
"179 -7 OFFCURVE",
"363 -7 CURVE"
);
},
{
closed = 1;
nodes = (
"670 -148 OFFCURVE",
"721 -131 OFFCURVE",
"756 -108 CURVE",
"742 -54 LINE",
"717 -61 OFFCURVE",
"694 -63 OFFCURVE",
"677 -63 CURVE SMOOTH",
"637 -63 OFFCURVE",
"612 -54 OFFCURVE",
"562 -23 CURVE SMOOTH",
"524 1 OFFCURVE",
"477 12 OFFCURVE",
"428 14 CURVE",
"258 14 LINE",
"290 0 OFFCURVE",
"314 -13 OFFCURVE",
"332 -29 CURVE SMOOTH",
"345 -40 OFFCURVE",
"363 -53 OFFCURVE",
"379 -66 CURVE SMOOTH",
"434 -111 OFFCURVE",
"500 -148 OFFCURVE",
"612 -148 CURVE SMOOTH"
);
},
{
closed = 1;
nodes = (
"274 66 OFFCURVE",
"206 168 OFFCURVE",
"206 316 CURVE SMOOTH",
"206 446 OFFCURVE",
"259 529 OFFCURVE",
"351 529 CURVE SMOOTH",
"447 529 OFFCURVE",
"508 428 OFFCURVE",
"508 276 CURVE SMOOTH",
"508 140 OFFCURVE",
"460 66 OFFCURVE",
"370 66 CURVE SMOOTH"
);
}
);
};
color = -1;
layerId = "C0B3E82F-C341-4413-A405-AFA97EAADFAC";
paths = (
{
closed = 1;
nodes = (
"376 -4 LINE",
"501 -4 OFFCURVE",
"667 95 OFFCURVE",
"667 302 CURVE SMOOTH",
"667 475 OFFCURVE",
"542 596 OFFCURVE",
"363 596 CURVE SMOOTH",
"179 596 OFFCURVE",
"45 465 OFFCURVE",
"45 286 CURVE SMOOTH",
"45 114 OFFCURVE",
"178 -7 OFFCURVE",
"363 -7 CURVE"
);
},
{
closed = 1;
nodes = (
"670 -148 OFFCURVE",
"721 -131 OFFCURVE",
"756 -108 CURVE",
"742 -54 LINE",
"717 -61 OFFCURVE",
"694 -63 OFFCURVE",
"677 -63 CURVE SMOOTH",
"637 -63 OFFCURVE",
"612 -54 OFFCURVE",
"562 -23 CURVE SMOOTH",
"524 1 OFFCURVE",
"477 12 OFFCURVE",
"428 14 CURVE",
"258 14 LINE",
"301 -4 OFFCURVE",
"328 -23 OFFCURVE",
"379 -66 CURVE SMOOTH",
"433 -111 OFFCURVE",
"500 -148 OFFCURVE",
"612 -148 CURVE SMOOTH"
);
},
{
closed = 1;
nodes = (
"273 66 OFFCURVE",
"206 169 OFFCURVE",
"206 316 CURVE SMOOTH",
"206 449 OFFCURVE",
"261 529 OFFCURVE",
"351 529 CURVE SMOOTH",
"446 529 OFFCURVE",
"508 429 OFFCURVE",
"508 276 CURVE SMOOTH",
"508 140 OFFCURVE",
"460 66 OFFCURVE",
"370 66 CURVE SMOOTH"
);
}
);
width = 712;
}
);
leftKerningGroup = C;
leftMetricsKey = O;
widthMetricsKey = O;
note = Q;
rightKerningGroup = D;
unicode = 0051;
},
{
glyphname = R;
lastChange = "2018-05-31 14:32:51 +0000";
layers = (
{
anchors = (
{
name = bottom;
position = "{311, 0}";
},
{
name = top;
position = "{268, 587}";
}
);
background = {
anchors = (
{
name = bottom;
position = "{311, 0}";
},
{
name = top;
position = "{268, 587}";
}
);
paths = (
{
closed = 1;
nodes = (
"78 -1 OFFCURVE",
"123 2 OFFCURVE",
"156 2 CURVE SMOOTH",
"189 2 OFFCURVE",
"232 -1 OFFCURVE",
"263 -3 CURVE",
"265 38 LINE",
"242 40 OFFCURVE",
"213 48 OFFCURVE",
"203 52 CURVE",
"200 59 OFFCURVE",
"198 91 OFFCURVE",
"198 199 CURVE SMOOTH",
"198 402 LINE SMOOTH",
"198 488 OFFCURVE",
"198 533 OFFCURVE",
"200 540 CURVE",
"211 544 OFFCURVE",
"234 546 OFFCURVE",
"257 546 CURVE SMOOTH",
"328 546 OFFCURVE",
"372 511 OFFCURVE",
"372 436 CURVE SMOOTH",
"372 361 OFFCURVE",
"322 318 OFFCURVE",
"240 318 CURVE SMOOTH",
"222 318 OFFCURVE",
"207 318 OFFCURVE",
"185 319 CURVE",
"185 273 LINE",
"248 273 LINE SMOOTH",
"372 273 OFFCURVE",
"462 344 OFFCURVE",
"462 444 CURVE SMOOTH",
"462 539 OFFCURVE",
"397 589 OFFCURVE",
"272 589 CURVE SMOOTH",
"221 589 OFFCURVE",
"176 586 OFFCURVE",
"144 586 CURVE SMOOTH",
"111 586 OFFCURVE",
"81 586 OFFCURVE",
"46 588 CURVE",
"44 546 LINE",
"68 547 OFFCURVE",
"99 541 OFFCURVE",
"106 536 CURVE",
"109 530 OFFCURVE",
"112 496 OFFCURVE",
"112 387 CURVE SMOOTH",
"112 199 LINE SMOOTH",
"112 91 OFFCURVE",
"109 59 OFFCURVE",
"106 52 CURVE",
"99 48 OFFCURVE",
"69 40 OFFCURVE",
"46 38 CURVE",
"48 -3 LINE"
);
},
{
closed = 1;
nodes = (
"539 -10 OFFCURVE",
"556 -8 OFFCURVE",
"569 -6 CURVE",
"570 30 LINE",
"523 38 OFFCURVE",
"493 59 OFFCURVE",
"428 148 CURVE SMOOTH",
"320 307 LINE",
"245 290 LINE",
"313 166 LINE SMOOTH",
"386 33 OFFCURVE",
"437 -10 OFFCURVE",
"526 -10 CURVE SMOOTH"
);
}
);
};
color = -1;
layerId = "30A8E426-80C1-4FA7-AECB-85F4920FB6F7";
paths = (
{
closed = 1;
nodes = (
"79 -1 OFFCURVE",
"124 2 OFFCURVE",
"156 2 CURVE SMOOTH",
"189 2 OFFCURVE",
"231 -1 OFFCURVE",
"262 -3 CURVE",
"264 38 LINE",
"241 40 OFFCURVE",
"213 48 OFFCURVE",
"203 52 CURVE",
"200 59 OFFCURVE",
"197 91 OFFCURVE",
"197 199 CURVE SMOOTH",
"197 402 LINE SMOOTH",
"197 488 OFFCURVE",
"197 533 OFFCURVE",
"199 540 CURVE",
"210 544 OFFCURVE",
"233 546 OFFCURVE",
"257 546 CURVE SMOOTH",
"328 546 OFFCURVE",
"372 510 OFFCURVE",
"372 435 CURVE SMOOTH",
"372 361 OFFCURVE",
"323 318 OFFCURVE",
"242 318 CURVE SMOOTH",
"223 318 OFFCURVE",
"207 318 OFFCURVE",
"185 320 CURVE",
"185 273 LINE",
"248 273 LINE SMOOTH",
"372 273 OFFCURVE",
"462 344 OFFCURVE",
"462 444 CURVE SMOOTH",
"462 539 OFFCURVE",
"395 589 OFFCURVE",
"268 589 CURVE SMOOTH",
"219 589 OFFCURVE",
"176 586 OFFCURVE",
"144 586 CURVE SMOOTH",
"112 586 OFFCURVE",
"82 586 OFFCURVE",
"47 588 CURVE",
"45 546 LINE",
"69 547 OFFCURVE",
"100 541 OFFCURVE",
"107 536 CURVE",
"110 530 OFFCURVE",
"113 496 OFFCURVE",
"113 387 CURVE SMOOTH",
"113 199 LINE SMOOTH",
"113 91 OFFCURVE",
"110 59 OFFCURVE",
"109 52 CURVE",
"100 48 OFFCURVE",
"70 40 OFFCURVE",
"48 38 CURVE",
"50 -3 LINE"
);
},
{
closed = 1;
nodes = (
"539 -10 OFFCURVE",
"556 -8 OFFCURVE",
"569 -6 CURVE",
"570 30 LINE",
"523 38 OFFCURVE",
"493 59 OFFCURVE",
"428 148 CURVE SMOOTH",
"320 307 LINE",
"245 290 LINE",
"313 166 LINE SMOOTH",
"386 33 OFFCURVE",
"437 -10 OFFCURVE",
"526 -10 CURVE SMOOTH"
);
}
);
width = 569;
},
{
anchors = (
{
name = bottom;
position = "{335, 0}";
},
{
name = top;
position = "{302, 587}";
}
);
background = {
anchors = (
{
name = bottom;
position = "{335, 0}";
},
{
name = top;
position = "{302, 587}";
}
);
paths = (
{
closed = 1;
nodes = (
"67 -2 OFFCURVE",
"117 2 OFFCURVE",
"171 2 CURVE SMOOTH",
"225 2 OFFCURVE",
"274 -2 OFFCURVE",
"297 -5 CURVE",
"300 50 LINE",
"280 53 OFFCURVE",
"254 58 OFFCURVE",
"243 67 CURVE",
"243 77 OFFCURVE",
"240 137 OFFCURVE",
"240 221 CURVE SMOOTH",
"240 373 LINE SMOOTH",
"240 463 OFFCURVE",
"243 525 OFFCURVE",
"244 531 CURVE",
"254 534 OFFCURVE",
"266 536 OFFCURVE",
"280 536 CURVE SMOOTH",
"334 536 OFFCURVE",
"379 506 OFFCURVE",
"379 437 CURVE SMOOTH",
"379 360 OFFCURVE",
"324 327 OFFCURVE",
"269 327 CURVE SMOOTH",
"260 327 OFFCURVE",
"246 327 OFFCURVE",
"232 327 CURVE",
"232 269 LINE",
"289 269 LINE SMOOTH",
"424 268 OFFCURVE",
"523 340 OFFCURVE",
"523 437 CURVE SMOOTH",
"523 547 OFFCURVE",
"438 590 OFFCURVE",
"296 590 CURVE SMOOTH",
"255 590 OFFCURVE",
"208 586 OFFCURVE",
"176 586 CURVE SMOOTH",
"133 586 OFFCURVE",
"87 586 OFFCURVE",
"35 589 CURVE",
"32 533 LINE",
"57 533 OFFCURVE",
"85 528 OFFCURVE",
"96 519 CURVE",
"100 512 OFFCURVE",
"103 451 OFFCURVE",
"103 366 CURVE SMOOTH",
"103 221 LINE SMOOTH",
"103 137 OFFCURVE",
"101 75 OFFCURVE",
"98 67 CURVE",
"86 59 OFFCURVE",
"59 54 OFFCURVE",
"35 50 CURVE",
"38 -5 LINE"
);
},
{
closed = 1;
nodes = (
"585 -12 OFFCURVE",
"606 -10 OFFCURVE",
"628 -6 CURVE",
"629 41 LINE",
"582 53 OFFCURVE",
"532 94 OFFCURVE",
"499 141 CURVE SMOOTH",
"380 307 LINE",
"268 281 LINE",
"324 158 LINE SMOOTH",
"377 42 OFFCURVE",
"449 -12 OFFCURVE",
"564 -12 CURVE SMOOTH"
);
}
);
};
color = -1;
layerId = "C0B3E82F-C341-4413-A405-AFA97EAADFAC";
paths = (
{
closed = 1;
nodes = (
"68 -2 OFFCURVE",
"118 2 OFFCURVE",
"171 2 CURVE SMOOTH",
"225 2 OFFCURVE",
"274 -2 OFFCURVE",
"297 -5 CURVE",
"300 50 LINE",
"280 53 OFFCURVE",
"255 58 OFFCURVE",
"244 67 CURVE",
"243 79 OFFCURVE",
"240 137 OFFCURVE",
"240 221 CURVE SMOOTH",
"240 373 LINE SMOOTH",
"240 463 OFFCURVE",
"243 525 OFFCURVE",
"244 531 CURVE",
"254 534 OFFCURVE",
"266 536 OFFCURVE",
"280 536 CURVE SMOOTH",
"334 536 OFFCURVE",
"379 506 OFFCURVE",
"379 435 CURVE SMOOTH",
"379 356 OFFCURVE",
"324 323 OFFCURVE",
"269 323 CURVE SMOOTH",
"260 323 OFFCURVE",
"246 324 OFFCURVE",
"232 325 CURVE",
"232 265 LINE",
"289 265 LINE SMOOTH",
"424 265 OFFCURVE",
"523 336 OFFCURVE",
"523 435 CURVE SMOOTH",
"523 547 OFFCURVE",
"438 590 OFFCURVE",
"296 590 CURVE SMOOTH",
"255 590 OFFCURVE",
"208 586 OFFCURVE",
"176 586 CURVE SMOOTH",
"134 586 OFFCURVE",
"88 586 OFFCURVE",
"36 589 CURVE",
"33 533 LINE",
"58 533 OFFCURVE",
"86 528 OFFCURVE",
"97 519 CURVE",
"101 512 OFFCURVE",
"104 451 OFFCURVE",
"104 366 CURVE SMOOTH",
"104 221 LINE SMOOTH",
"104 137 OFFCURVE",
"102 75 OFFCURVE",
"101 67 CURVE",
"87 59 OFFCURVE",
"60 54 OFFCURVE",
"36 50 CURVE",
"39 -5 LINE"
);
},
{
closed = 1;
nodes = (
"585 -12 OFFCURVE",
"606 -10 OFFCURVE",
"628 -6 CURVE",
"629 41 LINE",
"582 53 OFFCURVE",
"542 81 OFFCURVE",
"499 141 CURVE SMOOTH",
"380 307 LINE",
"268 281 LINE",
"324 158 LINE SMOOTH",
"377 42 OFFCURVE",
"449 -12 OFFCURVE",
"564 -12 CURVE SMOOTH"
);
}
);
width = 616;
}
);
leftKerningGroup = B;
note = R;
rightKerningGroup = R;
unicode = 0052;
},
{
glyphname = S;
lastChange = "2018-05-31 14:32:51 +0000";
layers = (
{
anchors = (
{
name = bottom;
position = "{246, 0}";
},
{
name = top;
position = "{246, 587}";
}
);
background = {
anchors = (
{
name = bottom;
position = "{846, 0}";
},
{
name = top;
position = "{846, 587}";
}
);
paths = (
{
closed = 1;
nodes = (
"952 -9 OFFCURVE",
"1040 61 OFFCURVE",
"1040 159 CURVE SMOOTH",
"1040 232 OFFCURVE",
"1000 278 OFFCURVE",
"882 331 CURVE SMOOTH",
"787 374 OFFCURVE",
"754 405 OFFCURVE",
"754 459 CURVE SMOOTH",
"754 513 OFFCURVE",
"796 549 OFFCURVE",
"861 549 CURVE SMOOTH",
"891 549 OFFCURVE",
"917 543 OFFCURVE",
"939 529 CURVE",
"951 503 OFFCURVE",
"958 478 OFFCURVE",
"967 445 CURVE",
"1010 449 LINE",
"1002 574 LINE",
"968 589 OFFCURVE",
"920 597 OFFCURVE",
"871 597 CURVE SMOOTH",
"749 597 OFFCURVE",
"663 530 OFFCURVE",
"663 433 CURVE SMOOTH",
"663 357 OFFCURVE",
"705 311 OFFCURVE",
"823 257 CURVE SMOOTH",
"921 212 OFFCURVE",
"948 184 OFFCURVE",
"948 130 CURVE SMOOTH",
"948 75 OFFCURVE",
"906 41 OFFCURVE",
"843 41 CURVE SMOOTH",
"802 41 OFFCURVE",
"762 53 OFFCURVE",
"730 74 CURVE",
"721 102 OFFCURVE",
"712 130 OFFCURVE",
"702 165 CURVE",
"659 159 LINE",
"659 118 OFFCURVE",
"661 76 OFFCURVE",
"664 30 CURVE",
"703 7 OFFCURVE",
"772 -9 OFFCURVE",
"829 -9 CURVE SMOOTH"
);
},
{
closed = 1;
nodes = (
"352 -9 OFFCURVE",
"442 61 OFFCURVE",
"442 159 CURVE SMOOTH",
"442 230 OFFCURVE",
"400 276 OFFCURVE",
"282 329 CURVE SMOOTH",
"187 372 OFFCURVE",
"152 403 OFFCURVE",
"152 459 CURVE SMOOTH",
"152 513 OFFCURVE",
"196 549 OFFCURVE",
"261 549 CURVE SMOOTH",
"293 549 OFFCURVE",
"319 543 OFFCURVE",
"341 529 CURVE",
"353 503 OFFCURVE",
"360 478 OFFCURVE",
"369 445 CURVE",
"412 449 LINE",
"404 574 LINE",
"370 589 OFFCURVE",
"322 597 OFFCURVE",
"271 597 CURVE SMOOTH",
"149 597 OFFCURVE",
"61 530 OFFCURVE",
"61 433 CURVE SMOOTH",
"61 355 OFFCURVE",
"105 309 OFFCURVE",
"223 255 CURVE SMOOTH",
"322 210 OFFCURVE",
"350 182 OFFCURVE",
"350 130 CURVE SMOOTH",
"350 75 OFFCURVE",
"306 41 OFFCURVE",
"243 41 CURVE SMOOTH",
"202 41 OFFCURVE",
"162 53 OFFCURVE",
"130 74 CURVE",
"121 102 OFFCURVE",
"112 130 OFFCURVE",
"102 165 CURVE",
"59 159 LINE",
"59 118 OFFCURVE",
"61 76 OFFCURVE",
"64 30 CURVE",
"103 7 OFFCURVE",
"172 -9 OFFCURVE",
"229 -9 CURVE SMOOTH"
);
}
);
};
color = -1;
layerId = "30A8E426-80C1-4FA7-AECB-85F4920FB6F7";
paths = (
{
closed = 1;
nodes = (
"354 -9 OFFCURVE",
"444 61 OFFCURVE",
"444 157 CURVE SMOOTH",
"444 338 OFFCURVE",
"150 314 OFFCURVE",
"150 459 CURVE SMOOTH",
"150 513 OFFCURVE",
"194 549 OFFCURVE",
"261 549 CURVE SMOOTH",
"295 549 OFFCURVE",
"321 543 OFFCURVE",
"343 529 CURVE",
"355 503 OFFCURVE",
"362 478 OFFCURVE",
"371 445 CURVE",
"414 449 LINE",
"406 574 LINE",
"372 589 OFFCURVE",
"324 597 OFFCURVE",
"271 597 CURVE SMOOTH",
"147 597 OFFCURVE",
"59 530 OFFCURVE",
"59 433 CURVE SMOOTH",
"59 243 OFFCURVE",
"352 272 OFFCURVE",
"352 130 CURVE SMOOTH",
"352 75 OFFCURVE",
"308 41 OFFCURVE",
"243 41 CURVE SMOOTH",
"200 41 OFFCURVE",
"160 53 OFFCURVE",
"128 74 CURVE",
"119 102 OFFCURVE",
"110 130 OFFCURVE",
"100 165 CURVE",
"57 159 LINE",
"57 118 OFFCURVE",
"59 76 OFFCURVE",
"62 30 CURVE",
"101 7 OFFCURVE",
"170 -9 OFFCURVE",
"229 -9 CURVE SMOOTH"
);
}
);
width = 481;
},
{
anchors = (
{
name = bottom;
position = "{268, 0}";
},
{
name = top;
position = "{268, 587}";
}
);
background = {
paths = (
{
closed = 1;
nodes = (
"1091 -9 OFFCURVE",
"1192 66 OFFCURVE",
"1192 175 CURVE SMOOTH",
"1192 250 OFFCURVE",
"1149 301 OFFCURVE",
"1041 338 CURVE SMOOTH",
"937 374 OFFCURVE",
"900 404 OFFCURVE",
"900 457 CURVE SMOOTH",
"900 506 OFFCURVE",
"941 534 OFFCURVE",
"993 534 CURVE SMOOTH",
"1016 534 OFFCURVE",
"1039 531 OFFCURVE",
"1064 519 CURVE",
"1075 496 OFFCURVE",
"1087 458 OFFCURVE",
"1096 418 CURVE",
"1160 424 LINE",
"1148 571 LINE",
"1111 587 OFFCURVE",
"1049 598 OFFCURVE",
"1003 598 CURVE SMOOTH",
"855 598 OFFCURVE",
"756 525 OFFCURVE",
"756 417 CURVE SMOOTH",
"756 335 OFFCURVE",
"805 283 OFFCURVE",
"920 238 CURVE SMOOTH",
"1022 198 OFFCURVE",
"1045 173 OFFCURVE",
"1045 125 CURVE SMOOTH",
"1045 82 OFFCURVE",
"1012 57 OFFCURVE",
"953 57 CURVE SMOOTH",
"924 57 OFFCURVE",
"883 65 OFFCURVE",
"854 84 CURVE",
"841 118 OFFCURVE",
"829 154 OFFCURVE",
"820 190 CURVE",
"755 184 LINE",
"754 141 OFFCURVE",
"756 94 OFFCURVE",
"759 36 CURVE",
"808 8 OFFCURVE",
"883 -9 OFFCURVE",
"940 -9 CURVE SMOOTH"
);
},
{
closed = 1;
nodes = (
"391 -9 OFFCURVE",
"492 66 OFFCURVE",
"492 175 CURVE SMOOTH",
"492 250 OFFCURVE",
"449 301 OFFCURVE",
"341 338 CURVE SMOOTH",
"237 375 OFFCURVE",
"200 404 OFFCURVE",
"200 457 CURVE SMOOTH",
"200 506 OFFCURVE",
"241 534 OFFCURVE",
"293 534 CURVE SMOOTH",
"316 534 OFFCURVE",
"339 531 OFFCURVE",
"364 519 CURVE",
"375 496 OFFCURVE",
"387 458 OFFCURVE",
"396 418 CURVE",
"460 424 LINE",
"448 571 LINE",
"411 587 OFFCURVE",
"349 598 OFFCURVE",
"303 598 CURVE SMOOTH",
"155 598 OFFCURVE",
"56 525 OFFCURVE",
"56 417 CURVE SMOOTH",
"56 335 OFFCURVE",
"105 283 OFFCURVE",
"220 238 CURVE SMOOTH",
"321 197 OFFCURVE",
"345 173 OFFCURVE",
"345 125 CURVE SMOOTH",
"345 83 OFFCURVE",
"312 57 OFFCURVE",
"253 57 CURVE SMOOTH",
"224 57 OFFCURVE",
"183 65 OFFCURVE",
"154 84 CURVE",
"141 118 OFFCURVE",
"129 154 OFFCURVE",
"120 190 CURVE",
"55 184 LINE",
"54 141 OFFCURVE",
"56 94 OFFCURVE",
"59 36 CURVE",
"108 8 OFFCURVE",
"183 -9 OFFCURVE",
"240 -9 CURVE SMOOTH"
);
}
);
};
color = -1;
layerId = "C0B3E82F-C341-4413-A405-AFA97EAADFAC";
paths = (
{
closed = 1;
nodes = (
"391 -9 OFFCURVE",
"492 66 OFFCURVE",
"492 170 CURVE SMOOTH",
"492 361 OFFCURVE",
"200 325 OFFCURVE",
"200 457 CURVE SMOOTH",
"200 506 OFFCURVE",
"241 534 OFFCURVE",
"293 534 CURVE SMOOTH",
"316 534 OFFCURVE",
"339 531 OFFCURVE",
"364 519 CURVE",
"375 496 OFFCURVE",
"387 458 OFFCURVE",
"396 418 CURVE",
"460 424 LINE",
"448 571 LINE",
"411 587 OFFCURVE",
"349 598 OFFCURVE",
"303 598 CURVE SMOOTH",
"155 598 OFFCURVE",
"56 525 OFFCURVE",
"56 417 CURVE SMOOTH",
"56 214 OFFCURVE",
"345 263 OFFCURVE",
"345 125 CURVE SMOOTH",
"345 83 OFFCURVE",
"312 57 OFFCURVE",
"253 57 CURVE SMOOTH",
"224 57 OFFCURVE",
"183 65 OFFCURVE",
"154 84 CURVE",
"141 118 OFFCURVE",
"129 154 OFFCURVE",
"120 190 CURVE",
"55 184 LINE",
"54 141 OFFCURVE",
"56 94 OFFCURVE",
"59 36 CURVE",
"108 8 OFFCURVE",
"183 -9 OFFCURVE",
"240 -9 CURVE SMOOTH"
);
}
);
width = 513;
}
);
leftKerningGroup = S;
note = S;
rightKerningGroup = S;
unicode = 0053;
},
{
glyphname = Germandbls;
lastChange = "2018-05-31 14:32:51 +0000";
layers = (
{
background = {
paths = (
{
closed = 1;
nodes = (
"72 -1 OFFCURVE",
"115 2 OFFCURVE",
"148 2 CURVE SMOOTH",
"181 2 OFFCURVE",
"224 -1 OFFCURVE",
"254 -3 CURVE",
"256 38 LINE",
"233 39 OFFCURVE",
"204 48 OFFCURVE",
"198 52 CURVE",
"194 59 OFFCURVE",
"191 91 OFFCURVE",
"191 199 CURVE",
"190 378 LINE",
"190 487 OFFCURVE",
"245 547 OFFCURVE",
"334 547 CURVE SMOOTH",
"396 547 OFFCURVE",
"440 519 OFFCURVE",
"458 468 CURVE",
"521 468 LINE",
"486 559 OFFCURVE",
"416 597 OFFCURVE",
"332 597 CURVE SMOOTH",
"195 597 OFFCURVE",
"105 503 OFFCURVE",
"105 359 CURVE",
"106 199 LINE",
"106 91 OFFCURVE",
"102 59 OFFCURVE",
"99 52 CURVE",
"92 48 OFFCURVE",
"62 40 OFFCURVE",
"38 38 CURVE",
"40 -3 LINE"
);
},
{
closed = 1;
nodes = (
"578 -9 OFFCURVE",
"654 47 OFFCURVE",
"654 134 CURVE SMOOTH",
"654 293 OFFCURVE",
"402 266 OFFCURVE",
"402 375 CURVE SMOOTH",
"402 416 OFFCURVE",
"437 446 OFFCURVE",
"500 446 CURVE SMOOTH",
"523 446 OFFCURVE",
"542 444 OFFCURVE",
"560 437 CURVE",
"570 411 OFFCURVE",
"575 388 OFFCURVE",
"583 362 CURVE",
"625 365 LINE",
"618 474 LINE",
"589 484 OFFCURVE",
"542 491 OFFCURVE",
"502 491 CURVE SMOOTH",
"387 491 OFFCURVE",
"316 429 OFFCURVE",
"316 350 CURVE SMOOTH",
"316 188 OFFCURVE",
"567 223 OFFCURVE",
"567 109 CURVE SMOOTH",
"567 66 OFFCURVE",
"532 39 OFFCURVE",
"477 39 CURVE SMOOTH",
"444 39 OFFCURVE",
"408 49 OFFCURVE",
"379 68 CURVE",
"370 93 OFFCURVE",
"362 122 OFFCURVE",
"353 156 CURVE",
"309 150 LINE",
"309 111 OFFCURVE",
"311 67 OFFCURVE",
"315 26 CURVE",
"352 6 OFFCURVE",
"412 -9 OFFCURVE",
"468 -9 CURVE SMOOTH"
);
}
);
};
layerId = "30A8E426-80C1-4FA7-AECB-85F4920FB6F7";
paths = (
{
closed = 1;
nodes = (
"72 -1 OFFCURVE",
"115 2 OFFCURVE",
"148 2 CURVE SMOOTH",
"181 2 OFFCURVE",
"224 -1 OFFCURVE",
"254 -3 CURVE",
"256 38 LINE",
"233 39 OFFCURVE",
"204 48 OFFCURVE",
"198 52 CURVE",
"194 59 OFFCURVE",
"191 91 OFFCURVE",
"191 199 CURVE",
"190 378 LINE",
"190 487 OFFCURVE",
"243 549 OFFCURVE",
"334 549 CURVE SMOOTH",
"396 549 OFFCURVE",
"440 519 OFFCURVE",
"458 468 CURVE",
"521 468 LINE",
"484 559 OFFCURVE",
"416 597 OFFCURVE",
"333 597 CURVE SMOOTH",
"195 597 OFFCURVE",
"105 506 OFFCURVE",
"105 350 CURVE",
"106 199 LINE",
"106 91 OFFCURVE",
"102 59 OFFCURVE",
"99 52 CURVE",
"92 48 OFFCURVE",
"62 40 OFFCURVE",
"38 38 CURVE",
"40 -3 LINE"
);
},
{
closed = 1;
nodes = (
"578 -9 OFFCURVE",
"654 47 OFFCURVE",
"654 134 CURVE SMOOTH",
"654 293 OFFCURVE",
"402 266 OFFCURVE",
"402 375 CURVE SMOOTH",
"402 416 OFFCURVE",
"437 446 OFFCURVE",
"500 446 CURVE SMOOTH",
"523 446 OFFCURVE",
"542 444 OFFCURVE",
"560 437 CURVE",
"570 411 OFFCURVE",
"575 388 OFFCURVE",
"583 362 CURVE",
"625 365 LINE",
"618 474 LINE",
"589 484 OFFCURVE",
"542 491 OFFCURVE",
"502 491 CURVE SMOOTH",
"387 491 OFFCURVE",
"316 429 OFFCURVE",
"316 350 CURVE SMOOTH",
"316 188 OFFCURVE",
"567 223 OFFCURVE",
"567 109 CURVE SMOOTH",
"567 66 OFFCURVE",
"532 39 OFFCURVE",
"477 39 CURVE SMOOTH",
"444 39 OFFCURVE",
"408 49 OFFCURVE",
"379 68 CURVE",
"370 93 OFFCURVE",
"362 122 OFFCURVE",
"353 156 CURVE",
"309 150 LINE",
"309 111 OFFCURVE",
"311 67 OFFCURVE",
"315 26 CURVE",
"352 6 OFFCURVE",
"412 -9 OFFCURVE",
"468 -9 CURVE SMOOTH"
);
}
);
width = 695;
},
{
background = {
paths = (
{
closed = 1;
nodes = (
"67 -2 OFFCURVE",
"107 2 OFFCURVE",
"162 2 CURVE SMOOTH",
"215 2 OFFCURVE",
"263 -2 OFFCURVE",
"286 -4 CURVE",
"287 51 LINE",
"269 54 OFFCURVE",
"250 59 OFFCURVE",
"242 67 CURVE",
"238 75 OFFCURVE",
"235 137 OFFCURVE",
"234 221 CURVE",
"232 365 LINE",
"231 478 OFFCURVE",
"285 533 OFFCURVE",
"368 533 CURVE SMOOTH",
"419 533 OFFCURVE",
"465 517 OFFCURVE",
"487 466 CURVE",
"573 466 LINE",
"535 558 OFFCURVE",
"457 598 OFFCURVE",
"366 598 CURVE SMOOTH",
"197 598 OFFCURVE",
"96 492 OFFCURVE",
"96 332 CURVE",
"97 221 LINE",
"97 137 OFFCURVE",
"94 75 OFFCURVE",
"90 67 CURVE",
"79 59 OFFCURVE",
"60 54 OFFCURVE",
"34 50 CURVE",
"37 -5 LINE"
);
},
{
closed = 1;
nodes = (
"611 -9 OFFCURVE",
"705 55 OFFCURVE",
"705 145 CURVE SMOOTH",
"705 308 OFFCURVE",
"462 286 OFFCURVE",
"462 376 CURVE SMOOTH",
"462 416 OFFCURVE",
"497 435 OFFCURVE",
"540 435 CURVE SMOOTH",
"553 435 OFFCURVE",
"569 434 OFFCURVE",
"582 430 CURVE",
"594 409 OFFCURVE",
"604 376 OFFCURVE",
"611 340 CURVE",
"672 345 LINE",
"662 475 LINE",
"630 487 OFFCURVE",
"569 495 OFFCURVE",
"535 495 CURVE SMOOTH",
"424 495 OFFCURVE",
"333 425 OFFCURVE",
"333 335 CURVE SMOOTH",
"333 166 OFFCURVE",
"574 211 OFFCURVE",
"574 104 CURVE SMOOTH",
"574 67 OFFCURVE",
"536 53 OFFCURVE",
"494 53 CURVE SMOOTH",
"471 53 OFFCURVE",
"445 57 OFFCURVE",
"422 72 CURVE",
"412 97 OFFCURVE",
"401 128 OFFCURVE",
"394 159 CURVE",
"333 152 LINE",
"332 120 OFFCURVE",
"334 69 OFFCURVE",
"336 23 CURVE",
"377 2 OFFCURVE",
"443 -9 OFFCURVE",
"491 -9 CURVE SMOOTH"
);
}
);
};
layerId = "C0B3E82F-C341-4413-A405-AFA97EAADFAC";
paths = (
{
closed = 1;
nodes = (
"67 -2 OFFCURVE",
"107 2 OFFCURVE",
"162 2 CURVE SMOOTH",
"215 2 OFFCURVE",
"263 -2 OFFCURVE",
"286 -4 CURVE",
"287 51 LINE",
"269 54 OFFCURVE",
"250 59 OFFCURVE",
"242 67 CURVE",
"238 75 OFFCURVE",
"235 137 OFFCURVE",
"234 221 CURVE",
"232 365 LINE",
"231 478 OFFCURVE",
"285 533 OFFCURVE",
"371 533 CURVE SMOOTH",
"422 533 OFFCURVE",
"466 514 OFFCURVE",
"488 466 CURVE",
"573 466 LINE",
"535 558 OFFCURVE",
"456 598 OFFCURVE",
"363 598 CURVE SMOOTH",
"196 598 OFFCURVE",
"96 492 OFFCURVE",
"96 332 CURVE",
"97 221 LINE",
"97 137 OFFCURVE",
"94 75 OFFCURVE",
"90 67 CURVE",
"79 59 OFFCURVE",
"60 54 OFFCURVE",
"34 50 CURVE",
"37 -5 LINE"
);
},
{
closed = 1;
nodes = (
"611 -9 OFFCURVE",
"705 55 OFFCURVE",
"705 145 CURVE SMOOTH",
"705 308 OFFCURVE",
"462 286 OFFCURVE",
"462 376 CURVE SMOOTH",
"462 416 OFFCURVE",
"497 435 OFFCURVE",
"540 435 CURVE SMOOTH",
"553 435 OFFCURVE",
"569 434 OFFCURVE",
"582 430 CURVE",
"594 409 OFFCURVE",
"604 376 OFFCURVE",
"611 340 CURVE",
"672 345 LINE",
"662 475 LINE",
"630 487 OFFCURVE",
"569 495 OFFCURVE",
"535 495 CURVE SMOOTH",
"424 495 OFFCURVE",
"333 425 OFFCURVE",
"333 335 CURVE SMOOTH",
"333 166 OFFCURVE",
"574 211 OFFCURVE",
"574 104 CURVE SMOOTH",
"574 67 OFFCURVE",
"536 53 OFFCURVE",
"494 53 CURVE SMOOTH",
"471 53 OFFCURVE",
"445 57 OFFCURVE",
"422 72 CURVE",
"412 97 OFFCURVE",
"401 128 OFFCURVE",
"394 159 CURVE",
"333 152 LINE",
"332 120 OFFCURVE",
"334 69 OFFCURVE",
"336 23 CURVE",
"377 2 OFFCURVE",
"443 -9 OFFCURVE",
"491 -9 CURVE SMOOTH"
);
}
);
width = 729;
}
);
unicode = 1E9E;
},
